Varta-Bold.ufo
<glyph name="exclam" format="2">
  <advance width="632.0"/>
  <unicode hex="0021"/>
  <outline>
    <contour>
      <point x="243.0" y="432.0" type="line"/>
      <point x="389.0" y="432.0" type="line"/>
      <point x="420.0" y="1149.0" type="line"/>
      <point x="426.0" y="1372.0" type="line"/>
      <point x="206.0" y="1372.0" type="line"/>
      <point x="212.0" y="1149.0" type="line"/>
    </contour>
    <contour>
      <point x="316.0" y="-25.0" type="curve" smooth="yes"/>
      <point x="397.0" y="-25.0"/>
      <point x="461.0" y="40.0"/>
      <point x="461.0" y="126.0" type="curve" smooth="yes"/>
      <point x="461.0" y="215.0"/>
      <point x="397.0" y="279.0"/>
      <point x="316.0" y="279.0" type="curve" smooth="yes"/>
      <point x="235.0" y="279.0"/>
      <point x="171.0" y="215.0"/>
      <point x="171.0" y="126.0" type="curve" smooth="yes"/>
      <point x="171.0" y="40.0"/>
      <point x="235.0" y="-25.0"/>
    </contour>
  </outline>
</glyph>
<glyph name="numbersign" format="2">
  <advance width="1042.0"/>
  <unicode hex="0023"/>
  <outline>
    <contour>
      <point x="181.0" y="0.0" type="line"/>
      <point x="316.0" y="0.0" type="line"/>
      <point x="365.0" y="405.0" type="line"/>
      <point x="613.0" y="405.0" type="line"/>
      <point x="565.0" y="0.0" type="line"/>
      <point x="699.0" y="0.0" type="line"/>
      <point x="749.0" y="405.0" type="line"/>
      <point x="939.0" y="405.0" type="line"/>
      <point x="939.0" y="550.0" type="line"/>
      <point x="766.0" y="550.0" type="line"/>
      <point x="799.0" y="824.0" type="line"/>
      <point x="980.0" y="824.0" type="line"/>
      <point x="980.0" y="970.0" type="line"/>
      <point x="817.0" y="970.0" type="line"/>
      <point x="863.0" y="1331.0" type="line"/>
      <point x="729.0" y="1331.0" type="line"/>
      <point x="683.0" y="970.0" type="line"/>
      <point x="433.0" y="970.0" type="line"/>
      <point x="478.0" y="1331.0" type="line"/>
      <point x="345.0" y="1331.0" type="line"/>
      <point x="299.0" y="970.0" type="line"/>
      <point x="112.0" y="970.0" type="line"/>
      <point x="112.0" y="824.0" type="line"/>
      <point x="281.0" y="824.0" type="line"/>
      <point x="248.0" y="550.0" type="line"/>
      <point x="71.0" y="550.0" type="line"/>
      <point x="71.0" y="405.0" type="line"/>
      <point x="230.0" y="405.0" type="line"/>
    </contour>
    <contour>
      <point x="383.0" y="550.0" type="line"/>
      <point x="416.0" y="824.0" type="line"/>
      <point x="665.0" y="824.0" type="line"/>
      <point x="631.0" y="550.0" type="line"/>
    </contour>
  </outline>
</glyph>
<glyph name="ampersand" format="2">
  <advance width="1292.0"/>
  <unicode hex="0026"/>
  <outline>
    <contour>
      <point x="483.0" y="-25.0" type="curve" smooth="yes"/>
      <point x="654.0" y="-25.0"/>
      <point x="781.0" y="32.0"/>
      <point x="886.0" y="121.0" type="curve"/>
      <point x="998.0" y="48.0"/>
      <point x="1104.0" y="0.0"/>
      <point x="1204.0" y="-25.0" type="curve"/>
      <point x="1260.0" y="155.0" type="line"/>
      <point x="1188.0" y="171.0"/>
      <point x="1105.0" y="211.0"/>
      <point x="1016.0" y="267.0" type="curve"/>
      <point x="1120.0" y="407.0"/>
      <point x="1195.0" y="565.0"/>
      <point x="1246.0" y="736.0" type="curve"/>
      <point x="1044.0" y="736.0" type="line"/>
      <point x="1006.0" y="593.0"/>
      <point x="946.0" y="470.0"/>
      <point x="869.0" y="368.0" type="curve"/>
      <point x="753.0" y="454.0"/>
      <point x="630.0" y="580.0"/>
      <point x="558.0" y="695.0" type="curve"/>
      <point x="704.0" y="797.0"/>
      <point x="851.0" y="900.0"/>
      <point x="851.0" y="1088.0" type="curve" smooth="yes"/>
      <point x="851.0" y="1256.0"/>
      <point x="738.0" y="1365.0"/>
      <point x="558.0" y="1365.0" type="curve" smooth="yes"/>
      <point x="358.0" y="1365.0"/>
      <point x="231.0" y="1223.0"/>
      <point x="231.0" y="1040.0" type="curve" smooth="yes"/>
      <point x="231.0" y="947.0"/>
      <point x="259.0" y="838.0"/>
      <point x="325.0" y="729.0" type="curve"/>
      <point x="191.0" y="638.0"/>
      <point x="60.0" y="544.0"/>
      <point x="60.0" y="351.0" type="curve" smooth="yes"/>
      <point x="60.0" y="139.0"/>
      <point x="221.0" y="-25.0"/>
    </contour>
    <contour>
      <point x="510.0" y="147.0" type="curve" smooth="yes"/>
      <point x="373.0" y="147.0"/>
      <point x="270.0" y="234.0"/>
      <point x="270.0" y="364.0" type="curve" smooth="yes"/>
      <point x="270.0" y="464.0"/>
      <point x="327.0" y="527.0"/>
      <point x="408.0" y="589.0" type="curve"/>
      <point x="496.0" y="463.0"/>
      <point x="615.0" y="336.0"/>
      <point x="737.0" y="232.0" type="curve"/>
      <point x="677.0" y="178.0"/>
      <point x="596.0" y="147.0"/>
    </contour>
    <contour>
      <point x="474.0" y="824.0" type="curve"/>
      <point x="440.0" y="896.0"/>
      <point x="415.0" y="973.0"/>
      <point x="415.0" y="1037.0" type="curve" smooth="yes"/>
      <point x="415.0" y="1140.0"/>
      <point x="468.0" y="1214.0"/>
      <point x="556.0" y="1214.0" type="curve" smooth="yes"/>
      <point x="635.0" y="1214.0"/>
      <point x="678.0" y="1156.0"/>
      <point x="678.0" y="1084.0" type="curve" smooth="yes"/>
      <point x="678.0" y="966.0"/>
      <point x="587.0" y="897.0"/>
    </contour>
  </outline>
</glyph>
<glyph name="asterisk" format="2">
  <advance width="887.0"/>
  <unicode hex="002A"/>
  <outline>
    <contour>
      <point x="606.0" y="790.0" type="line"/>
      <point x="703.0" y="861.0" type="line"/>
      <point x="576.0" y="1076.0" type="line"/>
      <point x="796.0" y="1168.0" type="line"/>
      <point x="759.0" y="1283.0" type="line"/>
      <point x="525.0" y="1229.0" type="line"/>
      <point x="504.0" y="1474.0" type="line"/>
      <point x="382.0" y="1474.0" type="line"/>
      <point x="360.0" y="1229.0" type="line"/>
      <point x="127.0" y="1285.0" type="line"/>
      <point x="90.0" y="1170.0" type="line"/>
      <point x="310.0" y="1076.0" type="line"/>
      <point x="184.0" y="864.0" type="line"/>
      <point x="282.0" y="792.0" type="line"/>
      <point x="444.0" y="983.0" type="line"/>
    </contour>
  </outline>
</glyph>
<glyph name="plus" format="2">
  <advance width="1042.0"/>
  <unicode hex="002B"/>
  <outline>
    <contour>
      <point x="437.0" y="205.0" type="line"/>
      <point x="604.0" y="205.0" type="line"/>
      <point x="604.0" y="596.0" type="line"/>
      <point x="972.0" y="596.0" type="line"/>
      <point x="972.0" y="755.0" type="line"/>
      <point x="604.0" y="755.0" type="line"/>
      <point x="604.0" y="1147.0" type="line"/>
      <point x="437.0" y="1147.0" type="line"/>
      <point x="437.0" y="755.0" type="line"/>
      <point x="70.0" y="755.0" type="line"/>
      <point x="70.0" y="596.0" type="line"/>
      <point x="437.0" y="596.0" type="line"/>
    </contour>
  </outline>
</glyph>
<glyph name="slash" format="2">
  <advance width="708.0"/>
  <unicode hex="002F"/>
  <outline>
    <contour>
      <point x="23.0" y="-328.0" type="line"/>
      <point x="175.0" y="-328.0" type="line"/>
      <point x="669.0" y="1454.0" type="line"/>
      <point x="518.0" y="1454.0" type="line"/>
    </contour>
  </outline>
</glyph>
<glyph name="one" format="2">
  <advance width="1042.0"/>
  <unicode hex="0031"/>
  <outline>
    <contour>
      <point x="155.0" y="0.0" type="line"/>
      <point x="926.0" y="0.0" type="line"/>
      <point x="926.0" y="175.0" type="line"/>
      <point x="668.0" y="175.0" type="line"/>
      <point x="668.0" y="1343.0" type="line"/>
      <point x="501.0" y="1343.0" type="line"/>
      <point x="422.0" y="1295.0"/>
      <point x="335.0" y="1261.0"/>
      <point x="207.0" y="1238.0" type="curve"/>
      <point x="207.0" y="1094.0" type="line"/>
      <point x="448.0" y="1108.0" type="line"/>
      <point x="448.0" y="175.0" type="line"/>
      <point x="155.0" y="175.0" type="line"/>
    </contour>
  </outline>
</glyph>
<glyph name="four" format="2">
  <advance width="1042.0"/>
  <unicode hex="0034"/>
  <outline>
    <contour>
      <point x="615.0" y="0.0" type="line"/>
      <point x="821.0" y="0.0" type="line"/>
      <point x="821.0" y="341.0" type="line"/>
      <point x="988.0" y="341.0" type="line"/>
      <point x="988.0" y="513.0" type="line"/>
      <point x="821.0" y="513.0" type="line"/>
      <point x="821.0" y="1343.0" type="line"/>
      <point x="563.0" y="1343.0" type="line"/>
      <point x="37.0" y="489.0" type="line"/>
      <point x="37.0" y="341.0" type="line"/>
      <point x="615.0" y="341.0" type="line"/>
    </contour>
    <contour>
      <point x="257.0" y="513.0" type="line"/>
      <point x="511.0" y="922.0" type="line"/>
      <point x="548.0" y="990.0"/>
      <point x="585.0" y="1067.0"/>
      <point x="618.0" y="1133.0" type="curve"/>
      <point x="626.0" y="1133.0" type="line"/>
      <point x="622.0" y="1059.0"/>
      <point x="615.0" y="928.0"/>
      <point x="615.0" y="853.0" type="curve"/>
      <point x="615.0" y="513.0" type="line"/>
    </contour>
  </outline>
</glyph>
<glyph name="five" format="2">
  <advance width="1042.0"/>
  <unicode hex="0035"/>
  <outline>
    <contour>
      <point x="489.0" y="-25.0" type="curve" smooth="yes"/>
      <point x="727.0" y="-25.0"/>
      <point x="944.0" y="143.0"/>
      <point x="944.0" y="435.0" type="curve" smooth="yes"/>
      <point x="944.0" y="725.0"/>
      <point x="767.0" y="865.0"/>
      <point x="535.0" y="865.0" type="curve" smooth="yes"/>
      <point x="465.0" y="865.0"/>
      <point x="412.0" y="849.0"/>
      <point x="355.0" y="820.0" type="curve"/>
      <point x="385.0" y="1156.0" type="line"/>
      <point x="881.0" y="1156.0" type="line"/>
      <point x="881.0" y="1343.0" type="line"/>
      <point x="195.0" y="1343.0" type="line"/>
      <point x="155.0" y="699.0" type="line"/>
      <point x="262.0" y="631.0" type="line"/>
      <point x="340.0" y="682.0"/>
      <point x="389.0" y="705.0"/>
      <point x="473.0" y="705.0" type="curve" smooth="yes"/>
      <point x="637.0" y="705.0"/>
      <point x="724.0" y="591.0"/>
      <point x="724.0" y="429.0" type="curve" smooth="yes"/>
      <point x="724.0" y="259.0"/>
      <point x="613.0" y="155.0"/>
      <point x="463.0" y="155.0" type="curve" smooth="yes"/>
      <point x="325.0" y="155.0"/>
      <point x="240.0" y="217.0"/>
      <point x="162.0" y="292.0" type="curve"/>
      <point x="60.0" y="152.0" type="line"/>
      <point x="155.0" y="56.0"/>
      <point x="279.0" y="-25.0"/>
    </contour>
  </outline>
</glyph>
<glyph name="eight" format="2">
  <advance width="1042.0"/>
  <unicode hex="0038"/>
  <outline>
    <contour>
      <point x="522.0" y="-25.0" type="curve" smooth="yes"/>
      <point x="797.0" y="-25.0"/>
      <point x="959.0" y="136.0"/>
      <point x="959.0" y="335.0" type="curve" smooth="yes"/>
      <point x="959.0" y="509.0"/>
      <point x="852.0" y="618.0"/>
      <point x="733.0" y="685.0" type="curve"/>
      <point x="733.0" y="694.0" type="line"/>
      <point x="816.0" y="754.0"/>
      <point x="909.0" y="883.0"/>
      <point x="909.0" y="1015.0" type="curve" smooth="yes"/>
      <point x="909.0" y="1223.0"/>
      <point x="764.0" y="1365.0"/>
      <point x="534.0" y="1365.0" type="curve" smooth="yes"/>
      <point x="298.0" y="1365.0"/>
      <point x="142.0" y="1227.0"/>
      <point x="142.0" y="1018.0" type="curve" smooth="yes"/>
      <point x="142.0" y="881.0"/>
      <point x="223.0" y="772.0"/>
      <point x="321.0" y="701.0" type="curve"/>
      <point x="321.0" y="693.0" type="line"/>
      <point x="191.0" y="628.0"/>
      <point x="85.0" y="508.0"/>
      <point x="85.0" y="343.0" type="curve" smooth="yes"/>
      <point x="85.0" y="135.0"/>
      <point x="271.0" y="-25.0"/>
    </contour>
    <contour>
      <point x="527.0" y="132.0" type="curve" smooth="yes"/>
      <point x="387.0" y="132.0"/>
      <point x="277.0" y="229.0"/>
      <point x="277.0" y="363.0" type="curve" smooth="yes"/>
      <point x="277.0" y="466.0"/>
      <point x="341.0" y="568.0"/>
      <point x="428.0" y="631.0" type="curve"/>
      <point x="607.0" y="558.0"/>
      <point x="752.0" y="490.0"/>
      <point x="752.0" y="342.0" type="curve" smooth="yes"/>
      <point x="752.0" y="218.0"/>
      <point x="672.0" y="132.0"/>
    </contour>
    <contour>
      <point x="610.0" y="750.0" type="curve"/>
      <point x="462.0" y="807.0"/>
      <point x="339.0" y="881.0"/>
      <point x="339.0" y="1018.0" type="curve" smooth="yes"/>
      <point x="339.0" y="1135.0"/>
      <point x="411.0" y="1208.0"/>
      <point x="529.0" y="1208.0" type="curve" smooth="yes"/>
      <point x="655.0" y="1208.0"/>
      <point x="725.0" y="1121.0"/>
      <point x="725.0" y="1002.0" type="curve" smooth="yes"/>
      <point x="725.0" y="917.0"/>
      <point x="684.0" y="821.0"/>
    </contour>
  </outline>
</glyph>
<glyph name="nine" format="2">
  <advance width="1042.0"/>
  <unicode hex="0039"/>
  <outline>
    <contour>
      <point x="483.0" y="-25.0" type="curve" smooth="yes"/>
      <point x="753.0" y="-25.0"/>
      <point x="947.0" y="201.0"/>
      <point x="947.0" y="698.0" type="curve" smooth="yes"/>
      <point x="947.0" y="1183.0"/>
      <point x="747.0" y="1367.0"/>
      <point x="485.0" y="1367.0" type="curve" smooth="yes"/>
      <point x="266.0" y="1367.0"/>
      <point x="77.0" y="1184.0"/>
      <point x="77.0" y="926.0" type="curve" smooth="yes"/>
      <point x="77.0" y="656.0"/>
      <point x="230.0" y="501.0"/>
      <point x="455.0" y="501.0" type="curve" smooth="yes"/>
      <point x="552.0" y="501.0"/>
      <point x="673.0" y="550.0"/>
      <point x="744.0" y="647.0" type="curve"/>
      <point x="740.0" y="284.0"/>
      <point x="641.0" y="155.0"/>
      <point x="471.0" y="155.0" type="curve" smooth="yes"/>
      <point x="392.0" y="155.0"/>
      <point x="295.0" y="198.0"/>
      <point x="253.0" y="249.0" type="curve"/>
      <point x="143.0" y="115.0" type="line"/>
      <point x="232.0" y="29.0"/>
      <point x="331.0" y="-25.0"/>
    </contour>
    <contour>
      <point x="494.0" y="661.0" type="curve" smooth="yes"/>
      <point x="357.0" y="661.0"/>
      <point x="280.0" y="769.0"/>
      <point x="280.0" y="926.0" type="curve" smooth="yes"/>
      <point x="280.0" y="1089.0"/>
      <point x="374.0" y="1199.0"/>
      <point x="489.0" y="1199.0" type="curve" smooth="yes"/>
      <point x="633.0" y="1199.0"/>
      <point x="739.0" y="1075.0"/>
      <point x="739.0" y="807.0" type="curve"/>
      <point x="662.0" y="694.0"/>
      <point x="571.0" y="661.0"/>
    </contour>
  </outline>
</glyph>
<glyph name="less" format="2">
  <advance width="1042.0"/>
  <unicode hex="003C"/>
  <outline>
    <contour>
      <point x="972.0" y="247.0" type="line"/>
      <point x="972.0" y="432.0" type="line"/>
      <point x="293.0" y="676.0" type="line"/>
      <point x="293.0" y="684.0" type="line"/>
      <point x="972.0" y="928.0" type="line"/>
      <point x="972.0" y="1113.0" type="line"/>
      <point x="70.0" y="762.0" type="line"/>
      <point x="70.0" y="598.0" type="line"/>
    </contour>
  </outline>
</glyph>
<glyph name="equal" format="2">
  <advance width="1042.0"/>
  <unicode hex="003D"/>
  <outline>
    <contour>
      <point x="70.0" y="823.0" type="line"/>
      <point x="972.0" y="823.0" type="line"/>
      <point x="972.0" y="982.0" type="line"/>
      <point x="70.0" y="982.0" type="line"/>
    </contour>
    <contour>
      <point x="70.0" y="370.0" type="line"/>
      <point x="972.0" y="370.0" type="line"/>
      <point x="972.0" y="529.0" type="line"/>
      <point x="70.0" y="529.0" type="line"/>
    </contour>
  </outline>
</glyph>
<glyph name="question" format="2">
  <advance width="900.0"/>
  <unicode hex="003F"/>
  <outline>
    <contour>
      <point x="323.0" y="432.0" type="curve"/>
      <point x="515.0" y="432.0" type="line"/>
      <point x="472.0" y="705.0"/>
      <point x="806.0" y="762.0"/>
      <point x="806.0" y="1070.0" type="curve" smooth="yes"/>
      <point x="806.0" y="1302.0"/>
      <point x="667.0" y="1397.0"/>
      <point x="441.0" y="1397.0" type="curve" smooth="yes"/>
      <point x="289.0" y="1397.0"/>
      <point x="164.0" y="1334.0"/>
      <point x="75.0" y="1231.0" type="curve"/>
      <point x="198.0" y="1113.0" type="line"/>
      <point x="259.0" y="1179.0"/>
      <point x="321.0" y="1215.0"/>
      <point x="417.0" y="1215.0" type="curve" smooth="yes"/>
      <point x="534.0" y="1215.0"/>
      <point x="595.0" y="1168.0"/>
      <point x="595.0" y="1054.0" type="curve" smooth="yes"/>
      <point x="595.0" y="815.0"/>
      <point x="260.0" y="742.0"/>
    </contour>
    <contour>
      <point x="425.0" y="-25.0" type="curve" smooth="yes"/>
      <point x="507.0" y="-25.0"/>
      <point x="571.0" y="40.0"/>
      <point x="571.0" y="126.0" type="curve" smooth="yes"/>
      <point x="571.0" y="215.0"/>
      <point x="507.0" y="279.0"/>
      <point x="425.0" y="279.0" type="curve" smooth="yes"/>
      <point x="344.0" y="279.0"/>
      <point x="282.0" y="215.0"/>
      <point x="282.0" y="126.0" type="curve" smooth="yes"/>
      <point x="282.0" y="40.0"/>
      <point x="344.0" y="-25.0"/>
    </contour>
  </outline>
</glyph>
<glyph name="A" format="2">
  <advance width="1128.0"/>
  <unicode hex="0041"/>
  <anchor x="564.0" y="0.0" name="bottom"/>
  <anchor x="1015.0" y="10.0" name="ogonek"/>
  <anchor x="564.0" y="1340.0" name="top"/>
  <outline>
    <contour>
      <point x="-5.0" y="0.0" type="line"/>
      <point x="219.0" y="0.0" type="line"/>
      <point x="330.0" y="375.0" type="line"/>
      <point x="790.0" y="375.0" type="line"/>
      <point x="901.0" y="0.0" type="line"/>
      <point x="1134.0" y="0.0" type="line"/>
      <point x="692.0" y="1340.0" type="line"/>
      <point x="436.0" y="1340.0" type="line"/>
    </contour>
    <contour>
      <point x="380.0" y="549.0" type="line"/>
      <point x="434.0" y="723.0" type="line"/>
      <point x="477.0" y="866.0"/>
      <point x="518.0" y="1017.0"/>
      <point x="556.0" y="1167.0" type="curve"/>
      <point x="564.0" y="1167.0" type="line"/>
      <point x="604.0" y="1018.0"/>
      <point x="644.0" y="866.0"/>
      <point x="688.0" y="723.0" type="curve"/>
      <point x="740.0" y="549.0" type="line"/>
    </contour>
  </outline>
</glyph>
<glyph name="C" format="2">
  <advance width="1170.0"/>
  <unicode hex="0043"/>
  <anchor x="665.0" y="0.0" name="bottom"/>
  <anchor x="665.0" y="1340.0" name="top"/>
  <outline>
    <contour>
      <point x="695.0" y="-25.0" type="curve" smooth="yes"/>
      <point x="863.0" y="-25.0"/>
      <point x="1004.0" y="44.0"/>
      <point x="1111.0" y="169.0" type="curve"/>
      <point x="988.0" y="303.0" type="line"/>
      <point x="909.0" y="216.0"/>
      <point x="820.0" y="167.0"/>
      <point x="699.0" y="167.0" type="curve" smooth="yes"/>
      <point x="466.0" y="167.0"/>
      <point x="324.0" y="352.0"/>
      <point x="324.0" y="675.0" type="curve" smooth="yes"/>
      <point x="324.0" y="992.0"/>
      <point x="478.0" y="1174.0"/>
      <point x="707.0" y="1174.0" type="curve" smooth="yes"/>
      <point x="811.0" y="1174.0"/>
      <point x="896.0" y="1131.0"/>
      <point x="966.0" y="1061.0" type="curve"/>
      <point x="1089.0" y="1199.0" type="line"/>
      <point x="1005.0" y="1289.0"/>
      <point x="866.0" y="1365.0"/>
      <point x="704.0" y="1365.0" type="curve" smooth="yes"/>
      <point x="360.0" y="1365.0"/>
      <point x="97.0" y="1116.0"/>
      <point x="97.0" y="667.0" type="curve" smooth="yes"/>
      <point x="97.0" y="213.0"/>
      <point x="354.0" y="-25.0"/>
    </contour>
  </outline>
</glyph>
<glyph name="F" format="2">
  <advance width="1028.0"/>
  <unicode hex="0046"/>
  <anchor x="514.0" y="0.0" name="bottom"/>
  <anchor x="514.0" y="1340.0" name="top"/>
  <outline>
    <contour>
      <point x="170.0" y="0.0" type="line"/>
      <point x="392.0" y="0.0" type="line"/>
      <point x="392.0" y="570.0" type="line"/>
      <point x="884.0" y="570.0" type="line"/>
      <point x="884.0" y="755.0" type="line"/>
      <point x="392.0" y="755.0" type="line"/>
      <point x="392.0" y="1155.0" type="line"/>
      <point x="971.0" y="1155.0" type="line"/>
      <point x="971.0" y="1340.0" type="line"/>
      <point x="170.0" y="1340.0" type="line"/>
    </contour>
  </outline>
</glyph>
<glyph name="G" format="2">
  <advance width="1272.0"/>
  <unicode hex="0047"/>
  <anchor x="636.0" y="0.0" name="bottom"/>
  <anchor x="729.0" y="1340.0" name="top"/>
  <outline>
    <contour>
      <point x="717.0" y="-25.0" type="curve" smooth="yes"/>
      <point x="900.0" y="-25.0"/>
      <point x="1056.0" y="48.0"/>
      <point x="1147.0" y="133.0" type="curve"/>
      <point x="1147.0" y="717.0" type="line"/>
      <point x="694.0" y="717.0" type="line"/>
      <point x="694.0" y="536.0" type="line"/>
      <point x="949.0" y="536.0" type="line"/>
      <point x="949.0" y="232.0" type="line"/>
      <point x="903.0" y="192.0"/>
      <point x="822.0" y="167.0"/>
      <point x="743.0" y="167.0" type="curve" smooth="yes"/>
      <point x="468.0" y="167.0"/>
      <point x="324.0" y="347.0"/>
      <point x="324.0" y="671.0" type="curve" smooth="yes"/>
      <point x="324.0" y="999.0"/>
      <point x="486.0" y="1174.0"/>
      <point x="734.0" y="1174.0" type="curve" smooth="yes"/>
      <point x="859.0" y="1174.0"/>
      <point x="937.0" y="1131.0"/>
      <point x="1005.0" y="1064.0" type="curve"/>
      <point x="1129.0" y="1202.0" type="line"/>
      <point x="1045.0" y="1287.0"/>
      <point x="915.0" y="1365.0"/>
      <point x="731.0" y="1365.0" type="curve" smooth="yes"/>
      <point x="368.0" y="1365.0"/>
      <point x="97.0" y="1128.0"/>
      <point x="97.0" y="665.0" type="curve" smooth="yes"/>
      <point x="97.0" y="207.0"/>
      <point x="360.0" y="-25.0"/>
    </contour>
  </outline>
</glyph>
<glyph name="H" format="2">
  <advance width="1344.0"/>
  <unicode hex="0048"/>
  <anchor x="672.0" y="0.0" name="bottom"/>
  <anchor x="672.0" y="670.0" name="center"/>
  <anchor x="672.0" y="1340.0" name="top"/>
  <anchor x="20.0" y="1340.0" name="topleft"/>
  <outline>
    <contour>
      <point x="170.0" y="0.0" type="line"/>
      <point x="392.0" y="0.0" type="line"/>
      <point x="392.0" y="604.0" type="line"/>
      <point x="954.0" y="604.0" type="line"/>
      <point x="954.0" y="0.0" type="line"/>
      <point x="1174.0" y="0.0" type="line"/>
      <point x="1174.0" y="1340.0" type="line"/>
      <point x="954.0" y="1340.0" type="line"/>
      <point x="954.0" y="796.0" type="line"/>
      <point x="392.0" y="796.0" type="line"/>
      <point x="392.0" y="1340.0" type="line"/>
      <point x="170.0" y="1340.0" type="line"/>
    </contour>
  </outline>
</glyph>
<glyph name="I" format="2">
  <advance width="561.0"/>
  <unicode hex="0049"/>
  <anchor x="281.0" y="0.0" name="bottom"/>
  <anchor x="505.0" y="10.0" name="ogonek"/>
  <anchor x="281.0" y="1340.0" name="top"/>
  <anchor x="20.0" y="1340.0" name="topleft"/>
  <outline>
    <contour>
      <point x="170.0" y="0.0" type="line"/>
      <point x="392.0" y="0.0" type="line"/>
      <point x="392.0" y="1340.0" type="line"/>
      <point x="170.0" y="1340.0" type="line"/>
    </contour>
  </outline>
</glyph>
<glyph name="J" format="2">
  <advance width="997.0"/>
  <unicode hex="004A"/>
  <anchor x="499.0" y="0.0" name="bottom"/>
  <anchor x="719.0" y="1340.0" name="top"/>
  <outline>
    <contour>
      <point x="443.0" y="-25.0" type="curve" smooth="yes"/>
      <point x="719.0" y="-25.0"/>
      <point x="834.0" y="165.0"/>
      <point x="834.0" y="406.0" type="curve" smooth="yes"/>
      <point x="834.0" y="1340.0" type="line"/>
      <point x="613.0" y="1340.0" type="line"/>
      <point x="613.0" y="426.0" type="line" smooth="yes"/>
      <point x="613.0" y="231.0"/>
      <point x="549.0" y="167.0"/>
      <point x="419.0" y="167.0" type="curve" smooth="yes"/>
      <point x="333.0" y="167.0"/>
      <point x="259.0" y="212.0"/>
      <point x="201.0" y="311.0" type="curve"/>
      <point x="48.0" y="200.0" type="line"/>
      <point x="132.0" y="51.0"/>
      <point x="260.0" y="-25.0"/>
    </contour>
  </outline>
</glyph>
<glyph name="K" format="2">
  <advance width="1206.0"/>
  <unicode hex="004B"/>
  <anchor x="603.0" y="0.0" name="bottom"/>
  <anchor x="603.0" y="1340.0" name="top"/>
  <outline>
    <contour>
      <point x="170.0" y="0.0" type="line"/>
      <point x="392.0" y="0.0" type="line"/>
      <point x="392.0" y="400.0" type="line"/>
      <point x="593.0" y="646.0" type="line"/>
      <point x="965.0" y="0.0" type="line"/>
      <point x="1209.0" y="0.0" type="line"/>
      <point x="726.0" y="820.0" type="line"/>
      <point x="1141.0" y="1340.0" type="line"/>
      <point x="894.0" y="1340.0" type="line"/>
      <point x="396.0" y="711.0" type="line"/>
      <point x="392.0" y="711.0" type="line"/>
      <point x="392.0" y="1340.0" type="line"/>
      <point x="170.0" y="1340.0" type="line"/>
    </contour>
  </outline>
</glyph>
<glyph name="M" format="2">
  <advance width="1510.0"/>
  <unicode hex="004D"/>
  <anchor x="755.0" y="0.0" name="bottom"/>
  <anchor x="755.0" y="1340.0" name="top"/>
  <outline>
    <contour>
      <point x="160.0" y="0.0" type="line"/>
      <point x="363.0" y="0.0" type="line"/>
      <point x="363.0" y="644.0" type="line" smooth="yes"/>
      <point x="363.0" y="768.0"/>
      <point x="357.0" y="941.0"/>
      <point x="346.0" y="1063.0" type="curve"/>
      <point x="354.0" y="1063.0" type="line"/>
      <point x="461.0" y="761.0" type="line"/>
      <point x="698.0" y="128.0" type="line"/>
      <point x="805.0" y="128.0" type="line"/>
      <point x="1042.0" y="761.0" type="line"/>
      <point x="1150.0" y="1063.0" type="line"/>
      <point x="1158.0" y="1063.0" type="line"/>
      <point x="1147.0" y="941.0"/>
      <point x="1139.0" y="768.0"/>
      <point x="1139.0" y="644.0" type="curve" smooth="yes"/>
      <point x="1141.0" y="0.0" type="line"/>
      <point x="1349.0" y="0.0" type="line"/>
      <point x="1327.0" y="1340.0" type="line"/>
      <point x="1091.0" y="1340.0" type="line"/>
      <point x="850.0" y="666.0" type="line"/>
      <point x="761.0" y="407.0" type="line"/>
      <point x="753.0" y="407.0" type="line"/>
      <point x="663.0" y="666.0" type="line"/>
      <point x="417.0" y="1340.0" type="line"/>
      <point x="180.0" y="1340.0" type="line"/>
    </contour>
  </outline>
</glyph>
<glyph name="N" format="2">
  <advance width="1332.0"/>
  <unicode hex="004E"/>
  <anchor x="666.0" y="0.0" name="bottom"/>
  <anchor x="666.0" y="1340.0" name="top"/>
  <outline>
    <contour>
      <point x="170.0" y="0.0" type="line"/>
      <point x="380.0" y="0.0" type="line"/>
      <point x="380.0" y="615.0" type="line" smooth="yes"/>
      <point x="380.0" y="763.0"/>
      <point x="363.0" y="919.0"/>
      <point x="352.0" y="1059.0" type="curve"/>
      <point x="361.0" y="1059.0" type="line"/>
      <point x="500.0" y="777.0" type="line"/>
      <point x="933.0" y="0.0" type="line"/>
      <point x="1161.0" y="0.0" type="line"/>
      <point x="1161.0" y="1340.0" type="line"/>
      <point x="951.0" y="1340.0" type="line"/>
      <point x="951.0" y="731.0" type="line" smooth="yes"/>
      <point x="951.0" y="584.0"/>
      <point x="969.0" y="418.0"/>
      <point x="979.0" y="281.0" type="curve"/>
      <point x="971.0" y="281.0" type="line"/>
      <point x="831.0" y="566.0" type="line"/>
      <point x="396.0" y="1340.0" type="line"/>
      <point x="170.0" y="1340.0" type="line"/>
    </contour>
  </outline>
</glyph>
<glyph name="O" format="2">
  <advance width="1369.0"/>
  <unicode hex="004F"/>
  <anchor x="685.0" y="0.0" name="bottom"/>
  <anchor x="685.0" y="670.0" name="center"/>
  <anchor x="1232.0" y="10.0" name="ogonek"/>
  <anchor x="685.0" y="1340.0" name="top"/>
  <anchor x="20.0" y="1340.0" name="topleft"/>
  <anchor x="1349.0" y="1340.0" name="topright"/>
  <outline>
    <contour>
      <point x="683.0" y="-25.0" type="curve" smooth="yes"/>
      <point x="1040.0" y="-25.0"/>
      <point x="1270.0" y="228.0"/>
      <point x="1270.0" y="675.0" type="curve" smooth="yes"/>
      <point x="1270.0" y="1118.0"/>
      <point x="1040.0" y="1365.0"/>
      <point x="683.0" y="1365.0" type="curve" smooth="yes"/>
      <point x="326.0" y="1365.0"/>
      <point x="97.0" y="1120.0"/>
      <point x="97.0" y="675.0" type="curve" smooth="yes"/>
      <point x="97.0" y="228.0"/>
      <point x="326.0" y="-25.0"/>
    </contour>
    <contour>
      <point x="683.0" y="167.0" type="curve" smooth="yes"/>
      <point x="456.0" y="167.0"/>
      <point x="324.0" y="355.0"/>
      <point x="324.0" y="675.0" type="curve" smooth="yes"/>
      <point x="324.0" y="992.0"/>
      <point x="456.0" y="1174.0"/>
      <point x="683.0" y="1174.0" type="curve" smooth="yes"/>
      <point x="908.0" y="1174.0"/>
      <point x="1043.0" y="992.0"/>
      <point x="1043.0" y="675.0" type="curve" smooth="yes"/>
      <point x="1043.0" y="355.0"/>
      <point x="908.0" y="167.0"/>
    </contour>
  </outline>
</glyph>
<glyph name="P" format="2">
  <advance width="1196.0"/>
  <unicode hex="0050"/>
  <anchor x="598.0" y="0.0" name="bottom"/>
  <anchor x="598.0" y="1340.0" name="top"/>
  <outline>
    <contour>
      <point x="170.0" y="0.0" type="line"/>
      <point x="392.0" y="0.0" type="line"/>
      <point x="392.0" y="485.0" type="line"/>
      <point x="623.0" y="485.0" type="line" smooth="yes"/>
      <point x="920.0" y="485.0"/>
      <point x="1117.0" y="632.0"/>
      <point x="1117.0" y="925.0" type="curve" smooth="yes"/>
      <point x="1117.0" y="1232.0"/>
      <point x="928.0" y="1340.0"/>
      <point x="621.0" y="1340.0" type="curve"/>
      <point x="170.0" y="1340.0" type="line"/>
    </contour>
    <contour>
      <point x="392.0" y="663.0" type="line"/>
      <point x="392.0" y="1164.0" type="line"/>
      <point x="604.0" y="1164.0" type="line" smooth="yes"/>
      <point x="815.0" y="1164.0"/>
      <point x="900.0" y="1099.0"/>
      <point x="900.0" y="925.0" type="curve" smooth="yes"/>
      <point x="900.0" y="755.0"/>
      <point x="818.0" y="663.0"/>
      <point x="602.0" y="663.0" type="curve"/>
    </contour>
  </outline>
</glyph>
<glyph name="Q" format="2">
  <advance width="1369.0"/>
  <unicode hex="0051"/>
  <anchor x="685.0" y="0.0" name="bottom"/>
  <anchor x="685.0" y="1340.0" name="top"/>
  <outline>
    <contour>
      <point x="1043.0" y="-347.0" type="curve" smooth="yes"/>
      <point x="1132.0" y="-347.0"/>
      <point x="1217.0" y="-329.0"/>
      <point x="1261.0" y="-311.0" type="curve"/>
      <point x="1220.0" y="-145.0" type="line"/>
      <point x="1183.0" y="-156.0"/>
      <point x="1127.0" y="-167.0"/>
      <point x="1068.0" y="-167.0" type="curve" smooth="yes"/>
      <point x="985.0" y="-167.0"/>
      <point x="831.0" y="-149.0"/>
      <point x="811.0" y="-10.0" type="curve"/>
      <point x="1086.0" y="49.0"/>
      <point x="1266.0" y="289.0"/>
      <point x="1266.0" y="676.0" type="curve" smooth="yes"/>
      <point x="1266.0" y="1117.0"/>
      <point x="1036.0" y="1365.0"/>
      <point x="679.0" y="1365.0" type="curve" smooth="yes"/>
      <point x="323.0" y="1365.0"/>
      <point x="93.0" y="1119.0"/>
      <point x="93.0" y="676.0" type="curve" smooth="yes"/>
      <point x="93.0" y="278.0"/>
      <point x="285.0" y="33.0"/>
      <point x="575.0" y="-15.0" type="curve"/>
      <point x="624.0" y="-244.0"/>
      <point x="832.0" y="-347.0"/>
    </contour>
    <contour>
      <point x="679.0" y="167.0" type="curve" smooth="yes"/>
      <point x="455.0" y="167.0"/>
      <point x="320.0" y="358.0"/>
      <point x="320.0" y="676.0" type="curve" smooth="yes"/>
      <point x="320.0" y="992.0"/>
      <point x="455.0" y="1174.0"/>
      <point x="679.0" y="1174.0" type="curve" smooth="yes"/>
      <point x="903.0" y="1174.0"/>
      <point x="1038.0" y="992.0"/>
      <point x="1038.0" y="676.0" type="curve" smooth="yes"/>
      <point x="1038.0" y="358.0"/>
      <point x="903.0" y="167.0"/>
    </contour>
  </outline>
</glyph>
<glyph name="T" format="2">
  <advance width="1106.0"/>
  <unicode hex="0054"/>
  <anchor x="553.0" y="0.0" name="bottom"/>
  <anchor x="553.0" y="670.0" name="center"/>
  <anchor x="553.0" y="1340.0" name="top"/>
  <outline>
    <contour>
      <point x="443.0" y="0.0" type="line"/>
      <point x="663.0" y="0.0" type="line"/>
      <point x="663.0" y="1155.0" type="line"/>
      <point x="1055.0" y="1155.0" type="line"/>
      <point x="1055.0" y="1340.0" type="line"/>
      <point x="50.0" y="1340.0" type="line"/>
      <point x="50.0" y="1155.0" type="line"/>
      <point x="443.0" y="1155.0" type="line"/>
    </contour>
  </outline>
</glyph>
<glyph name="X" format="2">
  <advance width="1085.0"/>
  <unicode hex="0058"/>
  <anchor x="543.0" y="0.0" name="bottom"/>
  <anchor x="543.0" y="1340.0" name="top"/>
  <outline>
    <contour>
      <point x="25.0" y="0.0" type="line"/>
      <point x="258.0" y="0.0" type="line"/>
      <point x="426.0" y="328.0" type="line"/>
      <point x="459.0" y="395.0"/>
      <point x="490.0" y="463.0"/>
      <point x="527.0" y="545.0" type="curve"/>
      <point x="535.0" y="545.0" type="line"/>
      <point x="575.0" y="463.0"/>
      <point x="610.0" y="395.0"/>
      <point x="645.0" y="328.0" type="curve" smooth="yes"/>
      <point x="817.0" y="0.0" type="line"/>
      <point x="1062.0" y="0.0" type="line"/>
      <point x="680.0" y="681.0" type="line"/>
      <point x="1037.0" y="1340.0" type="line"/>
      <point x="803.0" y="1340.0" type="line"/>
      <point x="652.0" y="1031.0" type="line"/>
      <point x="621.0" y="970.0"/>
      <point x="596.0" y="909.0"/>
      <point x="562.0" y="829.0" type="curve"/>
      <point x="553.0" y="829.0" type="line"/>
      <point x="512.0" y="909.0"/>
      <point x="483.0" y="970.0"/>
      <point x="451.0" y="1031.0" type="curve"/>
      <point x="294.0" y="1340.0" type="line"/>
      <point x="48.0" y="1340.0" type="line"/>
      <point x="408.0" y="691.0" type="line"/>
    </contour>
  </outline>
</glyph>
<glyph name="underscore" format="2">
  <advance width="1024.0"/>
  <unicode hex="005F"/>
  <outline>
    <contour>
      <point x="-5.0" y="-269.0" type="line"/>
      <point x="1039.0" y="-269.0" type="line"/>
      <point x="1039.0" y="-134.0" type="line"/>
      <point x="-5.0" y="-134.0" type="line"/>
    </contour>
  </outline>
</glyph>
<glyph name="a" format="2">
  <advance width="1066.0"/>
  <unicode hex="0061"/>
  <anchor x="533.0" y="0.0" name="bottom"/>
  <anchor x="959.0" y="10.0" name="ogonek"/>
  <anchor x="533.0" y="1003.0" name="top"/>
  <outline>
    <contour>
      <point x="416.0" y="-25.0" type="curve" smooth="yes"/>
      <point x="549.0" y="-25.0"/>
      <point x="631.0" y="36.0"/>
      <point x="723.0" y="113.0" type="curve"/>
      <point x="728.0" y="113.0" type="line"/>
      <point x="746.0" y="0.0" type="line"/>
      <point x="926.0" y="0.0" type="line"/>
      <point x="926.0" y="599.0" type="line" smooth="yes"/>
      <point x="926.0" y="880.0"/>
      <point x="811.0" y="1028.0"/>
      <point x="557.0" y="1028.0" type="curve" smooth="yes"/>
      <point x="397.0" y="1028.0"/>
      <point x="250.0" y="976.0"/>
      <point x="144.0" y="910.0" type="curve"/>
      <point x="226.0" y="762.0" type="line"/>
      <point x="312.0" y="817.0"/>
      <point x="412.0" y="850.0"/>
      <point x="517.0" y="850.0" type="curve" smooth="yes"/>
      <point x="662.0" y="850.0"/>
      <point x="707.0" y="779.0"/>
      <point x="707.0" y="634.0" type="curve"/>
      <point x="287.0" y="617.0"/>
      <point x="110.0" y="485.0"/>
      <point x="110.0" y="270.0" type="curve" smooth="yes"/>
      <point x="110.0" y="94.0"/>
      <point x="232.0" y="-25.0"/>
    </contour>
    <contour>
      <point x="481.0" y="148.0" type="curve" smooth="yes"/>
      <point x="386.0" y="148.0"/>
      <point x="322.0" y="190.0"/>
      <point x="322.0" y="285.0" type="curve" smooth="yes"/>
      <point x="322.0" y="393.0"/>
      <point x="407.0" y="492.0"/>
      <point x="707.0" y="501.0" type="curve"/>
      <point x="707.0" y="263.0" type="line"/>
      <point x="631.0" y="190.0"/>
      <point x="567.0" y="148.0"/>
    </contour>
  </outline>
</glyph>
<glyph name="c" format="2">
  <advance width="942.0"/>
  <unicode hex="0063"/>
  <anchor x="471.0" y="0.0" name="bottom"/>
  <anchor x="471.0" y="1003.0" name="top"/>
  <outline>
    <contour>
      <point x="563.0" y="-25.0" type="curve" smooth="yes"/>
      <point x="679.0" y="-25.0"/>
      <point x="795.0" y="13.0"/>
      <point x="888.0" y="95.0" type="curve"/>
      <point x="796.0" y="236.0" type="line"/>
      <point x="740.0" y="189.0"/>
      <point x="672.0" y="155.0"/>
      <point x="585.0" y="155.0" type="curve" smooth="yes"/>
      <point x="422.0" y="155.0"/>
      <point x="310.0" y="287.0"/>
      <point x="310.0" y="503.0" type="curve" smooth="yes"/>
      <point x="310.0" y="720.0"/>
      <point x="425.0" y="849.0"/>
      <point x="592.0" y="849.0" type="curve" smooth="yes"/>
      <point x="659.0" y="849.0"/>
      <point x="718.0" y="822.0"/>
      <point x="773.0" y="775.0" type="curve"/>
      <point x="877.0" y="913.0" type="line"/>
      <point x="810.0" y="979.0"/>
      <point x="710.0" y="1028.0"/>
      <point x="581.0" y="1028.0" type="curve" smooth="yes"/>
      <point x="316.0" y="1028.0"/>
      <point x="86.0" y="850.0"/>
      <point x="86.0" y="503.0" type="curve" smooth="yes"/>
      <point x="86.0" y="159.0"/>
      <point x="292.0" y="-25.0"/>
    </contour>
  </outline>
</glyph>
<glyph name="e" format="2">
  <advance width="1033.0"/>
  <unicode hex="0065"/>
  <anchor x="517.0" y="0.0" name="bottom"/>
  <anchor x="850.0" y="10.0" name="ogonek"/>
  <anchor x="517.0" y="1003.0" name="top"/>
  <outline>
    <contour>
      <point x="577.0" y="-25.0" type="curve" smooth="yes"/>
      <point x="708.0" y="-25.0"/>
      <point x="824.0" y="16.0"/>
      <point x="916.0" y="77.0" type="curve"/>
      <point x="842.0" y="214.0" type="line"/>
      <point x="768.0" y="168.0"/>
      <point x="693.0" y="147.0"/>
      <point x="606.0" y="147.0" type="curve" smooth="yes"/>
      <point x="436.0" y="147.0"/>
      <point x="314.0" y="251.0"/>
      <point x="300.0" y="448.0" type="curve"/>
      <point x="948.0" y="448.0" type="line"/>
      <point x="952.0" y="472.0"/>
      <point x="956.0" y="511.0"/>
      <point x="956.0" y="553.0" type="curve" smooth="yes"/>
      <point x="956.0" y="841.0"/>
      <point x="822.0" y="1028.0"/>
      <point x="544.0" y="1028.0" type="curve" smooth="yes"/>
      <point x="300.0" y="1028.0"/>
      <point x="86.0" y="838.0"/>
      <point x="86.0" y="501.0" type="curve" smooth="yes"/>
      <point x="86.0" y="165.0"/>
      <point x="302.0" y="-25.0"/>
    </contour>
    <contour>
      <point x="298.0" y="587.0" type="line"/>
      <point x="317.0" y="769.0"/>
      <point x="421.0" y="858.0"/>
      <point x="549.0" y="858.0" type="curve" smooth="yes"/>
      <point x="697.0" y="858.0"/>
      <point x="767.0" y="763.0"/>
      <point x="767.0" y="587.0" type="curve"/>
    </contour>
  </outline>
</glyph>
<glyph name="f" format="2">
  <advance width="636.0"/>
  <unicode hex="0066"/>
  <anchor x="318.0" y="0.0" name="bottom"/>
  <anchor x="321.0" y="1340.0" name="top"/>
  <outline>
    <contour>
      <point x="192.0" y="0.0" type="line"/>
      <point x="411.0" y="0.0" type="line"/>
      <point x="411.0" y="828.0" type="line"/>
      <point x="610.0" y="828.0" type="line"/>
      <point x="610.0" y="1003.0" type="line"/>
      <point x="411.0" y="1003.0" type="line"/>
      <point x="411.0" y="1126.0" type="line" smooth="yes"/>
      <point x="411.0" y="1245.0"/>
      <point x="455.0" y="1299.0"/>
      <point x="541.0" y="1299.0" type="curve" smooth="yes"/>
      <point x="577.0" y="1299.0"/>
      <point x="615.0" y="1290.0"/>
      <point x="651.0" y="1276.0" type="curve"/>
      <point x="695.0" y="1440.0" type="line"/>
      <point x="650.0" y="1457.0"/>
      <point x="585.0" y="1474.0"/>
      <point x="514.0" y="1474.0" type="curve" smooth="yes"/>
      <point x="287.0" y="1474.0"/>
      <point x="192.0" y="1331.0"/>
      <point x="192.0" y="1123.0" type="curve" smooth="yes"/>
      <point x="192.0" y="1002.0" type="line"/>
      <point x="56.0" y="992.0" type="line"/>
      <point x="56.0" y="828.0" type="line"/>
      <point x="192.0" y="828.0" type="line"/>
    </contour>
  </outline>
</glyph>
<glyph name="h" format="2">
  <advance width="1135.0"/>
  <unicode hex="0068"/>
  <anchor x="568.0" y="0.0" name="bottom"/>
  <anchor x="568.0" y="951.0" name="center"/>
  <anchor x="262.0" y="1365.0" name="top"/>
  <outline>
    <contour>
      <point x="155.0" y="0.0" type="line"/>
      <point x="373.0" y="0.0" type="line"/>
      <point x="373.0" y="708.0" type="line"/>
      <point x="460.0" y="794.0"/>
      <point x="522.0" y="840.0"/>
      <point x="614.0" y="840.0" type="curve" smooth="yes"/>
      <point x="731.0" y="840.0"/>
      <point x="778.0" y="776.0"/>
      <point x="778.0" y="604.0" type="curve" smooth="yes"/>
      <point x="778.0" y="0.0" type="line"/>
      <point x="997.0" y="0.0" type="line"/>
      <point x="997.0" y="633.0" type="line" smooth="yes"/>
      <point x="997.0" y="887.0"/>
      <point x="906.0" y="1028.0"/>
      <point x="689.0" y="1028.0" type="curve" smooth="yes"/>
      <point x="551.0" y="1028.0"/>
      <point x="451.0" y="955.0"/>
      <point x="364.0" y="873.0" type="curve"/>
      <point x="373.0" y="1069.0" type="line"/>
      <point x="373.0" y="1450.0" type="line"/>
      <point x="155.0" y="1450.0" type="line"/>
    </contour>
  </outline>
</glyph>
<glyph name="j" format="2">
  <advance width="530.0"/>
  <unicode hex="006A"/>
  <anchor x="157.0" y="-200.0" name="btm"/>
  <anchor x="157.0" y="800.0" name="top"/>
  <outline>
    <contour>
      <point x="69.0" y="-428.0" type="curve" smooth="yes"/>
      <point x="297.0" y="-428.0"/>
      <point x="375.0" y="-281.0"/>
      <point x="375.0" y="-71.0" type="curve" smooth="yes"/>
      <point x="375.0" y="1003.0" type="line"/>
      <point x="157.0" y="1003.0" type="line"/>
      <point x="157.0" y="-74.0" type="line" smooth="yes"/>
      <point x="157.0" y="-192.0"/>
      <point x="131.0" y="-253.0"/>
      <point x="40.0" y="-253.0" type="curve" smooth="yes"/>
      <point x="7.0" y="-253.0"/>
      <point x="-24.0" y="-246.0"/>
      <point x="-49.0" y="-238.0" type="curve"/>
      <point x="-90.0" y="-401.0" type="line"/>
      <point x="-53.0" y="-416.0"/>
      <point x="-1.0" y="-428.0"/>
    </contour>
    <contour>
      <point x="268.0" y="1187.0" type="curve" smooth="yes"/>
      <point x="345.0" y="1187.0"/>
      <point x="405.0" y="1240.0"/>
      <point x="405.0" y="1314.0" type="curve" smooth="yes"/>
      <point x="405.0" y="1390.0"/>
      <point x="345.0" y="1441.0"/>
      <point x="268.0" y="1441.0" type="curve" smooth="yes"/>
      <point x="188.0" y="1441.0"/>
      <point x="129.0" y="1390.0"/>
      <point x="129.0" y="1314.0" type="curve" smooth="yes"/>
      <point x="129.0" y="1240.0"/>
      <point x="188.0" y="1187.0"/>
    </contour>
  </outline>
</glyph>
<glyph name="k" format="2">
  <advance width="1055.0"/>
  <unicode hex="006B"/>
  <anchor x="528.0" y="0.0" name="bottom"/>
  <anchor x="528.0" y="1902.0" name="top"/>
  <outline>
    <contour>
      <point x="155.0" y="0.0" type="line"/>
      <point x="369.0" y="0.0" type="line"/>
      <point x="369.0" y="257.0" type="line"/>
      <point x="533.0" y="447.0" type="line"/>
      <point x="801.0" y="0.0" type="line"/>
      <point x="1039.0" y="0.0" type="line"/>
      <point x="658.0" y="597.0" type="line"/>
      <point x="1001.0" y="1003.0" type="line"/>
      <point x="761.0" y="1003.0" type="line"/>
      <point x="376.0" y="525.0" type="line"/>
      <point x="369.0" y="525.0" type="line"/>
      <point x="369.0" y="1450.0" type="line"/>
      <point x="155.0" y="1450.0" type="line"/>
    </contour>
  </outline>
</glyph>
<glyph name="m" format="2">
  <advance width="1720.0"/>
  <unicode hex="006D"/>
  <anchor x="860.0" y="0.0" name="bottom"/>
  <anchor x="860.0" y="1003.0" name="top"/>
  <outline>
    <contour>
      <point x="155.0" y="0.0" type="line"/>
      <point x="373.0" y="0.0" type="line"/>
      <point x="373.0" y="708.0" type="line"/>
      <point x="455.0" y="796.0"/>
      <point x="529.0" y="840.0"/>
      <point x="594.0" y="840.0" type="curve" smooth="yes"/>
      <point x="711.0" y="840.0"/>
      <point x="756.0" y="781.0"/>
      <point x="756.0" y="609.0" type="curve" smooth="yes"/>
      <point x="756.0" y="0.0" type="line"/>
      <point x="975.0" y="0.0" type="line"/>
      <point x="975.0" y="711.0" type="line"/>
      <point x="1057.0" y="799.0"/>
      <point x="1128.0" y="840.0"/>
      <point x="1196.0" y="840.0" type="curve" smooth="yes"/>
      <point x="1312.0" y="840.0"/>
      <point x="1358.0" y="777.0"/>
      <point x="1358.0" y="605.0" type="curve" smooth="yes"/>
      <point x="1358.0" y="0.0" type="line"/>
      <point x="1576.0" y="0.0" type="line"/>
      <point x="1576.0" y="634.0" type="line" smooth="yes"/>
      <point x="1576.0" y="888.0"/>
      <point x="1485.0" y="1028.0"/>
      <point x="1268.0" y="1028.0" type="curve" smooth="yes"/>
      <point x="1142.0" y="1028.0"/>
      <point x="1042.0" y="953.0"/>
      <point x="943.0" y="848.0" type="curve"/>
      <point x="901.0" y="969.0"/>
      <point x="824.0" y="1028.0"/>
      <point x="669.0" y="1028.0" type="curve" smooth="yes"/>
      <point x="545.0" y="1028.0"/>
      <point x="444.0" y="955.0"/>
      <point x="359.0" y="865.0" type="curve"/>
      <point x="351.0" y="865.0" type="line"/>
      <point x="334.0" y="1003.0" type="line"/>
      <point x="155.0" y="1003.0" type="line"/>
    </contour>
  </outline>
</glyph>
<glyph name="n" format="2">
  <advance width="1139.0"/>
  <unicode hex="006E"/>
  <anchor x="570.0" y="0.0" name="bottom"/>
  <anchor x="570.0" y="1003.0" name="top"/>
  <outline>
    <contour>
      <point x="155.0" y="0.0" type="line"/>
      <point x="373.0" y="0.0" type="line"/>
      <point x="373.0" y="708.0" type="line"/>
      <point x="460.0" y="794.0"/>
      <point x="522.0" y="840.0"/>
      <point x="614.0" y="840.0" type="curve" smooth="yes"/>
      <point x="734.0" y="840.0"/>
      <point x="778.0" y="777.0"/>
      <point x="778.0" y="605.0" type="curve" smooth="yes"/>
      <point x="778.0" y="0.0" type="line"/>
      <point x="997.0" y="0.0" type="line"/>
      <point x="997.0" y="634.0" type="line" smooth="yes"/>
      <point x="997.0" y="888.0"/>
      <point x="908.0" y="1028.0"/>
      <point x="689.0" y="1028.0" type="curve" smooth="yes"/>
      <point x="551.0" y="1028.0"/>
      <point x="449.0" y="955.0"/>
      <point x="359.0" y="865.0" type="curve"/>
      <point x="351.0" y="865.0" type="line"/>
      <point x="334.0" y="1003.0" type="line"/>
      <point x="155.0" y="1003.0" type="line"/>
    </contour>
  </outline>
</glyph>
<glyph name="o" format="2">
  <advance width="1120.0"/>
  <unicode hex="006F"/>
  <anchor x="560.0" y="0.0" name="bottom"/>
  <anchor x="560.0" y="502.0" name="center"/>
  <anchor x="821.0" y="10.0" name="ogonek"/>
  <anchor x="560.0" y="1003.0" name="top"/>
  <anchor x="1100.0" y="1003.0" name="topright"/>
  <outline>
    <contour>
      <point x="560.0" y="-25.0" type="curve" smooth="yes"/>
      <point x="813.0" y="-25.0"/>
      <point x="1034.0" y="164.0"/>
      <point x="1034.0" y="502.0" type="curve" smooth="yes"/>
      <point x="1034.0" y="842.0"/>
      <point x="813.0" y="1028.0"/>
      <point x="560.0" y="1028.0" type="curve" smooth="yes"/>
      <point x="306.0" y="1028.0"/>
      <point x="87.0" y="842.0"/>
      <point x="87.0" y="502.0" type="curve" smooth="yes"/>
      <point x="87.0" y="164.0"/>
      <point x="306.0" y="-25.0"/>
    </contour>
    <contour>
      <point x="560.0" y="155.0" type="curve" smooth="yes"/>
      <point x="404.0" y="155.0"/>
      <point x="313.0" y="291.0"/>
      <point x="313.0" y="502.0" type="curve" smooth="yes"/>
      <point x="313.0" y="714.0"/>
      <point x="404.0" y="849.0"/>
      <point x="560.0" y="849.0" type="curve" smooth="yes"/>
      <point x="717.0" y="849.0"/>
      <point x="809.0" y="714.0"/>
      <point x="809.0" y="502.0" type="curve" smooth="yes"/>
      <point x="809.0" y="291.0"/>
      <point x="717.0" y="155.0"/>
    </contour>
  </outline>
</glyph>
<glyph name="r" format="2">
  <advance width="751.0"/>
  <unicode hex="0072"/>
  <anchor x="266.0" y="0.0" name="bottom"/>
  <anchor x="426.0" y="1003.0" name="top"/>
  <outline>
    <contour>
      <point x="155.0" y="0.0" type="line"/>
      <point x="373.0" y="0.0" type="line"/>
      <point x="373.0" y="620.0" type="line"/>
      <point x="435.0" y="776.0"/>
      <point x="534.0" y="833.0"/>
      <point x="614.0" y="833.0" type="curve" smooth="yes"/>
      <point x="656.0" y="833.0"/>
      <point x="682.0" y="827.0"/>
      <point x="716.0" y="817.0" type="curve"/>
      <point x="755.0" y="1007.0" type="line"/>
      <point x="724.0" y="1021.0"/>
      <point x="692.0" y="1028.0"/>
      <point x="643.0" y="1028.0" type="curve" smooth="yes"/>
      <point x="534.0" y="1028.0"/>
      <point x="428.0" y="953.0"/>
      <point x="359.0" y="824.0" type="curve"/>
      <point x="351.0" y="824.0" type="line"/>
      <point x="334.0" y="1003.0" type="line"/>
      <point x="155.0" y="1003.0" type="line"/>
    </contour>
  </outline>
</glyph>
<glyph name="s" format="2">
  <advance width="877.0"/>
  <unicode hex="0073"/>
  <anchor x="439.0" y="0.0" name="bottom"/>
  <anchor x="439.0" y="1003.0" name="top"/>
  <outline>
    <contour>
      <point x="430.0" y="-25.0" type="curve" smooth="yes"/>
      <point x="680.0" y="-25.0"/>
      <point x="815.0" y="112.0"/>
      <point x="815.0" y="281.0" type="curve" smooth="yes"/>
      <point x="815.0" y="469.0"/>
      <point x="660.0" y="536.0"/>
      <point x="522.0" y="586.0" type="curve"/>
      <point x="413.0" y="628.0"/>
      <point x="310.0" y="666.0"/>
      <point x="310.0" y="750.0" type="curve" smooth="yes"/>
      <point x="310.0" y="818.0"/>
      <point x="357.0" y="862.0"/>
      <point x="465.0" y="862.0" type="curve" smooth="yes"/>
      <point x="555.0" y="862.0"/>
      <point x="619.0" y="829.0"/>
      <point x="689.0" y="777.0" type="curve"/>
      <point x="790.0" y="911.0" type="line"/>
      <point x="709.0" y="975.0"/>
      <point x="598.0" y="1028.0"/>
      <point x="462.0" y="1028.0" type="curve" smooth="yes"/>
      <point x="239.0" y="1028.0"/>
      <point x="101.0" y="904.0"/>
      <point x="101.0" y="734.0" type="curve" smooth="yes"/>
      <point x="101.0" y="566.0"/>
      <point x="254.0" y="488.0"/>
      <point x="387.0" y="439.0" type="curve" smooth="yes"/>
      <point x="495.0" y="398.0"/>
      <point x="607.0" y="358.0"/>
      <point x="607.0" y="268.0" type="curve" smooth="yes"/>
      <point x="607.0" y="195.0"/>
      <point x="555.0" y="141.0"/>
      <point x="436.0" y="141.0" type="curve" smooth="yes"/>
      <point x="330.0" y="141.0"/>
      <point x="247.0" y="187.0"/>
      <point x="158.0" y="256.0" type="curve"/>
      <point x="55.0" y="115.0" type="line"/>
      <point x="152.0" y="34.0"/>
      <point x="292.0" y="-25.0"/>
    </contour>
  </outline>
</glyph>
<glyph name="t" format="2">
  <advance width="727.0"/>
  <unicode hex="0074"/>
  <anchor x="424.0" y="0.0" name="bottom"/>
  <anchor x="572.0" y="1001.0" name="car"/>
  <anchor x="364.0" y="502.0" name="center"/>
  <anchor x="304.0" y="1193.0" name="top"/>
  <anchor x="547.0" y="1003.0" name="topright"/>
  <outline>
    <contour>
      <point x="497.0" y="-25.0" type="curve" smooth="yes"/>
      <point x="574.0" y="-25.0"/>
      <point x="643.0" y="-5.0"/>
      <point x="698.0" y="12.0" type="curve"/>
      <point x="659.0" y="174.0" type="line"/>
      <point x="629.0" y="163.0"/>
      <point x="587.0" y="150.0"/>
      <point x="553.0" y="150.0" type="curve" smooth="yes"/>
      <point x="452.0" y="150.0"/>
      <point x="408.0" y="211.0"/>
      <point x="408.0" y="331.0" type="curve" smooth="yes"/>
      <point x="408.0" y="828.0" type="line"/>
      <point x="667.0" y="828.0" type="line"/>
      <point x="667.0" y="1003.0" type="line"/>
      <point x="408.0" y="1003.0" type="line"/>
      <point x="408.0" y="1279.0" type="line"/>
      <point x="225.0" y="1279.0" type="line"/>
      <point x="199.0" y="1003.0" type="line"/>
      <point x="44.0" y="992.0" type="line"/>
      <point x="44.0" y="828.0" type="line"/>
      <point x="188.0" y="828.0" type="line"/>
      <point x="188.0" y="331.0" type="line" smooth="yes"/>
      <point x="188.0" y="119.0"/>
      <point x="270.0" y="-25.0"/>
    </contour>
  </outline>
</glyph>
<glyph name="u" format="2">
  <advance width="1133.0"/>
  <unicode hex="0075"/>
  <anchor x="567.0" y="0.0" name="bottom"/>
  <anchor x="1029.0" y="10.0" name="ogonek"/>
  <anchor x="557.0" y="1003.0" name="top"/>
  <anchor x="1113.0" y="1003.0" name="topright"/>
  <outline>
    <contour>
      <point x="451.0" y="-25.0" type="curve" smooth="yes"/>
      <point x="595.0" y="-25.0"/>
      <point x="686.0" y="44.0"/>
      <point x="775.0" y="150.0" type="curve"/>
      <point x="782.0" y="150.0" type="line"/>
      <point x="799.0" y="0.0" type="line"/>
      <point x="979.0" y="0.0" type="line"/>
      <point x="979.0" y="1003.0" type="line"/>
      <point x="760.0" y="1003.0" type="line"/>
      <point x="760.0" y="310.0" type="line"/>
      <point x="679.0" y="207.0"/>
      <point x="624.0" y="163.0"/>
      <point x="526.0" y="163.0" type="curve" smooth="yes"/>
      <point x="405.0" y="163.0"/>
      <point x="362.0" y="228.0"/>
      <point x="362.0" y="399.0" type="curve" smooth="yes"/>
      <point x="362.0" y="1003.0" type="line"/>
      <point x="142.0" y="1003.0" type="line"/>
      <point x="142.0" y="370.0" type="line" smooth="yes"/>
      <point x="142.0" y="116.0"/>
      <point x="230.0" y="-25.0"/>
    </contour>
  </outline>
</glyph>
<glyph name="w" format="2">
  <advance width="1515.0"/>
  <unicode hex="0077"/>
  <anchor x="758.0" y="0.0" name="bottom"/>
  <anchor x="758.0" y="1003.0" name="top"/>
  <outline>
    <contour>
      <point x="317.0" y="0.0" type="line"/>
      <point x="570.0" y="0.0" type="line"/>
      <point x="691.0" y="484.0" type="line"/>
      <point x="714.0" y="579.0"/>
      <point x="732.0" y="673.0"/>
      <point x="753.0" y="776.0" type="curve"/>
      <point x="761.0" y="776.0" type="line"/>
      <point x="783.0" y="673.0"/>
      <point x="801.0" y="580.0"/>
      <point x="824.0" y="486.0" type="curve"/>
      <point x="948.0" y="0.0" type="line"/>
      <point x="1209.0" y="0.0" type="line"/>
      <point x="1466.0" y="1003.0" type="line"/>
      <point x="1262.0" y="1003.0" type="line"/>
      <point x="1135.0" y="468.0" type="line"/>
      <point x="1115.0" y="371.0"/>
      <point x="1100.0" y="278.0"/>
      <point x="1079.0" y="182.0" type="curve"/>
      <point x="1071.0" y="182.0" type="line"/>
      <point x="1049.0" y="278.0"/>
      <point x="1028.0" y="371.0"/>
      <point x="1004.0" y="468.0" type="curve"/>
      <point x="863.0" y="1003.0" type="line"/>
      <point x="663.0" y="1003.0" type="line"/>
      <point x="525.0" y="468.0" type="line"/>
      <point x="500.0" y="374.0"/>
      <point x="482.0" y="278.0"/>
      <point x="460.0" y="182.0" type="curve"/>
      <point x="452.0" y="182.0" type="line"/>
      <point x="435.0" y="278.0"/>
      <point x="418.0" y="371.0"/>
      <point x="398.0" y="468.0" type="curve"/>
      <point x="269.0" y="1003.0" type="line"/>
      <point x="49.0" y="1003.0" type="line"/>
    </contour>
  </outline>
</glyph>
<glyph name="y" format="2">
  <advance width="998.0"/>
  <unicode hex="0079"/>
  <anchor x="823.0" y="200.0" name="bottom"/>
  <anchor x="499.0" y="1003.0" name="top"/>
  <outline>
    <contour>
      <point x="208.0" y="-416.0" type="curve" smooth="yes"/>
      <point x="423.0" y="-416.0"/>
      <point x="528.0" y="-274.0"/>
      <point x="608.0" y="-55.0" type="curve"/>
      <point x="974.0" y="1003.0" type="line"/>
      <point x="760.0" y="1003.0" type="line"/>
      <point x="604.0" y="496.0" type="line"/>
      <point x="578.0" y="404.0"/>
      <point x="554.0" y="305.0"/>
      <point x="527.0" y="212.0" type="curve"/>
      <point x="519.0" y="212.0" type="line"/>
      <point x="490.0" y="308.0"/>
      <point x="459.0" y="407.0"/>
      <point x="428.0" y="496.0" type="curve" smooth="yes"/>
      <point x="248.0" y="1003.0" type="line"/>
      <point x="25.0" y="1003.0" type="line"/>
      <point x="421.0" y="9.0" type="line"/>
      <point x="401.0" y="-57.0" type="line"/>
      <point x="366.0" y="-164.0"/>
      <point x="302.0" y="-240.0"/>
      <point x="194.0" y="-240.0" type="curve" smooth="yes"/>
      <point x="171.0" y="-240.0"/>
      <point x="141.0" y="-232.0"/>
      <point x="121.0" y="-226.0" type="curve"/>
      <point x="81.0" y="-396.0" type="line"/>
      <point x="116.0" y="-408.0"/>
      <point x="156.0" y="-416.0"/>
    </contour>
  </outline>
</glyph>
<glyph name="braceleft" format="2">
  <advance width="653.0"/>
  <unicode hex="007B"/>
  <outline>
    <contour>
      <point x="471.0" y="-311.0" type="curve" smooth="yes"/>
      <point x="578.0" y="-311.0" type="line"/>
      <point x="578.0" y="-191.0" type="line"/>
      <point x="528.0" y="-191.0" type="line" smooth="yes"/>
      <point x="429.0" y="-191.0"/>
      <point x="402.0" y="-146.0"/>
      <point x="402.0" y="-21.0" type="curve" smooth="yes"/>
      <point x="402.0" y="98.0"/>
      <point x="413.0" y="202.0"/>
      <point x="413.0" y="336.0" type="curve" smooth="yes"/>
      <point x="413.0" y="476.0"/>
      <point x="373.0" y="541.0"/>
      <point x="279.0" y="565.0" type="curve"/>
      <point x="279.0" y="573.0" type="line"/>
      <point x="373.0" y="598.0"/>
      <point x="413.0" y="661.0"/>
      <point x="413.0" y="803.0" type="curve" smooth="yes"/>
      <point x="413.0" y="927.0"/>
      <point x="402.0" y="1045.0"/>
      <point x="402.0" y="1159.0" type="curve" smooth="yes"/>
      <point x="402.0" y="1285.0"/>
      <point x="429.0" y="1328.0"/>
      <point x="528.0" y="1328.0" type="curve" smooth="yes"/>
      <point x="578.0" y="1328.0" type="line"/>
      <point x="578.0" y="1450.0" type="line"/>
      <point x="471.0" y="1450.0" type="line" smooth="yes"/>
      <point x="303.0" y="1450.0"/>
      <point x="224.0" y="1383.0"/>
      <point x="224.0" y="1171.0" type="curve" smooth="yes"/>
      <point x="224.0" y="1028.0"/>
      <point x="244.0" y="919.0"/>
      <point x="244.0" y="791.0" type="curve" smooth="yes"/>
      <point x="244.0" y="715.0"/>
      <point x="204.0" y="639.0"/>
      <point x="67.0" y="636.0" type="curve"/>
      <point x="67.0" y="503.0" type="line"/>
      <point x="204.0" y="500.0"/>
      <point x="244.0" y="423.0"/>
      <point x="244.0" y="346.0" type="curve" smooth="yes"/>
      <point x="244.0" y="212.0"/>
      <point x="224.0" y="116.0"/>
      <point x="224.0" y="-32.0" type="curve" smooth="yes"/>
      <point x="224.0" y="-247.0"/>
      <point x="303.0" y="-311.0"/>
    </contour>
  </outline>
</glyph>
<glyph name="cent" format="2">
  <advance width="1042.0"/>
  <unicode hex="00A2"/>
  <outline>
    <contour>
      <point x="547.0" y="-74.0" type="line"/>
      <point x="676.0" y="-74.0" type="line"/>
      <point x="676.0" y="131.0" type="line"/>
      <point x="777.0" y="141.0"/>
      <point x="877.0" y="187.0"/>
      <point x="956.0" y="256.0" type="curve"/>
      <point x="864.0" y="395.0" type="line"/>
      <point x="814.0" y="353.0"/>
      <point x="751.0" y="316.0"/>
      <point x="676.0" y="309.0" type="curve"/>
      <point x="676.0" y="956.0" type="line"/>
      <point x="735.0" y="952.0"/>
      <point x="786.0" y="925.0"/>
      <point x="835.0" y="882.0" type="curve"/>
      <point x="938.0" y="1019.0" type="line"/>
      <point x="877.0" y="1079.0"/>
      <point x="790.0" y="1128.0"/>
      <point x="676.0" y="1136.0" type="curve"/>
      <point x="676.0" y="1339.0" type="line"/>
      <point x="547.0" y="1339.0" type="line"/>
      <point x="547.0" y="1129.0" type="line"/>
      <point x="307.0" y="1092.0"/>
      <point x="124.0" y="918.0"/>
      <point x="124.0" y="633.0" type="curve" smooth="yes"/>
      <point x="124.0" y="341.0"/>
      <point x="295.0" y="163.0"/>
      <point x="547.0" y="132.0" type="curve"/>
    </contour>
    <contour>
      <point x="547.0" y="322.0" type="line"/>
      <point x="415.0" y="360.0"/>
      <point x="340.0" y="473.0"/>
      <point x="340.0" y="633.0" type="curve" smooth="yes"/>
      <point x="340.0" y="791.0"/>
      <point x="417.0" y="904.0"/>
      <point x="547.0" y="942.0" type="curve"/>
    </contour>
  </outline>
</glyph>
<glyph name="sterling" format="2">
  <advance width="1042.0"/>
  <unicode hex="00A3"/>
  <outline>
    <contour>
      <point x="104.0" y="0.0" type="line"/>
      <point x="982.0" y="0.0" type="line"/>
      <point x="982.0" y="187.0" type="line"/>
      <point x="401.0" y="187.0" type="line"/>
      <point x="401.0" y="195.0" type="line"/>
      <point x="477.0" y="275.0"/>
      <point x="515.0" y="354.0"/>
      <point x="515.0" y="480.0" type="curve" smooth="yes"/>
      <point x="515.0" y="512.0"/>
      <point x="512.0" y="543.0"/>
      <point x="507.0" y="573.0" type="curve"/>
      <point x="767.0" y="573.0" type="line"/>
      <point x="767.0" y="714.0" type="line"/>
      <point x="476.0" y="714.0" type="line"/>
      <point x="456.0" y="787.0"/>
      <point x="437.0" y="855.0"/>
      <point x="437.0" y="927.0" type="curve" smooth="yes"/>
      <point x="437.0" y="1073.0"/>
      <point x="517.0" y="1148.0"/>
      <point x="650.0" y="1148.0" type="curve" smooth="yes"/>
      <point x="732.0" y="1148.0"/>
      <point x="786.0" y="1122.0"/>
      <point x="835.0" y="1060.0" type="curve"/>
      <point x="959.0" y="1190.0" type="line"/>
      <point x="879.0" y="1286.0"/>
      <point x="775.0" y="1329.0"/>
      <point x="627.0" y="1329.0" type="curve" smooth="yes"/>
      <point x="390.0" y="1329.0"/>
      <point x="224.0" y="1192.0"/>
      <point x="224.0" y="935.0" type="curve" smooth="yes"/>
      <point x="224.0" y="862.0"/>
      <point x="248.0" y="789.0"/>
      <point x="271.0" y="714.0" type="curve"/>
      <point x="244.0" y="714.0" type="line"/>
      <point x="113.0" y="706.0" type="line"/>
      <point x="113.0" y="573.0" type="line"/>
      <point x="310.0" y="573.0" type="line"/>
      <point x="316.0" y="543.0"/>
      <point x="321.0" y="513.0"/>
      <point x="321.0" y="482.0" type="curve" smooth="yes"/>
      <point x="321.0" y="331.0"/>
      <point x="237.0" y="202.0"/>
      <point x="104.0" y="134.0" type="curve"/>
    </contour>
  </outline>
</glyph>
<glyph name="currency" format="2">
  <advance width="1042.0"/>
  <unicode hex="00A4"/>
  <outline>
    <contour>
      <point x="161.0" y="195.0" type="line"/>
      <point x="302.0" y="338.0" type="line"/>
      <point x="365.0" y="294.0"/>
      <point x="442.0" y="271.0"/>
      <point x="522.0" y="271.0" type="curve" smooth="yes"/>
      <point x="598.0" y="271.0"/>
      <point x="677.0" y="294.0"/>
      <point x="740.0" y="338.0" type="curve"/>
      <point x="880.0" y="195.0" type="line"/>
      <point x="994.0" y="310.0" type="line"/>
      <point x="863.0" y="441.0" type="line"/>
      <point x="909.0" y="504.0"/>
      <point x="937.0" y="582.0"/>
      <point x="937.0" y="675.0" type="curve" smooth="yes"/>
      <point x="937.0" y="766.0"/>
      <point x="910.0" y="846.0"/>
      <point x="863.0" y="908.0" type="curve"/>
      <point x="994.0" y="1040.0" type="line"/>
      <point x="880.0" y="1155.0" type="line"/>
      <point x="741.0" y="1011.0" type="line"/>
      <point x="677.0" y="1055.0"/>
      <point x="598.0" y="1078.0"/>
      <point x="522.0" y="1078.0" type="curve" smooth="yes"/>
      <point x="442.0" y="1078.0"/>
      <point x="365.0" y="1055.0"/>
      <point x="302.0" y="1011.0" type="curve"/>
      <point x="161.0" y="1155.0" type="line"/>
      <point x="48.0" y="1040.0" type="line"/>
      <point x="176.0" y="908.0" type="line"/>
      <point x="131.0" y="846.0"/>
      <point x="105.0" y="766.0"/>
      <point x="105.0" y="675.0" type="curve" smooth="yes"/>
      <point x="105.0" y="582.0"/>
      <point x="131.0" y="504.0"/>
      <point x="177.0" y="441.0" type="curve"/>
      <point x="48.0" y="310.0" type="line"/>
    </contour>
    <contour>
      <point x="522.0" y="428.0" type="curve" smooth="yes"/>
      <point x="402.0" y="428.0"/>
      <point x="304.0" y="526.0"/>
      <point x="304.0" y="675.0" type="curve" smooth="yes"/>
      <point x="304.0" y="822.0"/>
      <point x="402.0" y="921.0"/>
      <point x="522.0" y="921.0" type="curve" smooth="yes"/>
      <point x="640.0" y="921.0"/>
      <point x="739.0" y="822.0"/>
      <point x="739.0" y="675.0" type="curve" smooth="yes"/>
      <point x="739.0" y="526.0"/>
      <point x="640.0" y="428.0"/>
    </contour>
  </outline>
</glyph>
<glyph name="copyright" format="2">
  <advance width="1529.0"/>
  <unicode hex="00A9"/>
  <outline>
    <contour>
      <point x="767.0" y="-49.0" type="curve" smooth="yes"/>
      <point x="1140.0" y="-49.0"/>
      <point x="1459.0" y="226.0"/>
      <point x="1459.0" y="663.0" type="curve" smooth="yes"/>
      <point x="1459.0" y="1099.0"/>
      <point x="1140.0" y="1367.0"/>
      <point x="767.0" y="1367.0" type="curve" smooth="yes"/>
      <point x="395.0" y="1367.0"/>
      <point x="74.0" y="1100.0"/>
      <point x="74.0" y="663.0" type="curve" smooth="yes"/>
      <point x="74.0" y="226.0"/>
      <point x="395.0" y="-49.0"/>
    </contour>
    <contour>
      <point x="775.0" y="258.0" type="curve" smooth="yes"/>
      <point x="891.0" y="258.0"/>
      <point x="972.0" y="306.0"/>
      <point x="1049.0" y="371.0" type="curve"/>
      <point x="973.0" y="477.0" type="line"/>
      <point x="917.0" y="430.0"/>
      <point x="860.0" y="395.0"/>
      <point x="781.0" y="395.0" type="curve" smooth="yes"/>
      <point x="647.0" y="395.0"/>
      <point x="559.0" y="497.0"/>
      <point x="559.0" y="663.0" type="curve" smooth="yes"/>
      <point x="559.0" y="807.0"/>
      <point x="647.0" y="915.0"/>
      <point x="789.0" y="915.0" type="curve" smooth="yes"/>
      <point x="854.0" y="915.0"/>
      <point x="902.0" y="886.0"/>
      <point x="953.0" y="836.0" type="curve"/>
      <point x="1040.0" y="934.0" type="line"/>
      <point x="974.0" y="999.0"/>
      <point x="897.0" y="1052.0"/>
      <point x="778.0" y="1052.0" type="curve" smooth="yes"/>
      <point x="577.0" y="1052.0"/>
      <point x="393.0" y="901.0"/>
      <point x="393.0" y="663.0" type="curve" smooth="yes"/>
      <point x="393.0" y="411.0"/>
      <point x="559.0" y="258.0"/>
    </contour>
    <contour>
      <point x="766.0" y="54.0" type="curve" smooth="yes"/>
      <point x="448.0" y="54.0"/>
      <point x="189.0" y="298.0"/>
      <point x="189.0" y="663.0" type="curve" smooth="yes"/>
      <point x="189.0" y="1027.0"/>
      <point x="448.0" y="1266.0"/>
      <point x="766.0" y="1266.0" type="curve" smooth="yes"/>
      <point x="1086.0" y="1266.0"/>
      <point x="1345.0" y="1027.0"/>
      <point x="1345.0" y="663.0" type="curve" smooth="yes"/>
      <point x="1345.0" y="298.0"/>
      <point x="1086.0" y="54.0"/>
    </contour>
  </outline>
</glyph>
<glyph name="registered" format="2">
  <advance width="897.0"/>
  <unicode hex="00AE"/>
  <outline>
    <contour>
      <point x="448.0" y="647.0" type="curve" smooth="yes"/>
      <point x="664.0" y="647.0"/>
      <point x="842.0" y="814.0"/>
      <point x="842.0" y="1055.0" type="curve" smooth="yes"/>
      <point x="842.0" y="1294.0"/>
      <point x="664.0" y="1462.0"/>
      <point x="448.0" y="1462.0" type="curve" smooth="yes"/>
      <point x="231.0" y="1462.0"/>
      <point x="54.0" y="1294.0"/>
      <point x="54.0" y="1055.0" type="curve" smooth="yes"/>
      <point x="54.0" y="814.0"/>
      <point x="231.0" y="647.0"/>
    </contour>
    <contour>
      <point x="448.0" y="732.0" type="curve" smooth="yes"/>
      <point x="276.0" y="732.0"/>
      <point x="148.0" y="861.0"/>
      <point x="148.0" y="1055.0" type="curve" smooth="yes"/>
      <point x="148.0" y="1246.0"/>
      <point x="276.0" y="1378.0"/>
      <point x="448.0" y="1378.0" type="curve" smooth="yes"/>
      <point x="620.0" y="1378.0"/>
      <point x="748.0" y="1246.0"/>
      <point x="748.0" y="1055.0" type="curve" smooth="yes"/>
      <point x="748.0" y="861.0"/>
      <point x="620.0" y="732.0"/>
    </contour>
    <contour>
      <point x="293.0" y="853.0" type="line"/>
      <point x="390.0" y="853.0" type="line"/>
      <point x="390.0" y="989.0" type="line"/>
      <point x="464.0" y="989.0" type="line"/>
      <point x="532.0" y="853.0" type="line"/>
      <point x="637.0" y="853.0" type="line"/>
      <point x="547.0" y="1019.0" type="line"/>
      <point x="593.0" y="1037.0"/>
      <point x="621.0" y="1082.0"/>
      <point x="621.0" y="1131.0" type="curve" smooth="yes"/>
      <point x="621.0" y="1226.0"/>
      <point x="548.0" y="1264.0"/>
      <point x="459.0" y="1264.0" type="curve"/>
      <point x="293.0" y="1264.0" type="line"/>
    </contour>
    <contour>
      <point x="390.0" y="1061.0" type="line"/>
      <point x="390.0" y="1187.0" type="line"/>
      <point x="442.0" y="1187.0" type="line" smooth="yes"/>
      <point x="495.0" y="1187.0"/>
      <point x="517.0" y="1162.0"/>
      <point x="517.0" y="1126.0" type="curve" smooth="yes"/>
      <point x="517.0" y="1085.0"/>
      <point x="489.0" y="1061.0"/>
      <point x="439.0" y="1061.0" type="curve"/>
    </contour>
  </outline>
</glyph>
<glyph name="degree" format="2">
  <advance width="705.0"/>
  <unicode hex="00B0"/>
  <outline>
    <contour>
      <point x="353.0" y="855.0" type="curve" smooth="yes"/>
      <point x="501.0" y="855.0"/>
      <point x="625.0" y="965.0"/>
      <point x="625.0" y="1128.0" type="curve" smooth="yes"/>
      <point x="625.0" y="1293.0"/>
      <point x="501.0" y="1404.0"/>
      <point x="353.0" y="1404.0" type="curve" smooth="yes"/>
      <point x="206.0" y="1404.0"/>
      <point x="82.0" y="1293.0"/>
      <point x="82.0" y="1128.0" type="curve" smooth="yes"/>
      <point x="82.0" y="965.0"/>
      <point x="206.0" y="855.0"/>
    </contour>
    <contour>
      <point x="353.0" y="967.0" type="curve" smooth="yes"/>
      <point x="267.0" y="967.0"/>
      <point x="206.0" y="1034.0"/>
      <point x="206.0" y="1128.0" type="curve" smooth="yes"/>
      <point x="206.0" y="1223.0"/>
      <point x="267.0" y="1290.0"/>
      <point x="353.0" y="1290.0" type="curve" smooth="yes"/>
      <point x="440.0" y="1290.0"/>
      <point x="501.0" y="1223.0"/>
      <point x="501.0" y="1128.0" type="curve" smooth="yes"/>
      <point x="501.0" y="1034.0"/>
      <point x="440.0" y="967.0"/>
    </contour>
  </outline>
</glyph>
<glyph name="three.sups" format="2">
  <advance width="759.0"/>
  <unicode hex="00B3"/>
  <outline>
    <contour>
      <point x="374.0" y="877.0" type="curve" smooth="yes"/>
      <point x="532.0" y="877.0"/>
      <point x="667.0" y="972.0"/>
      <point x="667.0" y="1119.0" type="curve" smooth="yes"/>
      <point x="667.0" y="1221.0"/>
      <point x="592.0" y="1288.0"/>
      <point x="505.0" y="1315.0" type="curve"/>
      <point x="584.0" y="1355.0"/>
      <point x="637.0" y="1416.0"/>
      <point x="637.0" y="1506.0" type="curve" smooth="yes"/>
      <point x="637.0" y="1643.0"/>
      <point x="514.0" y="1724.0"/>
      <point x="373.0" y="1724.0" type="curve" smooth="yes"/>
      <point x="257.0" y="1724.0"/>
      <point x="175.0" y="1676.0"/>
      <point x="98.0" y="1591.0" type="curve"/>
      <point x="195.0" y="1506.0" type="line"/>
      <point x="237.0" y="1557.0"/>
      <point x="289.0" y="1596.0"/>
      <point x="345.0" y="1596.0" type="curve" smooth="yes"/>
      <point x="423.0" y="1596.0"/>
      <point x="474.0" y="1552.0"/>
      <point x="474.0" y="1484.0" type="curve" smooth="yes"/>
      <point x="474.0" y="1408.0"/>
      <point x="400.0" y="1358.0"/>
      <point x="277.0" y="1358.0" type="curve"/>
      <point x="277.0" y="1258.0" type="line"/>
      <point x="423.0" y="1258.0"/>
      <point x="503.0" y="1214.0"/>
      <point x="503.0" y="1130.0" type="curve" smooth="yes"/>
      <point x="503.0" y="1050.0"/>
      <point x="439.0" y="1005.0"/>
      <point x="360.0" y="1005.0" type="curve" smooth="yes"/>
      <point x="284.0" y="1005.0"/>
      <point x="220.0" y="1045.0"/>
      <point x="171.0" y="1116.0" type="curve"/>
      <point x="66.0" y="1034.0" type="line"/>
      <point x="130.0" y="939.0"/>
      <point x="241.0" y="877.0"/>
    </contour>
  </outline>
</glyph>
<glyph name="mu" format="2">
  <advance width="1144.0"/>
  <unicode hex="00B5"/>
  <outline>
    <contour>
      <point x="155.0" y="-410.0" type="line"/>
      <point x="373.0" y="-410.0" type="line"/>
      <point x="373.0" y="-126.0" type="line"/>
      <point x="360.0" y="59.0" type="line"/>
      <point x="403.0" y="0.0"/>
      <point x="457.0" y="-13.0"/>
      <point x="525.0" y="-13.0" type="curve" smooth="yes"/>
      <point x="631.0" y="-13.0"/>
      <point x="720.0" y="47.0"/>
      <point x="788.0" y="150.0" type="curve"/>
      <point x="793.0" y="150.0" type="line"/>
      <point x="811.0" y="0.0" type="line"/>
      <point x="990.0" y="0.0" type="line"/>
      <point x="990.0" y="1003.0" type="line"/>
      <point x="772.0" y="1003.0" type="line"/>
      <point x="772.0" y="310.0" type="line"/>
      <point x="691.0" y="207.0"/>
      <point x="630.0" y="163.0"/>
      <point x="537.0" y="163.0" type="curve" smooth="yes"/>
      <point x="424.0" y="163.0"/>
      <point x="373.0" y="231.0"/>
      <point x="373.0" y="401.0" type="curve" smooth="yes"/>
      <point x="373.0" y="1003.0" type="line"/>
      <point x="155.0" y="1003.0" type="line"/>
    </contour>
  </outline>
</glyph>
<glyph name="one.sups" format="2">
  <advance width="759.0"/>
  <unicode hex="00B9"/>
  <outline>
    <contour>
      <point x="347.0" y="901.0" type="line"/>
      <point x="513.0" y="901.0" type="line"/>
      <point x="513.0" y="1700.0" type="line"/>
      <point x="380.0" y="1700.0" type="line"/>
      <point x="320.0" y="1657.0"/>
      <point x="267.0" y="1632.0"/>
      <point x="170.0" y="1616.0" type="curve"/>
      <point x="170.0" y="1511.0" type="line"/>
      <point x="347.0" y="1511.0" type="line"/>
    </contour>
  </outline>
</glyph>
<glyph name="Eth" format="2">
  <advance width="1313.0"/>
  <unicode hex="00D0"/>
  <anchor x="636.0" y="-200.0" name="btm"/>
  <anchor x="636.0" y="800.0" name="top"/>
  <outline>
    <contour>
      <point x="214.0" y="0.0" type="line"/>
      <point x="577.0" y="0.0" type="line" smooth="yes"/>
      <point x="977.0" y="0.0"/>
      <point x="1214.0" y="237.0"/>
      <point x="1214.0" y="676.0" type="curve" smooth="yes"/>
      <point x="1214.0" y="1115.0"/>
      <point x="977.0" y="1340.0"/>
      <point x="566.0" y="1340.0" type="curve"/>
      <point x="214.0" y="1340.0" type="line"/>
      <point x="214.0" y="757.0" type="line"/>
      <point x="58.0" y="748.0" type="line"/>
      <point x="58.0" y="641.0" type="line"/>
      <point x="214.0" y="641.0" type="line"/>
    </contour>
    <contour>
      <point x="434.0" y="179.0" type="line"/>
      <point x="434.0" y="641.0" type="line"/>
      <point x="725.0" y="641.0" type="line"/>
      <point x="725.0" y="757.0" type="line"/>
      <point x="434.0" y="757.0" type="line"/>
      <point x="434.0" y="1161.0" type="line"/>
      <point x="551.0" y="1161.0" type="line" smooth="yes"/>
      <point x="831.0" y="1161.0"/>
      <point x="987.0" y="1007.0"/>
      <point x="987.0" y="676.0" type="curve" smooth="yes"/>
      <point x="987.0" y="344.0"/>
      <point x="831.0" y="179.0"/>
      <point x="551.0" y="179.0" type="curve"/>
    </contour>
  </outline>
</glyph>
<glyph name="Thorn" format="2">
  <advance width="1223.0"/>
  <unicode hex="00DE"/>
  <anchor x="648.0" y="-200.0" name="btm"/>
  <anchor x="648.0" y="800.0" name="top"/>
  <outline>
    <contour>
      <point x="175.0" y="0.0" type="line"/>
      <point x="395.0" y="0.0" type="line"/>
      <point x="395.0" y="286.0" type="line"/>
      <point x="615.0" y="286.0" type="line" smooth="yes"/>
      <point x="906.0" y="286.0"/>
      <point x="1122.0" y="419.0"/>
      <point x="1122.0" y="716.0" type="curve" smooth="yes"/>
      <point x="1122.0" y="1021.0"/>
      <point x="910.0" y="1124.0"/>
      <point x="615.0" y="1124.0" type="curve" smooth="yes"/>
      <point x="395.0" y="1124.0" type="line"/>
      <point x="395.0" y="1340.0" type="line"/>
      <point x="175.0" y="1340.0" type="line"/>
    </contour>
    <contour>
      <point x="395.0" y="464.0" type="line"/>
      <point x="395.0" y="946.0" type="line"/>
      <point x="596.0" y="946.0" type="line" smooth="yes"/>
      <point x="800.0" y="946.0"/>
      <point x="904.0" y="888.0"/>
      <point x="904.0" y="716.0" type="curve" smooth="yes"/>
      <point x="904.0" y="543.0"/>
      <point x="804.0" y="464.0"/>
      <point x="596.0" y="464.0" type="curve"/>
    </contour>
  </outline>
</glyph>
<glyph name="germandbls" format="2">
  <advance width="1224.0"/>
  <unicode hex="00DF"/>
  <anchor x="660.0" y="-200.0" name="btm"/>
  <anchor x="660.0" y="800.0" name="top"/>
  <outline>
    <contour>
      <point x="819.0" y="-25.0" type="curve" smooth="yes"/>
      <point x="1039.0" y="-25.0"/>
      <point x="1165.0" y="115.0"/>
      <point x="1165.0" y="292.0" type="curve" smooth="yes"/>
      <point x="1165.0" y="618.0"/>
      <point x="779.0" y="586.0"/>
      <point x="779.0" y="761.0" type="curve" smooth="yes"/>
      <point x="779.0" y="888.0"/>
      <point x="955.0" y="954.0"/>
      <point x="955.0" y="1155.0" type="curve" smooth="yes"/>
      <point x="955.0" y="1322.0"/>
      <point x="828.0" y="1470.0"/>
      <point x="588.0" y="1470.0" type="curve" smooth="yes"/>
      <point x="304.0" y="1470.0"/>
      <point x="155.0" y="1292.0"/>
      <point x="155.0" y="1033.0" type="curve"/>
      <point x="155.0" y="0.0" type="line"/>
      <point x="372.0" y="0.0" type="line"/>
      <point x="372.0" y="1001.0" type="line" smooth="yes"/>
      <point x="372.0" y="1191.0"/>
      <point x="449.0" y="1294.0"/>
      <point x="586.0" y="1294.0" type="curve" smooth="yes"/>
      <point x="688.0" y="1294.0"/>
      <point x="742.0" y="1225.0"/>
      <point x="742.0" y="1131.0" type="curve" smooth="yes"/>
      <point x="742.0" y="968.0"/>
      <point x="575.0" y="909.0"/>
      <point x="575.0" y="734.0" type="curve" smooth="yes"/>
      <point x="575.0" y="455.0"/>
      <point x="963.0" y="487.0"/>
      <point x="963.0" y="280.0" type="curve" smooth="yes"/>
      <point x="963.0" y="205.0"/>
      <point x="909.0" y="141.0"/>
      <point x="812.0" y="141.0" type="curve" smooth="yes"/>
      <point x="740.0" y="141.0"/>
      <point x="675.0" y="168.0"/>
      <point x="604.0" y="224.0" type="curve"/>
      <point x="523.0" y="73.0" type="line"/>
      <point x="612.0" y="12.0"/>
      <point x="703.0" y="-25.0"/>
    </contour>
  </outline>
</glyph>
<glyph name="ae" format="2">
  <advance width="1609.0"/>
  <unicode hex="00E6"/>
  <anchor x="805.0" y="0.0" name="bottom"/>
  <anchor x="805.0" y="1003.0" name="top"/>
  <outline>
    <contour>
      <point x="406.0" y="-25.0" type="curve" smooth="yes"/>
      <point x="536.0" y="-25.0"/>
      <point x="668.0" y="32.0"/>
      <point x="806.0" y="151.0" type="curve"/>
      <point x="886.0" y="54.0"/>
      <point x="996.0" y="-25.0"/>
      <point x="1156.0" y="-25.0" type="curve" smooth="yes"/>
      <point x="1285.0" y="-25.0"/>
      <point x="1400.0" y="21.0"/>
      <point x="1493.0" y="83.0" type="curve"/>
      <point x="1417.0" y="229.0" type="line"/>
      <point x="1343.0" y="183.0"/>
      <point x="1273.0" y="150.0"/>
      <point x="1185.0" y="150.0" type="curve" smooth="yes"/>
      <point x="1033.0" y="150.0"/>
      <point x="914.0" y="261.0"/>
      <point x="901.0" y="443.0" type="curve"/>
      <point x="1523.0" y="443.0" type="line"/>
      <point x="1528.0" y="467.0"/>
      <point x="1532.0" y="506.0"/>
      <point x="1532.0" y="549.0" type="curve" smooth="yes"/>
      <point x="1532.0" y="831.0"/>
      <point x="1409.0" y="1028.0"/>
      <point x="1155.0" y="1028.0" type="curve" smooth="yes"/>
      <point x="1014.0" y="1028.0"/>
      <point x="906.0" y="956.0"/>
      <point x="825.0" y="839.0" type="curve"/>
      <point x="777.0" y="955.0"/>
      <point x="692.0" y="1028.0"/>
      <point x="542.0" y="1028.0" type="curve" smooth="yes"/>
      <point x="394.0" y="1028.0"/>
      <point x="256.0" y="974.0"/>
      <point x="150.0" y="908.0" type="curve"/>
      <point x="232.0" y="760.0" type="line"/>
      <point x="318.0" y="814.0"/>
      <point x="415.0" y="850.0"/>
      <point x="513.0" y="850.0" type="curve" smooth="yes"/>
      <point x="657.0" y="850.0"/>
      <point x="696.0" y="748.0"/>
      <point x="698.0" y="636.0" type="curve"/>
      <point x="290.0" y="603.0"/>
      <point x="110.0" y="483.0"/>
      <point x="110.0" y="267.0" type="curve" smooth="yes"/>
      <point x="110.0" y="92.0"/>
      <point x="232.0" y="-25.0"/>
    </contour>
    <contour>
      <point x="475.0" y="148.0" type="curve" smooth="yes"/>
      <point x="386.0" y="148.0"/>
      <point x="322.0" y="189.0"/>
      <point x="322.0" y="283.0" type="curve" smooth="yes"/>
      <point x="322.0" y="392.0"/>
      <point x="427.0" y="467.0"/>
      <point x="697.0" y="498.0" type="curve"/>
      <point x="698.0" y="454.0" type="line" smooth="yes"/>
      <point x="700.0" y="390.0"/>
      <point x="714.0" y="323.0"/>
      <point x="733.0" y="276.0" type="curve"/>
      <point x="657.0" y="195.0"/>
      <point x="558.0" y="148.0"/>
    </contour>
    <contour>
      <point x="901.0" y="582.0" type="line"/>
      <point x="918.0" y="757.0"/>
      <point x="1016.0" y="858.0"/>
      <point x="1149.0" y="858.0" type="curve" smooth="yes"/>
      <point x="1285.0" y="858.0"/>
      <point x="1342.0" y="756.0"/>
      <point x="1342.0" y="582.0" type="curve"/>
    </contour>
  </outline>
</glyph>
<glyph name="eth" format="2">
  <advance width="1128.0"/>
  <unicode hex="00F0"/>
  <anchor x="556.0" y="-200.0" name="btm"/>
  <anchor x="556.0" y="800.0" name="top"/>
  <outline>
    <contour>
      <point x="554.0" y="-25.0" type="curve" smooth="yes"/>
      <point x="833.0" y="-25.0"/>
      <point x="1012.0" y="205.0"/>
      <point x="1012.0" y="533.0" type="curve" smooth="yes"/>
      <point x="1012.0" y="850.0"/>
      <point x="898.0" y="1071.0"/>
      <point x="735.0" y="1236.0" type="curve"/>
      <point x="992.0" y="1367.0" type="line"/>
      <point x="932.0" y="1470.0" type="line"/>
      <point x="641.0" y="1321.0" type="line"/>
      <point x="552.0" y="1392.0"/>
      <point x="456.0" y="1451.0"/>
      <point x="358.0" y="1503.0" type="curve"/>
      <point x="260.0" y="1368.0" type="line"/>
      <point x="337.0" y="1326.0"/>
      <point x="407.0" y="1283.0"/>
      <point x="472.0" y="1235.0" type="curve"/>
      <point x="221.0" y="1107.0" type="line"/>
      <point x="281.0" y="1005.0" type="line"/>
      <point x="570.0" y="1153.0" type="line"/>
      <point x="665.0" y="1060.0"/>
      <point x="735.0" y="950.0"/>
      <point x="772.0" y="805.0" type="curve"/>
      <point x="707.0" y="885.0"/>
      <point x="615.0" y="921.0"/>
      <point x="519.0" y="921.0" type="curve" smooth="yes"/>
      <point x="291.0" y="921.0"/>
      <point x="100.0" y="743.0"/>
      <point x="100.0" y="460.0" type="curve" smooth="yes"/>
      <point x="100.0" y="161.0"/>
      <point x="314.0" y="-25.0"/>
    </contour>
    <contour>
      <point x="560.0" y="155.0" type="curve" smooth="yes"/>
      <point x="421.0" y="155.0"/>
      <point x="303.0" y="271.0"/>
      <point x="303.0" y="460.0" type="curve" smooth="yes"/>
      <point x="303.0" y="638.0"/>
      <point x="400.0" y="755.0"/>
      <point x="558.0" y="755.0" type="curve" smooth="yes"/>
      <point x="642.0" y="755.0"/>
      <point x="723.0" y="729.0"/>
      <point x="802.0" y="628.0" type="curve"/>
      <point x="804.0" y="595.0"/>
      <point x="805.0" y="560.0"/>
      <point x="805.0" y="523.0" type="curve" smooth="yes"/>
      <point x="805.0" y="295.0"/>
      <point x="718.0" y="155.0"/>
    </contour>
  </outline>
</glyph>
<glyph name="dcroat" format="2">
  <advance width="1151.0"/>
  <unicode hex="0111"/>
  <outline>
    <contour>
      <point x="503.0" y="-25.0" type="curve" smooth="yes"/>
      <point x="616.0" y="-25.0"/>
      <point x="716.0" y="32.0"/>
      <point x="790.0" y="104.0" type="curve"/>
      <point x="797.0" y="104.0" type="line"/>
      <point x="811.0" y="0.0" type="line"/>
      <point x="996.0" y="0.0" type="line"/>
      <point x="996.0" y="1158.0" type="line"/>
      <point x="1140.0" y="1169.0" type="line"/>
      <point x="1140.0" y="1274.0" type="line"/>
      <point x="996.0" y="1274.0" type="line"/>
      <point x="996.0" y="1450.0" type="line"/>
      <point x="776.0" y="1450.0" type="line"/>
      <point x="776.0" y="1274.0" type="line"/>
      <point x="516.0" y="1274.0" type="line"/>
      <point x="516.0" y="1158.0" type="line"/>
      <point x="776.0" y="1158.0" type="line"/>
      <point x="776.0" y="1040.0" type="line"/>
      <point x="786.0" y="875.0" type="line"/>
      <point x="705.0" y="944.0"/>
      <point x="632.0" y="987.0"/>
      <point x="518.0" y="987.0" type="curve" smooth="yes"/>
      <point x="296.0" y="987.0"/>
      <point x="90.0" y="791.0"/>
      <point x="90.0" y="480.0" type="curve" smooth="yes"/>
      <point x="90.0" y="159.0"/>
      <point x="253.0" y="-25.0"/>
    </contour>
    <contour>
      <point x="556.0" y="157.0" type="curve" smooth="yes"/>
      <point x="404.0" y="157.0"/>
      <point x="315.0" y="269.0"/>
      <point x="315.0" y="483.0" type="curve" smooth="yes"/>
      <point x="315.0" y="684.0"/>
      <point x="427.0" y="806.0"/>
      <point x="562.0" y="806.0" type="curve" smooth="yes"/>
      <point x="634.0" y="806.0"/>
      <point x="704.0" y="782.0"/>
      <point x="776.0" y="716.0" type="curve"/>
      <point x="776.0" y="277.0" type="line"/>
      <point x="707.0" y="194.0"/>
      <point x="638.0" y="157.0"/>
    </contour>
  </outline>
</glyph>
<glyph name="Hbar" format="2">
  <advance width="1420.0"/>
  <unicode hex="0126"/>
  <outline>
    <contour>
      <point x="208.0" y="0.0" type="line"/>
      <point x="428.0" y="0.0" type="line"/>
      <point x="428.0" y="604.0" type="line"/>
      <point x="990.0" y="604.0" type="line"/>
      <point x="990.0" y="0.0" type="line"/>
      <point x="1212.0" y="0.0" type="line"/>
      <point x="1212.0" y="1003.0" type="line"/>
      <point x="1362.0" y="1003.0" type="line"/>
      <point x="1362.0" y="1118.0" type="line"/>
      <point x="1212.0" y="1118.0" type="line"/>
      <point x="1212.0" y="1340.0" type="line"/>
      <point x="990.0" y="1340.0" type="line"/>
      <point x="990.0" y="1118.0" type="line"/>
      <point x="428.0" y="1118.0" type="line"/>
      <point x="428.0" y="1340.0" type="line"/>
      <point x="208.0" y="1340.0" type="line"/>
      <point x="208.0" y="1118.0" type="line"/>
      <point x="56.0" y="1118.0" type="line"/>
      <point x="56.0" y="1003.0" type="line"/>
      <point x="208.0" y="1003.0" type="line"/>
    </contour>
    <contour>
      <point x="428.0" y="796.0" type="line"/>
      <point x="428.0" y="1003.0" type="line"/>
      <point x="990.0" y="1003.0" type="line"/>
      <point x="990.0" y="796.0" type="line"/>
    </contour>
  </outline>
</glyph>
<glyph name="iogonek" format="2">
  <advance width="527.0"/>
  <unicode hex="012F"/>
  <outline>
    <contour>
      <point x="278.0" y="-425.0" type="curve" smooth="yes"/>
      <point x="334.0" y="-425.0"/>
      <point x="412.0" y="-399.0"/>
      <point x="456.0" y="-365.0" type="curve"/>
      <point x="406.0" y="-262.0" type="line"/>
      <point x="380.0" y="-276.0"/>
      <point x="356.0" y="-287.0"/>
      <point x="328.0" y="-287.0" type="curve" smooth="yes"/>
      <point x="279.0" y="-287.0"/>
      <point x="235.0" y="-259.0"/>
      <point x="235.0" y="-199.0" type="curve" smooth="yes"/>
      <point x="235.0" y="-127.0"/>
      <point x="281.0" y="-52.0"/>
      <point x="373.0" y="0.0" type="curve"/>
      <point x="373.0" y="1003.0" type="line"/>
      <point x="155.0" y="1003.0" type="line"/>
      <point x="155.0" y="0.0" type="line"/>
      <point x="212.0" y="0.0" type="line"/>
      <point x="157.0" y="-51.0"/>
      <point x="80.0" y="-132.0"/>
      <point x="80.0" y="-246.0" type="curve" smooth="yes"/>
      <point x="80.0" y="-364.0"/>
      <point x="168.0" y="-425.0"/>
    </contour>
    <contour>
      <point x="264.0" y="1187.0" type="curve" smooth="yes"/>
      <point x="341.0" y="1187.0"/>
      <point x="401.0" y="1240.0"/>
      <point x="401.0" y="1314.0" type="curve" smooth="yes"/>
      <point x="401.0" y="1390.0"/>
      <point x="341.0" y="1441.0"/>
      <point x="264.0" y="1441.0" type="curve" smooth="yes"/>
      <point x="184.0" y="1441.0"/>
      <point x="125.0" y="1390.0"/>
      <point x="125.0" y="1314.0" type="curve" smooth="yes"/>
      <point x="125.0" y="1240.0"/>
      <point x="184.0" y="1187.0"/>
    </contour>
  </outline>
</glyph>
<glyph name="kgreenlandic" format="2">
  <advance width="1055.0"/>
  <unicode hex="0138"/>
  <outline>
    <contour>
      <point x="155.0" y="0.0" type="line"/>
      <point x="373.0" y="0.0" type="line"/>
      <point x="373.0" y="250.0" type="line"/>
      <point x="533.0" y="440.0" type="line"/>
      <point x="801.0" y="0.0" type="line"/>
      <point x="1039.0" y="0.0" type="line"/>
      <point x="665.0" y="597.0" type="line"/>
      <point x="1001.0" y="1003.0" type="line"/>
      <point x="761.0" y="1003.0" type="line"/>
      <point x="379.0" y="520.0" type="line"/>
      <point x="373.0" y="520.0" type="line"/>
      <point x="373.0" y="1003.0" type="line"/>
      <point x="155.0" y="1003.0" type="line"/>
    </contour>
  </outline>
</glyph>
<glyph name="Lslash" format="2">
  <advance width="1022.0"/>
  <unicode hex="0141"/>
  <outline>
    <contour>
      <point x="179.0" y="0.0" type="line"/>
      <point x="963.0" y="0.0" type="line"/>
      <point x="963.0" y="187.0" type="line"/>
      <point x="400.0" y="187.0" type="line"/>
      <point x="400.0" y="568.0" type="line"/>
      <point x="774.0" y="769.0" type="line"/>
      <point x="774.0" y="944.0" type="line"/>
      <point x="400.0" y="742.0" type="line"/>
      <point x="400.0" y="1340.0" type="line"/>
      <point x="179.0" y="1340.0" type="line"/>
      <point x="179.0" y="634.0" type="line"/>
      <point x="20.0" y="550.0" type="line"/>
      <point x="20.0" y="376.0" type="line"/>
      <point x="179.0" y="460.0" type="line"/>
    </contour>
  </outline>
</glyph>
<glyph name="lslash" format="2">
  <advance width="569.0"/>
  <unicode hex="0142"/>
  <outline>
    <contour>
      <point x="383.0" y="-25.0" type="curve" smooth="yes"/>
      <point x="437.0" y="-25.0"/>
      <point x="473.0" y="-16.0"/>
      <point x="502.0" y="-5.0" type="curve"/>
      <point x="474.0" y="159.0" type="line"/>
      <point x="455.0" y="155.0"/>
      <point x="446.0" y="155.0"/>
      <point x="437.0" y="155.0" type="curve" smooth="yes"/>
      <point x="413.0" y="155.0"/>
      <point x="388.0" y="175.0"/>
      <point x="388.0" y="232.0" type="curve"/>
      <point x="388.0" y="747.0" type="line"/>
      <point x="527.0" y="834.0" type="line"/>
      <point x="527.0" y="1014.0" type="line"/>
      <point x="388.0" y="927.0" type="line"/>
      <point x="388.0" y="1450.0" type="line"/>
      <point x="168.0" y="1450.0" type="line"/>
      <point x="168.0" y="816.0" type="line"/>
      <point x="41.0" y="736.0" type="line"/>
      <point x="41.0" y="556.0" type="line"/>
      <point x="168.0" y="635.0" type="line"/>
      <point x="168.0" y="245.0" type="line" smooth="yes"/>
      <point x="168.0" y="76.0"/>
      <point x="227.0" y="-25.0"/>
    </contour>
  </outline>
</glyph>
<glyph name="OE" format="2">
  <advance width="1745.0"/>
  <unicode hex="0152"/>
  <anchor x="873.0" y="1340.0" name="top"/>
  <outline>
    <contour>
      <point x="755.0" y="0.0" type="curve" smooth="yes"/>
      <point x="1647.0" y="0.0" type="line"/>
      <point x="1647.0" y="187.0" type="line"/>
      <point x="1081.0" y="187.0" type="line"/>
      <point x="1081.0" y="606.0" type="line"/>
      <point x="1539.0" y="606.0" type="line"/>
      <point x="1539.0" y="791.0" type="line"/>
      <point x="1081.0" y="791.0" type="line"/>
      <point x="1081.0" y="1155.0" type="line"/>
      <point x="1627.0" y="1155.0" type="line"/>
      <point x="1627.0" y="1340.0" type="line"/>
      <point x="766.0" y="1340.0" type="line" smooth="yes"/>
      <point x="358.0" y="1340.0"/>
      <point x="97.0" y="1115.0"/>
      <point x="97.0" y="676.0" type="curve" smooth="yes"/>
      <point x="97.0" y="237.0"/>
      <point x="358.0" y="0.0"/>
    </contour>
    <contour>
      <point x="780.0" y="179.0" type="line" smooth="yes"/>
      <point x="491.0" y="179.0"/>
      <point x="324.0" y="341.0"/>
      <point x="324.0" y="676.0" type="curve" smooth="yes"/>
      <point x="324.0" y="1009.0"/>
      <point x="491.0" y="1161.0"/>
      <point x="780.0" y="1161.0" type="curve" smooth="yes"/>
      <point x="860.0" y="1161.0" type="line"/>
      <point x="860.0" y="179.0" type="line"/>
    </contour>
  </outline>
</glyph>
<glyph name="florin" format="2">
  <advance width="1042.0"/>
  <unicode hex="0192"/>
  <outline>
    <contour>
      <point x="206.0" y="-198.0" type="curve" smooth="yes"/>
      <point x="453.0" y="-198.0"/>
      <point x="534.0" y="-19.0"/>
      <point x="563.0" y="229.0" type="curve" smooth="yes"/>
      <point x="614.0" y="677.0" type="line"/>
      <point x="872.0" y="677.0" type="line"/>
      <point x="872.0" y="841.0" type="line"/>
      <point x="632.0" y="841.0" type="line"/>
      <point x="646.0" y="963.0" type="line" smooth="yes"/>
      <point x="660.0" y="1086.0"/>
      <point x="709.0" y="1189.0"/>
      <point x="820.0" y="1189.0" type="curve" smooth="yes"/>
      <point x="867.0" y="1189.0"/>
      <point x="900.0" y="1173.0"/>
      <point x="926.0" y="1162.0" type="curve"/>
      <point x="971.0" y="1328.0" type="line"/>
      <point x="931.0" y="1347.0"/>
      <point x="862.0" y="1365.0"/>
      <point x="805.0" y="1365.0" type="curve" smooth="yes"/>
      <point x="566.0" y="1365.0"/>
      <point x="465.0" y="1228.0"/>
      <point x="434.0" y="945.0" type="curve" smooth="yes"/>
      <point x="422.0" y="841.0" type="line"/>
      <point x="381.0" y="841.0" type="line"/>
      <point x="235.0" y="830.0" type="line"/>
      <point x="235.0" y="677.0" type="line"/>
      <point x="404.0" y="677.0" type="line"/>
      <point x="361.0" y="285.0" type="line" smooth="yes"/>
      <point x="337.0" y="67.0"/>
      <point x="294.0" y="-21.0"/>
      <point x="179.0" y="-23.0" type="curve"/>
      <point x="144.0" y="-22.0"/>
      <point x="112.0" y="-17.0"/>
      <point x="81.0" y="-4.0" type="curve"/>
      <point x="46.0" y="-167.0" type="line"/>
      <point x="78.0" y="-185.0"/>
      <point x="136.0" y="-198.0"/>
    </contour>
  </outline>
</glyph>
<glyph name="Ohorn" format="2">
  <advance width="1369.0"/>
  <unicode hex="01A0"/>
  <anchor x="685.0" y="0.0" name="bottom"/>
  <anchor x="689.0" y="-200.0" name="btm"/>
  <anchor x="685.0" y="1340.0" name="top"/>
  <outline>
    <contour>
      <point x="684.0" y="-25.0" type="curve" smooth="yes"/>
      <point x="1030.0" y="-25.0"/>
      <point x="1270.0" y="243.0"/>
      <point x="1270.0" y="676.0" type="curve" smooth="yes"/>
      <point x="1270.0" y="916.0"/>
      <point x="1195.0" y="1101.0"/>
      <point x="1070.0" y="1220.0" type="curve"/>
      <point x="1199.0" y="1253.0"/>
      <point x="1282.0" y="1324.0"/>
      <point x="1282.0" y="1447.0" type="curve" smooth="yes"/>
      <point x="1282.0" y="1504.0"/>
      <point x="1259.0" y="1555.0"/>
      <point x="1231.0" y="1592.0" type="curve"/>
      <point x="1077.0" y="1521.0" type="line"/>
      <point x="1094.0" y="1495.0"/>
      <point x="1107.0" y="1465.0"/>
      <point x="1107.0" y="1433.0" type="curve" smooth="yes"/>
      <point x="1107.0" y="1357.0"/>
      <point x="1058.0" y="1320.0"/>
      <point x="958.0" y="1300.0" type="curve"/>
      <point x="878.0" y="1343.0"/>
      <point x="786.0" y="1365.0"/>
      <point x="684.0" y="1365.0" type="curve" smooth="yes"/>
      <point x="339.0" y="1365.0"/>
      <point x="97.0" y="1109.0"/>
      <point x="97.0" y="676.0" type="curve" smooth="yes"/>
      <point x="97.0" y="243.0"/>
      <point x="339.0" y="-25.0"/>
    </contour>
    <contour>
      <point x="684.0" y="167.0" type="curve" smooth="yes"/>
      <point x="466.0" y="167.0"/>
      <point x="324.0" y="366.0"/>
      <point x="324.0" y="676.0" type="curve" smooth="yes"/>
      <point x="324.0" y="985.0"/>
      <point x="466.0" y="1174.0"/>
      <point x="684.0" y="1174.0" type="curve" smooth="yes"/>
      <point x="902.0" y="1174.0"/>
      <point x="1043.0" y="985.0"/>
      <point x="1043.0" y="676.0" type="curve" smooth="yes"/>
      <point x="1043.0" y="366.0"/>
      <point x="902.0" y="167.0"/>
    </contour>
  </outline>
</glyph>
<glyph name="Oogonek" format="2">
  <advance width="1369.0"/>
  <unicode hex="01EA"/>
  <outline>
    <contour>
      <point x="741.0" y="-443.0" type="curve" smooth="yes"/>
      <point x="801.0" y="-443.0"/>
      <point x="879.0" y="-415.0"/>
      <point x="923.0" y="-380.0" type="curve"/>
      <point x="869.0" y="-265.0" type="line"/>
      <point x="846.0" y="-282.0"/>
      <point x="820.0" y="-294.0"/>
      <point x="789.0" y="-294.0" type="curve" smooth="yes"/>
      <point x="744.0" y="-294.0"/>
      <point x="697.0" y="-266.0"/>
      <point x="697.0" y="-206.0" type="curve" smooth="yes"/>
      <point x="697.0" y="-141.0"/>
      <point x="744.0" y="-60.0"/>
      <point x="850.0" y="-12.0" type="curve" smooth="yes"/>
      <point x="1116.0" y="110.0"/>
      <point x="1270.0" y="306.0"/>
      <point x="1270.0" y="676.0" type="curve" smooth="yes"/>
      <point x="1270.0" y="1107.0"/>
      <point x="1030.0" y="1365.0"/>
      <point x="684.0" y="1365.0" type="curve" smooth="yes"/>
      <point x="339.0" y="1365.0"/>
      <point x="97.0" y="1109.0"/>
      <point x="97.0" y="676.0" type="curve" smooth="yes"/>
      <point x="97.0" y="260.0"/>
      <point x="314.0" y="-7.0"/>
      <point x="659.0" y="-22.0" type="curve"/>
      <point x="589.0" y="-79.0"/>
      <point x="530.0" y="-163.0"/>
      <point x="530.0" y="-259.0" type="curve" smooth="yes"/>
      <point x="530.0" y="-378.0"/>
      <point x="625.0" y="-443.0"/>
    </contour>
    <contour>
      <point x="684.0" y="167.0" type="curve" smooth="yes"/>
      <point x="466.0" y="167.0"/>
      <point x="324.0" y="366.0"/>
      <point x="324.0" y="676.0" type="curve" smooth="yes"/>
      <point x="324.0" y="985.0"/>
      <point x="466.0" y="1174.0"/>
      <point x="684.0" y="1174.0" type="curve" smooth="yes"/>
      <point x="902.0" y="1174.0"/>
      <point x="1043.0" y="985.0"/>
      <point x="1043.0" y="676.0" type="curve" smooth="yes"/>
      <point x="1043.0" y="366.0"/>
      <point x="902.0" y="167.0"/>
    </contour>
  </outline>
</glyph>
<glyph name="Bstroke" format="2">
  <advance width="1254.0"/>
  <unicode hex="0243"/>
  <outline>
    <contour>
      <point x="214.0" y="0.0" type="line"/>
      <point x="668.0" y="0.0" type="line" smooth="yes"/>
      <point x="964.0" y="0.0"/>
      <point x="1181.0" y="129.0"/>
      <point x="1181.0" y="404.0" type="curve" smooth="yes"/>
      <point x="1181.0" y="593.0"/>
      <point x="1072.0" y="701.0"/>
      <point x="878.0" y="734.0" type="curve"/>
      <point x="878.0" y="742.0" type="line"/>
      <point x="1036.0" y="782.0"/>
      <point x="1108.0" y="894.0"/>
      <point x="1108.0" y="1018.0" type="curve" smooth="yes"/>
      <point x="1108.0" y="1251.0"/>
      <point x="910.0" y="1340.0"/>
      <point x="636.0" y="1340.0" type="curve" smooth="yes"/>
      <point x="214.0" y="1340.0" type="line"/>
      <point x="214.0" y="476.0" type="line"/>
      <point x="58.0" y="467.0" type="line"/>
      <point x="58.0" y="360.0" type="line"/>
      <point x="214.0" y="360.0" type="line"/>
    </contour>
    <contour>
      <point x="434.0" y="162.0" type="line"/>
      <point x="434.0" y="360.0" type="line"/>
      <point x="725.0" y="360.0" type="line"/>
      <point x="725.0" y="476.0" type="line"/>
      <point x="434.0" y="476.0" type="line"/>
      <point x="434.0" y="654.0" type="line"/>
      <point x="644.0" y="654.0" type="line" smooth="yes"/>
      <point x="852.0" y="654.0"/>
      <point x="968.0" y="581.0"/>
      <point x="968.0" y="418.0" type="curve" smooth="yes"/>
      <point x="968.0" y="246.0"/>
      <point x="849.0" y="162.0"/>
      <point x="644.0" y="162.0" type="curve"/>
    </contour>
    <contour>
      <point x="434.0" y="791.0" type="line"/>
      <point x="434.0" y="1179.0" type="line"/>
      <point x="617.0" y="1179.0" type="line" smooth="yes"/>
      <point x="800.0" y="1179.0"/>
      <point x="896.0" y="1125.0"/>
      <point x="896.0" y="997.0" type="curve" smooth="yes"/>
      <point x="896.0" y="865.0"/>
      <point x="809.0" y="791.0"/>
      <point x="613.0" y="791.0" type="curve"/>
    </contour>
  </outline>
</glyph>
<glyph name="schwa" format="2">
  <advance width="1033.0"/>
  <unicode hex="0259"/>
  <outline>
    <contour>
      <point x="496.0" y="-25.0" type="curve" smooth="yes"/>
      <point x="742.0" y="-25.0"/>
      <point x="947.0" y="176.0"/>
      <point x="947.0" y="503.0" type="curve" smooth="yes"/>
      <point x="947.0" y="832.0"/>
      <point x="751.0" y="1028.0"/>
      <point x="494.0" y="1028.0" type="curve" smooth="yes"/>
      <point x="360.0" y="1028.0"/>
      <point x="238.0" y="983.0"/>
      <point x="139.0" y="917.0" type="curve"/>
      <point x="215.0" y="779.0" type="line"/>
      <point x="289.0" y="827.0"/>
      <point x="366.0" y="858.0"/>
      <point x="459.0" y="858.0" type="curve" smooth="yes"/>
      <point x="618.0" y="858.0"/>
      <point x="716.0" y="749.0"/>
      <point x="731.0" y="566.0" type="curve"/>
      <point x="85.0" y="566.0" type="line"/>
      <point x="81.0" y="541.0"/>
      <point x="75.0" y="503.0"/>
      <point x="75.0" y="460.0" type="curve" smooth="yes"/>
      <point x="75.0" y="169.0"/>
      <point x="230.0" y="-25.0"/>
    </contour>
    <contour>
      <point x="491.0" y="147.0" type="curve" smooth="yes"/>
      <point x="348.0" y="147.0"/>
      <point x="266.0" y="243.0"/>
      <point x="266.0" y="425.0" type="curve"/>
      <point x="734.0" y="425.0" type="line"/>
      <point x="714.0" y="241.0"/>
      <point x="624.0" y="147.0"/>
    </contour>
  </outline>
</glyph>
<glyph name="h.sups" format="2">
  <advance width="764.0"/>
  <unicode hex="02B0"/>
  <outline>
    <contour>
      <point x="98.0" y="532.0" type="line"/>
      <point x="258.0" y="532.0" type="line"/>
      <point x="258.0" y="995.0" type="line"/>
      <point x="315.0" y="1051.0"/>
      <point x="360.0" y="1079.0"/>
      <point x="409.0" y="1079.0" type="curve" smooth="yes"/>
      <point x="499.0" y="1079.0"/>
      <point x="517.0" y="1023.0"/>
      <point x="517.0" y="927.0" type="curve" smooth="yes"/>
      <point x="517.0" y="532.0" type="line"/>
      <point x="677.0" y="532.0" type="line"/>
      <point x="677.0" y="947.0" type="line" smooth="yes"/>
      <point x="677.0" y="1107.0"/>
      <point x="620.0" y="1214.0"/>
      <point x="467.0" y="1214.0" type="curve" smooth="yes"/>
      <point x="378.0" y="1214.0"/>
      <point x="302.0" y="1163.0"/>
      <point x="249.0" y="1108.0" type="curve"/>
      <point x="258.0" y="1240.0" type="line"/>
      <point x="258.0" y="1488.0" type="line"/>
      <point x="98.0" y="1488.0" type="line"/>
    </contour>
  </outline>
</glyph>
<glyph name="j.sups" format="2">
  <advance width="362.0"/>
  <unicode hex="02B2"/>
  <outline>
    <contour>
      <point x="50.0" y="243.0" type="curve" smooth="yes"/>
      <point x="207.0" y="243.0"/>
      <point x="263.0" y="348.0"/>
      <point x="263.0" y="494.0" type="curve" smooth="yes"/>
      <point x="263.0" y="1197.0" type="line"/>
      <point x="103.0" y="1197.0" type="line"/>
      <point x="103.0" y="486.0" type="line" smooth="yes"/>
      <point x="103.0" y="410.0"/>
      <point x="87.0" y="372.0"/>
      <point x="28.0" y="372.0" type="curve" smooth="yes"/>
      <point x="2.0" y="372.0"/>
      <point x="-13.0" y="376.0"/>
      <point x="-29.0" y="382.0" type="curve"/>
      <point x="-59.0" y="259.0" type="line"/>
      <point x="-29.0" y="250.0"/>
      <point x="-1.0" y="243.0"/>
    </contour>
    <contour>
      <point x="184.0" y="1311.0" type="curve" smooth="yes"/>
      <point x="241.0" y="1311.0"/>
      <point x="283.0" y="1349.0"/>
      <point x="283.0" y="1402.0" type="curve" smooth="yes"/>
      <point x="283.0" y="1454.0"/>
      <point x="241.0" y="1492.0"/>
      <point x="184.0" y="1492.0" type="curve" smooth="yes"/>
      <point x="126.0" y="1492.0"/>
      <point x="85.0" y="1454.0"/>
      <point x="85.0" y="1402.0" type="curve" smooth="yes"/>
      <point x="85.0" y="1349.0"/>
      <point x="126.0" y="1311.0"/>
    </contour>
  </outline>
</glyph>
<glyph name="r.sups" format="2">
  <advance width="517.0"/>
  <unicode hex="02B3"/>
  <outline>
    <contour>
      <point x="98.0" y="532.0" type="line"/>
      <point x="260.0" y="532.0" type="line"/>
      <point x="260.0" y="937.0" type="line"/>
      <point x="302.0" y="1036.0"/>
      <point x="365.0" y="1071.0"/>
      <point x="419.0" y="1071.0" type="curve" smooth="yes"/>
      <point x="444.0" y="1071.0"/>
      <point x="472.0" y="1064.0"/>
      <point x="488.0" y="1060.0" type="curve"/>
      <point x="518.0" y="1199.0" type="line"/>
      <point x="501.0" y="1208.0"/>
      <point x="473.0" y="1214.0"/>
      <point x="437.0" y="1214.0" type="curve" smooth="yes"/>
      <point x="367.0" y="1214.0"/>
      <point x="300.0" y="1168.0"/>
      <point x="248.0" y="1081.0" type="curve"/>
      <point x="242.0" y="1081.0" type="line"/>
      <point x="228.0" y="1197.0" type="line"/>
      <point x="98.0" y="1197.0" type="line"/>
    </contour>
  </outline>
</glyph>
<glyph name="w.sups" format="2">
  <advance width="1025.0"/>
  <unicode hex="02B7"/>
  <outline>
    <contour>
      <point x="210.0" y="532.0" type="line"/>
      <point x="396.0" y="532.0" type="line"/>
      <point x="473.0" y="839.0" type="line"/>
      <point x="512.0" y="1025.0" type="line"/>
      <point x="516.0" y="1025.0" type="line"/>
      <point x="555.0" y="839.0" type="line"/>
      <point x="632.0" y="532.0" type="line"/>
      <point x="821.0" y="532.0" type="line"/>
      <point x="993.0" y="1197.0" type="line"/>
      <point x="844.0" y="1197.0" type="line"/>
      <point x="767.0" y="855.0" type="line"/>
      <point x="728.0" y="661.0" type="line"/>
      <point x="720.0" y="661.0" type="line"/>
      <point x="677.0" y="855.0" type="line"/>
      <point x="583.0" y="1197.0" type="line"/>
      <point x="447.0" y="1197.0" type="line"/>
      <point x="358.0" y="855.0" type="line"/>
      <point x="316.0" y="661.0" type="line"/>
      <point x="309.0" y="661.0" type="line"/>
      <point x="273.0" y="855.0" type="line"/>
      <point x="195.0" y="1197.0" type="line"/>
      <point x="33.0" y="1197.0" type="line"/>
    </contour>
  </outline>
</glyph>
<glyph name="y.sups" format="2">
  <advance width="680.0"/>
  <unicode hex="02B8"/>
  <outline>
    <contour>
      <point x="147.0" y="266.0" type="curve" smooth="yes"/>
      <point x="296.0" y="266.0"/>
      <point x="369.0" y="358.0"/>
      <point x="425.0" y="510.0" type="curve"/>
      <point x="664.0" y="1197.0" type="line"/>
      <point x="509.0" y="1197.0" type="line"/>
      <point x="414.0" y="876.0" type="line" smooth="yes"/>
      <point x="395.0" y="813.0"/>
      <point x="376.0" y="752.0"/>
      <point x="359.0" y="686.0" type="curve"/>
      <point x="351.0" y="686.0" type="line"/>
      <point x="331.0" y="753.0"/>
      <point x="313.0" y="813.0"/>
      <point x="292.0" y="876.0" type="curve"/>
      <point x="177.0" y="1197.0" type="line"/>
      <point x="16.0" y="1197.0" type="line"/>
      <point x="283.0" y="544.0" type="line"/>
      <point x="270.0" y="507.0" type="line"/>
      <point x="249.0" y="441.0"/>
      <point x="205.0" y="392.0"/>
      <point x="136.0" y="392.0" type="curve" smooth="yes"/>
      <point x="120.0" y="392.0"/>
      <point x="107.0" y="394.0"/>
      <point x="87.0" y="403.0" type="curve"/>
      <point x="57.0" y="278.0" type="line"/>
      <point x="84.0" y="270.0"/>
      <point x="111.0" y="266.0"/>
    </contour>
  </outline>
</glyph>
<glyph name="ringhalfright" format="2">
  <advance width="262.0"/>
  <unicode hex="02BE"/>
  <outline>
    <contour>
      <point x="10.0" y="1115.0" type="line"/>
      <point x="169.0" y="1109.0"/>
      <point x="252.0" y="1190.0"/>
      <point x="252.0" y="1312.0" type="curve" smooth="yes"/>
      <point x="252.0" y="1433.0"/>
      <point x="169.0" y="1514.0"/>
      <point x="10.0" y="1508.0" type="curve"/>
      <point x="10.0" y="1421.0" type="line"/>
      <point x="102.0" y="1421.0"/>
      <point x="136.0" y="1376.0"/>
      <point x="136.0" y="1312.0" type="curve" smooth="yes"/>
      <point x="136.0" y="1247.0"/>
      <point x="102.0" y="1203.0"/>
      <point x="10.0" y="1203.0" type="curve"/>
    </contour>
  </outline>
</glyph>
<glyph name="caron" format="2">
  <advance width="1120.0"/>
  <unicode hex="02C7"/>
  <outline>
    <contour>
      <point x="471.0" y="1175.0" type="line"/>
      <point x="649.0" y="1175.0" type="line"/>
      <point x="844.0" y="1470.0" type="line"/>
      <point x="691.0" y="1470.0" type="line"/>
      <point x="564.0" y="1292.0" type="line"/>
      <point x="556.0" y="1292.0" type="line"/>
      <point x="430.0" y="1470.0" type="line"/>
      <point x="277.0" y="1470.0" type="line"/>
    </contour>
  </outline>
</glyph>
<glyph name="verticallinemod" format="2">
  <advance width="200.0"/>
  <unicode hex="02C8"/>
  <outline>
    <contour>
      <point x="22.0" y="1097.0" type="line"/>
      <point x="178.0" y="1097.0" type="line"/>
      <point x="190.0" y="1485.0" type="line"/>
      <point x="10.0" y="1485.0" type="line"/>
    </contour>
  </outline>
</glyph>
<glyph name="verticallinelowmod" format="2">
  <advance width="161.0"/>
  <unicode hex="02CC"/>
  <outline>
    <contour>
      <point x="10.0" y="-514.0" type="line"/>
      <point x="151.0" y="-514.0" type="line"/>
      <point x="139.0" y="-149.0" type="line"/>
      <point x="23.0" y="-149.0" type="line"/>
    </contour>
  </outline>
</glyph>
<glyph name="dotaccent" format="2">
  <advance width="1120.0"/>
  <unicode hex="02D9"/>
  <outline>
    <contour>
      <point x="560.0" y="1187.0" type="curve" smooth="yes"/>
      <point x="636.0" y="1187.0"/>
      <point x="692.0" y="1240.0"/>
      <point x="692.0" y="1316.0" type="curve" smooth="yes"/>
      <point x="692.0" y="1390.0"/>
      <point x="636.0" y="1444.0"/>
      <point x="560.0" y="1444.0" type="curve" smooth="yes"/>
      <point x="484.0" y="1444.0"/>
      <point x="428.0" y="1390.0"/>
      <point x="428.0" y="1316.0" type="curve" smooth="yes"/>
      <point x="428.0" y="1240.0"/>
      <point x="484.0" y="1187.0"/>
    </contour>
  </outline>
</glyph>
<glyph name="ogonek" format="2">
  <advance width="1120.0"/>
  <unicode hex="02DB"/>
  <outline>
    <contour>
      <point x="606.0" y="-425.0" type="curve" smooth="yes"/>
      <point x="663.0" y="-425.0"/>
      <point x="741.0" y="-399.0"/>
      <point x="785.0" y="-365.0" type="curve"/>
      <point x="735.0" y="-262.0" type="line"/>
      <point x="712.0" y="-276.0"/>
      <point x="685.0" y="-287.0"/>
      <point x="655.0" y="-287.0" type="curve" smooth="yes"/>
      <point x="608.0" y="-287.0"/>
      <point x="564.0" y="-260.0"/>
      <point x="564.0" y="-199.0" type="curve" smooth="yes"/>
      <point x="564.0" y="-127.0"/>
      <point x="609.0" y="-57.0"/>
      <point x="692.0" y="5.0" type="curve"/>
      <point x="554.0" y="5.0" type="line"/>
      <point x="492.0" y="-40.0"/>
      <point x="409.0" y="-132.0"/>
      <point x="409.0" y="-246.0" type="curve" smooth="yes"/>
      <point x="409.0" y="-364.0"/>
      <point x="496.0" y="-425.0"/>
    </contour>
  </outline>
</glyph>
<glyph name="hungarumlaut" format="2">
  <advance width="1120.0"/>
  <unicode hex="02DD"/>
  <outline>
    <contour>
      <point x="338.0" y="1171.0" type="line"/>
      <point x="478.0" y="1171.0" type="line"/>
      <point x="664.0" y="1470.0" type="line"/>
      <point x="482.0" y="1470.0" type="line"/>
    </contour>
    <contour>
      <point x="658.0" y="1171.0" type="line"/>
      <point x="798.0" y="1171.0" type="line"/>
      <point x="983.0" y="1470.0" type="line"/>
      <point x="802.0" y="1470.0" type="line"/>
    </contour>
  </outline>
</glyph>
<glyph name="s.sups" format="2">
  <advance width="591.0"/>
  <unicode hex="02E2"/>
  <outline>
    <contour>
      <point x="294.0" y="516.0" type="curve" smooth="yes"/>
      <point x="456.0" y="516.0"/>
      <point x="553.0" y="605.0"/>
      <point x="553.0" y="726.0" type="curve" smooth="yes"/>
      <point x="553.0" y="848.0"/>
      <point x="451.0" y="890.0"/>
      <point x="361.0" y="924.0" type="curve" smooth="yes"/>
      <point x="288.0" y="951.0"/>
      <point x="219.0" y="970.0"/>
      <point x="219.0" y="1023.0" type="curve" smooth="yes"/>
      <point x="219.0" y="1061.0"/>
      <point x="250.0" y="1094.0"/>
      <point x="314.0" y="1094.0" type="curve" smooth="yes"/>
      <point x="370.0" y="1094.0"/>
      <point x="414.0" y="1071.0"/>
      <point x="463.0" y="1037.0" type="curve"/>
      <point x="537.0" y="1135.0" type="line"/>
      <point x="481.0" y="1177.0"/>
      <point x="409.0" y="1214.0"/>
      <point x="309.0" y="1214.0" type="curve" smooth="yes"/>
      <point x="161.0" y="1214.0"/>
      <point x="69.0" y="1126.0"/>
      <point x="69.0" y="1016.0" type="curve" smooth="yes"/>
      <point x="69.0" y="902.0"/>
      <point x="168.0" y="852.0"/>
      <point x="258.0" y="818.0" type="curve"/>
      <point x="331.0" y="789.0"/>
      <point x="402.0" y="768.0"/>
      <point x="402.0" y="714.0" type="curve" smooth="yes"/>
      <point x="402.0" y="668.0"/>
      <point x="365.0" y="635.0"/>
      <point x="298.0" y="635.0" type="curve" smooth="yes"/>
      <point x="232.0" y="635.0"/>
      <point x="170.0" y="664.0"/>
      <point x="109.0" y="709.0" type="curve"/>
      <point x="36.0" y="606.0" type="line"/>
      <point x="103.0" y="554.0"/>
      <point x="199.0" y="516.0"/>
    </contour>
  </outline>
</glyph>
<glyph name="x.sups" format="2">
  <advance width="661.0"/>
  <unicode hex="02E3"/>
  <outline>
    <contour>
      <point x="16.0" y="532.0" type="line"/>
      <point x="185.0" y="532.0" type="line"/>
      <point x="255.0" y="660.0" type="line"/>
      <point x="316.0" y="769.0" type="line"/>
      <point x="324.0" y="769.0" type="line"/>
      <point x="394.0" y="660.0" type="line"/>
      <point x="471.0" y="532.0" type="line"/>
      <point x="643.0" y="532.0" type="line"/>
      <point x="430.0" y="862.0" type="line"/>
      <point x="630.0" y="1197.0" type="line"/>
      <point x="463.0" y="1197.0" type="line"/>
      <point x="398.0" y="1074.0" type="line"/>
      <point x="349.0" y="968.0" type="line"/>
      <point x="341.0" y="968.0" type="line"/>
      <point x="279.0" y="1074.0" type="line"/>
      <point x="206.0" y="1197.0" type="line"/>
      <point x="33.0" y="1197.0" type="line"/>
      <point x="235.0" y="879.0" type="line"/>
    </contour>
  </outline>
</glyph>
<glyph name="acutecomb" format="2">
  <unicode hex="0301"/>
  <anchor x="122.0" y="1003.0" name="_top"/>
  <anchor x="198.0" y="1367.0" name="top"/>
  <outline>
    <contour>
      <point x="10.0" y="1175.0" type="line"/>
      <point x="173.0" y="1175.0" type="line"/>
      <point x="413.0" y="1470.0" type="line"/>
      <point x="193.0" y="1470.0" type="line"/>
    </contour>
  </outline>
</glyph>
<glyph name="tildecomb" format="2">
  <unicode hex="0303"/>
  <anchor x="316.0" y="1003.0" name="_top"/>
  <anchor x="316.0" y="1422.0" name="top"/>
  <outline>
    <contour>
      <point x="10.0" y="1183.0" type="curve"/>
      <point x="128.0" y="1183.0" type="line"/>
      <point x="141.0" y="1251.0"/>
      <point x="162.0" y="1282.0"/>
      <point x="201.0" y="1282.0" type="curve" smooth="yes"/>
      <point x="268.0" y="1282.0"/>
      <point x="332.0" y="1183.0"/>
      <point x="438.0" y="1183.0" type="curve" smooth="yes"/>
      <point x="541.0" y="1183.0"/>
      <point x="607.0" y="1276.0"/>
      <point x="622.0" y="1422.0" type="curve"/>
      <point x="504.0" y="1422.0" type="line"/>
      <point x="491.0" y="1354.0"/>
      <point x="470.0" y="1323.0"/>
      <point x="431.0" y="1323.0" type="curve" smooth="yes"/>
      <point x="367.0" y="1323.0"/>
      <point x="300.0" y="1422.0"/>
      <point x="194.0" y="1422.0" type="curve" smooth="yes"/>
      <point x="91.0" y="1422.0"/>
      <point x="25.0" y="1330.0"/>
    </contour>
  </outline>
</glyph>
<glyph name="hookabovecomb" format="2">
  <unicode hex="0309"/>
  <anchor x="175.0" y="1003.0" name="_top"/>
  <anchor x="175.0" y="1508.0" name="top"/>
  <outline>
    <contour>
      <point x="91.0" y="1136.0" type="line"/>
      <point x="223.0" y="1152.0"/>
      <point x="340.0" y="1207.0"/>
      <point x="340.0" y="1334.0" type="curve" smooth="yes"/>
      <point x="340.0" y="1440.0"/>
      <point x="241.0" y="1502.0"/>
      <point x="34.0" y="1508.0" type="curve"/>
      <point x="10.0" y="1390.0" type="line"/>
      <point x="124.0" y="1384.0"/>
      <point x="177.0" y="1359.0"/>
      <point x="177.0" y="1311.0" type="curve" smooth="yes"/>
      <point x="177.0" y="1264.0"/>
      <point x="131.0" y="1244.0"/>
      <point x="71.0" y="1229.0" type="curve"/>
    </contour>
  </outline>
</glyph>
<glyph name="dblgravecomb" format="2">
  <unicode hex="030F"/>
  <anchor x="333.0" y="1003.0" name="_top"/>
  <anchor x="333.0" y="1470.0" name="top"/>
  <outline>
    <contour>
      <point x="196.0" y="1171.0" type="line"/>
      <point x="337.0" y="1171.0" type="line"/>
      <point x="193.0" y="1470.0" type="line"/>
      <point x="10.0" y="1470.0" type="line"/>
    </contour>
    <contour>
      <point x="516.0" y="1171.0" type="line"/>
      <point x="656.0" y="1171.0" type="line"/>
      <point x="514.0" y="1470.0" type="line"/>
      <point x="330.0" y="1470.0" type="line"/>
    </contour>
  </outline>
</glyph>
<glyph name="commaabovecomb" format="2">
  <unicode hex="0313"/>
  <anchor x="119.0" y="1003.0" name="_top"/>
  <anchor x="119.0" y="1513.0" name="top"/>
  <outline>
    <contour>
      <point x="49.0" y="1112.0" type="line"/>
      <point x="174.0" y="1165.0"/>
      <point x="228.0" y="1258.0"/>
      <point x="228.0" y="1361.0" type="curve" smooth="yes"/>
      <point x="228.0" y="1460.0"/>
      <point x="188.0" y="1513.0"/>
      <point x="113.0" y="1513.0" type="curve" smooth="yes"/>
      <point x="63.0" y="1513.0"/>
      <point x="20.0" y="1477.0"/>
      <point x="20.0" y="1413.0" type="curve" smooth="yes"/>
      <point x="20.0" y="1355.0"/>
      <point x="66.0" y="1323.0"/>
      <point x="113.0" y="1323.0" type="curve" smooth="yes"/>
      <point x="119.0" y="1323.0"/>
      <point x="125.0" y="1323.0"/>
      <point x="130.0" y="1325.0" type="curve"/>
      <point x="124.0" y="1267.0"/>
      <point x="86.0" y="1222.0"/>
      <point x="10.0" y="1188.0" type="curve"/>
    </contour>
  </outline>
</glyph>
<glyph name="cedillacomb" format="2">
  <unicode hex="0327"/>
  <anchor x="180.0" y="0.0" name="_bottom"/>
  <anchor x="180.0" y="-442.0" name="bottom"/>
  <outline>
    <contour>
      <point x="29.0" y="-442.0" type="line"/>
      <point x="199.0" y="-430.0"/>
      <point x="350.0" y="-372.0"/>
      <point x="350.0" y="-245.0" type="curve" smooth="yes"/>
      <point x="350.0" y="-161.0"/>
      <point x="298.0" y="-120.0"/>
      <point x="230.0" y="-97.0" type="curve"/>
      <point x="278.0" y="7.0" type="line"/>
      <point x="143.0" y="7.0" type="line"/>
      <point x="61.0" y="-155.0" type="line"/>
      <point x="147.0" y="-176.0"/>
      <point x="187.0" y="-203.0"/>
      <point x="187.0" y="-249.0" type="curve" smooth="yes"/>
      <point x="187.0" y="-304.0"/>
      <point x="114.0" y="-332.0"/>
      <point x="10.0" y="-344.0" type="curve"/>
    </contour>
  </outline>
</glyph>
<glyph name="ogonekcomb" format="2">
  <unicode hex="0328"/>
  <anchor x="386.0" y="5.0" name="_ogonek"/>
  <outline>
    <contour>
      <point x="207.0" y="-425.0" type="curve" smooth="yes"/>
      <point x="263.0" y="-425.0"/>
      <point x="342.0" y="-399.0"/>
      <point x="386.0" y="-365.0" type="curve"/>
      <point x="334.0" y="-262.0" type="line"/>
      <point x="313.0" y="-276.0"/>
      <point x="286.0" y="-287.0"/>
      <point x="256.0" y="-287.0" type="curve" smooth="yes"/>
      <point x="209.0" y="-287.0"/>
      <point x="165.0" y="-260.0"/>
      <point x="165.0" y="-199.0" type="curve" smooth="yes"/>
      <point x="165.0" y="-127.0"/>
      <point x="210.0" y="-57.0"/>
      <point x="293.0" y="5.0" type="curve"/>
      <point x="155.0" y="5.0" type="line"/>
      <point x="93.0" y="-40.0"/>
      <point x="10.0" y="-132.0"/>
      <point x="10.0" y="-246.0" type="curve" smooth="yes"/>
      <point x="10.0" y="-364.0"/>
      <point x="98.0" y="-425.0"/>
    </contour>
  </outline>
</glyph>
<glyph name="candraBindu-deva" format="2">
  <unicode hex="0901"/>
  <anchor x="272.0" y="1287.0" name="_candra"/>
  <anchor x="272.0" y="1287.0" name="_top"/>
  <anchor x="269.0" y="1988.0" name="top"/>
  <outline>
    <contour>
      <point x="269.0" y="1536.0" type="curve" smooth="yes"/>
      <point x="421.0" y="1536.0"/>
      <point x="525.0" y="1614.0"/>
      <point x="590.0" y="1755.0" type="curve"/>
      <point x="471.0" y="1820.0" type="line"/>
      <point x="434.0" y="1761.0"/>
      <point x="387.0" y="1695.0"/>
      <point x="277.0" y="1695.0" type="curve" smooth="yes"/>
      <point x="176.0" y="1695.0"/>
      <point x="117.0" y="1750.0"/>
      <point x="78.0" y="1816.0" type="curve"/>
      <point x="-47.0" y="1745.0" type="line"/>
      <point x="-3.0" y="1637.0"/>
      <point x="99.0" y="1536.0"/>
    </contour>
    <contour>
      <point x="269.0" y="1785.0" type="curve" smooth="yes"/>
      <point x="342.0" y="1785.0"/>
      <point x="372.0" y="1814.0"/>
      <point x="372.0" y="1884.0" type="curve" smooth="yes"/>
      <point x="372.0" y="1955.0"/>
      <point x="342.0" y="1985.0"/>
      <point x="269.0" y="1985.0" type="curve" smooth="yes"/>
      <point x="196.0" y="1985.0"/>
      <point x="166.0" y="1955.0"/>
      <point x="166.0" y="1884.0" type="curve" smooth="yes"/>
      <point x="166.0" y="1814.0"/>
      <point x="196.0" y="1785.0"/>
    </contour>
  </outline>
</glyph>
<glyph name="visarga-deva" format="2">
  <advance width="545.0"/>
  <unicode hex="0903"/>
  <outline>
    <contour>
      <point x="274.0" y="654.0" type="curve" smooth="yes"/>
      <point x="353.0" y="654.0"/>
      <point x="388.0" y="688.0"/>
      <point x="388.0" y="766.0" type="curve" smooth="yes"/>
      <point x="388.0" y="846.0"/>
      <point x="353.0" y="880.0"/>
      <point x="274.0" y="880.0" type="curve" smooth="yes"/>
      <point x="194.0" y="880.0"/>
      <point x="159.0" y="846.0"/>
      <point x="159.0" y="766.0" type="curve" smooth="yes"/>
      <point x="159.0" y="688.0"/>
      <point x="194.0" y="654.0"/>
    </contour>
    <contour>
      <point x="274.0" y="98.0" type="curve" smooth="yes"/>
      <point x="353.0" y="98.0"/>
      <point x="388.0" y="131.0"/>
      <point x="388.0" y="210.0" type="curve" smooth="yes"/>
      <point x="388.0" y="290.0"/>
      <point x="353.0" y="324.0"/>
      <point x="274.0" y="324.0" type="curve" smooth="yes"/>
      <point x="194.0" y="324.0"/>
      <point x="159.0" y="290.0"/>
      <point x="159.0" y="210.0" type="curve" smooth="yes"/>
      <point x="159.0" y="131.0"/>
      <point x="194.0" y="98.0"/>
    </contour>
  </outline>
</glyph>
<glyph name="uu-deva" format="2">
  <advance width="1365.0"/>
  <unicode hex="090A"/>
  <anchor x="761.0" y="27.0" name="bottom"/>
  <anchor x="754.0" y="1287.0" name="candra"/>
  <anchor x="564.0" y="1167.0" name="top"/>
  <outline>
    <contour>
      <point x="1131.0" y="20.0" type="line"/>
      <point x="1248.0" y="125.0"/>
      <point x="1312.0" y="264.0"/>
      <point x="1312.0" y="400.0" type="curve" smooth="yes"/>
      <point x="1312.0" y="625.0"/>
      <point x="1168.0" y="719.0"/>
      <point x="1027.0" y="719.0" type="curve" smooth="yes"/>
      <point x="905.0" y="719.0"/>
      <point x="808.0" y="671.0"/>
      <point x="713.0" y="543.0" type="curve"/>
      <point x="735.0" y="235.0" type="line"/>
      <point x="861.0" y="493.0"/>
      <point x="939.0" y="540.0"/>
      <point x="1011.0" y="540.0" type="curve" smooth="yes"/>
      <point x="1088.0" y="540.0"/>
      <point x="1123.0" y="498.0"/>
      <point x="1123.0" y="414.0" type="curve" smooth="yes"/>
      <point x="1123.0" y="314.0"/>
      <point x="1069.0" y="230.0"/>
      <point x="992.0" y="136.0" type="curve"/>
    </contour>
    <contour>
      <point x="530.0" y="1104.0" type="line"/>
      <point x="1384.0" y="1104.0" type="line"/>
      <point x="1384.0" y="1287.0" type="line"/>
      <point x="530.0" y="1287.0" type="line"/>
    </contour>
    <component base="u-deva"/>
  </outline>
</glyph>
<glyph name="rVocalic-deva" format="2">
  <advance width="1520.0"/>
  <unicode hex="090B"/>
  <anchor x="761.0" y="0.0" name="bottom"/>
  <anchor x="761.0" y="1287.0" name="candra"/>
  <anchor x="761.0" y="1167.0" name="top"/>
  <outline>
    <contour>
      <point x="230.0" y="67.0" type="line"/>
      <point x="726.0" y="467.0" type="line"/>
      <point x="730.091" y="595.0" type="line"/>
      <point x="489.0" y="912.0"/>
      <point x="384.0" y="937.0"/>
      <point x="273.0" y="938.0" type="curve" smooth="yes"/>
      <point x="175.0" y="939.0"/>
      <point x="101.0" y="902.0"/>
      <point x="36.0" y="861.0" type="curve"/>
      <point x="118.0" y="681.0" type="line"/>
      <point x="200.0" y="722.0"/>
      <point x="254.0" y="741.0"/>
      <point x="303.0" y="741.0" type="curve" smooth="yes"/>
      <point x="383.0" y="740.0"/>
      <point x="455.0" y="683.0"/>
      <point x="607.0" y="523.0" type="curve"/>
      <point x="608.0" y="587.0" type="line"/>
      <point x="104.0" y="217.909" type="line"/>
    </contour>
    <contour>
      <point x="656.0" y="0.0" type="line"/>
      <point x="866.0" y="0.0" type="line"/>
      <point x="866.0" y="1151.0" type="line"/>
      <point x="656.0" y="1151.0" type="line"/>
    </contour>
    <contour>
      <point x="1143.0" y="25.0" type="line"/>
      <point x="1319.0" y="100.0"/>
      <point x="1399.0" y="221.0"/>
      <point x="1399.0" y="367.0" type="curve" smooth="yes"/>
      <point x="1399.0" y="518.0"/>
      <point x="1297.0" y="664.0"/>
      <point x="1130.0" y="832.0" type="curve"/>
      <point x="1053.0" y="749.0" type="line"/>
      <point x="1130.0" y="619.0"/>
      <point x="1199.0" y="504.909"/>
      <point x="1199.0" y="396.0" type="curve" smooth="yes"/>
      <point x="1199.0" y="298.0"/>
      <point x="1149.0" y="239.0"/>
      <point x="1035.0" y="179.0" type="curve"/>
    </contour>
    <contour>
      <point x="804.0" y="519.0" type="line"/>
      <point x="1011.0" y="508.091"/>
      <point x="1112.0" y="603.0"/>
      <point x="1209.0" y="669.0" type="curve" smooth="yes"/>
      <point x="1275.0" y="735.0"/>
      <point x="1289.0" y="790.0"/>
      <point x="1289.0" y="825.0" type="curve" smooth="yes"/>
      <point x="1289.0" y="902.0"/>
      <point x="1203.0" y="955.0"/>
      <point x="1075.0" y="983.0" type="curve"/>
      <point x="970.0" y="889.0" type="line"/>
      <point x="1076.0" y="706.0" type="line"/>
      <point x="1080.0" y="806.0" type="line"/>
      <point x="997.0" y="721.0"/>
      <point x="875.0" y="669.0"/>
      <point x="725.0" y="710.0" type="curve"/>
    </contour>
    <contour>
      <point x="-19.0" y="1104.0" type="line"/>
      <point x="1529.0" y="1104.0" type="line"/>
      <point x="1529.0" y="1287.0" type="line"/>
      <point x="-19.0" y="1287.0" type="line"/>
    </contour>
  </outline>
</glyph>
<glyph name="ka-deva" format="2">
  <advance width="1530.0"/>
  <unicode hex="0915"/>
  <anchor x="795.0" y="0.0" name="bottom"/>
  <anchor x="792.0" y="1287.0" name="candra"/>
  <anchor x="176.0" y="-30.0" name="nukta"/>
  <anchor x="794.0" y="1287.0" name="top"/>
  <outline>
    <contour>
      <point x="408.0" y="196.0" type="curve" smooth="yes"/>
      <point x="557.0" y="196.0"/>
      <point x="711.0" y="264.0"/>
      <point x="788.0" y="391.0" type="curve"/>
      <point x="728.909" y="534.909" type="line"/>
      <point x="656.0" y="440.0"/>
      <point x="552.0" y="374.909"/>
      <point x="427.0" y="375.0" type="curve" smooth="yes"/>
      <point x="320.0" y="375.0"/>
      <point x="266.0" y="415.0"/>
      <point x="266.0" y="553.0" type="curve" smooth="yes"/>
      <point x="266.0" y="704.0"/>
      <point x="347.0" y="747.0"/>
      <point x="466.0" y="751.0" type="curve" smooth="yes"/>
      <point x="549.0" y="753.0"/>
      <point x="663.0" y="737.0"/>
      <point x="788.0" y="675.0" type="curve"/>
      <point x="788.0" y="789.0" type="line"/>
      <point x="720.0" y="877.0"/>
      <point x="595.0" y="941.0"/>
      <point x="427.0" y="941.0" type="curve" smooth="yes"/>
      <point x="198.0" y="941.0"/>
      <point x="55.0" y="820.0"/>
      <point x="55.0" y="564.0" type="curve" smooth="yes"/>
      <point x="55.0" y="399.0"/>
      <point x="134.0" y="196.0"/>
    </contour>
    <contour>
      <point x="690.0" y="0.0" type="line"/>
      <point x="900.0" y="0.0" type="line"/>
      <point x="900.0" y="1185.0" type="line"/>
      <point x="690.0" y="1185.0" type="line"/>
    </contour>
    <contour>
      <point x="1299.0" y="125.0" type="line"/>
      <point x="1410.0" y="244.0"/>
      <point x="1476.0" y="391.0"/>
      <point x="1476.0" y="548.0" type="curve" smooth="yes"/>
      <point x="1476.0" y="751.0"/>
      <point x="1367.0" y="887.0"/>
      <point x="1174.0" y="887.0" type="curve" smooth="yes"/>
      <point x="1036.0" y="887.0"/>
      <point x="933.0" y="831.0"/>
      <point x="830.0" y="708.0" type="curve"/>
      <point x="830.0" y="404.0" type="line"/>
      <point x="994.0" y="634.0"/>
      <point x="1097.0" y="701.0"/>
      <point x="1165.0" y="701.0" type="curve" smooth="yes"/>
      <point x="1242.0" y="701.0"/>
      <point x="1286.0" y="658.0"/>
      <point x="1286.0" y="569.0" type="curve" smooth="yes"/>
      <point x="1286.0" y="463.0"/>
      <point x="1230.0" y="360.0"/>
      <point x="1146.0" y="242.0" type="curve"/>
    </contour>
    <contour>
      <point x="-19.0" y="1104.0" type="line"/>
      <point x="1549.0" y="1104.0" type="line"/>
      <point x="1549.0" y="1287.0" type="line"/>
      <point x="-19.0" y="1287.0" type="line"/>
    </contour>
  </outline>
</glyph>
<glyph name="ga-deva" format="2">
  <advance width="1147.0"/>
  <unicode hex="0917"/>
  <anchor x="865.0" y="0.0" name="bottom"/>
  <anchor x="763.0" y="1287.0" name="candra"/>
  <anchor x="320.0" y="92.0" name="nukta"/>
  <anchor x="865.0" y="1287.0" name="top"/>
  <outline>
    <contour>
      <point x="760.0" y="1.0" type="line"/>
      <point x="970.0" y="1.0" type="line"/>
      <point x="970.0" y="1238.0" type="line"/>
      <point x="760.0" y="1238.0" type="line"/>
    </contour>
    <contour>
      <point x="269.0" y="357.0" type="line"/>
      <point x="409.0" y="358.0"/>
      <point x="437.0" y="424.0"/>
      <point x="437.0" y="506.0" type="curve" smooth="yes"/>
      <point x="437.0" y="729.0" type="line"/>
      <point x="272.0" y="729.0" type="line"/>
      <point x="84.0" y="706.0" type="line"/>
      <point x="84.0" y="563.0" type="line"/>
    </contour>
    <contour>
      <point x="227.0" y="465.0" type="line"/>
      <point x="437.0" y="653.0" type="line"/>
      <point x="437.0" y="1176.0" type="line"/>
      <point x="227.0" y="1176.0" type="line"/>
    </contour>
    <contour>
      <point x="-19.0" y="1104.0" type="line"/>
      <point x="1165.0" y="1104.0" type="line"/>
      <point x="1165.0" y="1287.0" type="line"/>
      <point x="-19.0" y="1287.0" type="line"/>
    </contour>
  </outline>
</glyph>
<glyph name="nga-deva" format="2">
  <advance width="1174.0"/>
  <unicode hex="0919"/>
  <anchor x="576.0" y="-101.0" name="bottom"/>
  <anchor x="730.0" y="1287.0" name="candra"/>
  <anchor x="753.0" y="1287.0" name="top"/>
  <anchor x="568.0" y="-241.0" name="nukta"/>
  <outline>
    <contour>
      <point x="1043.0" y="811.0" type="curve" smooth="yes"/>
      <point x="957.0" y="811.0"/>
      <point x="920.0" y="776.0"/>
      <point x="920.0" y="691.0" type="curve" smooth="yes"/>
      <point x="920.0" y="607.0"/>
      <point x="957.0" y="571.0"/>
      <point x="1043.0" y="571.0" type="curve" smooth="yes"/>
      <point x="1128.0" y="571.0"/>
      <point x="1165.0" y="607.0"/>
      <point x="1165.0" y="691.0" type="curve" smooth="yes"/>
      <point x="1165.0" y="776.0"/>
      <point x="1128.0" y="811.0"/>
    </contour>
    <contour>
      <point x="1193.0" y="1287.0" type="line"/>
      <point x="851.0" y="1287.0" type="line"/>
      <point x="851.0" y="1104.0" type="line"/>
      <point x="1193.0" y="1104.0" type="line"/>
    </contour>
    <component base="dda-deva"/>
  </outline>
</glyph>
<glyph name="ca-deva" format="2">
  <advance width="1261.0"/>
  <unicode hex="091A"/>
  <anchor x="981.0" y="0.0" name="bottom"/>
  <anchor x="888.0" y="1287.0" name="candra"/>
  <anchor x="211.0" y="82.0" name="nukta"/>
  <anchor x="981.0" y="1287.0" name="top"/>
  <outline>
    <contour>
      <point x="573.0" y="200.0" type="curve" smooth="yes"/>
      <point x="767.0" y="199.0"/>
      <point x="911.0" y="284.0"/>
      <point x="1004.0" y="391.0" type="curve"/>
      <point x="974.0" y="599.0" type="line"/>
      <point x="890.0" y="479.0"/>
      <point x="749.0" y="379.0"/>
      <point x="588.0" y="380.0" type="curve" smooth="yes"/>
      <point x="454.0" y="380.0"/>
      <point x="410.0" y="435.0"/>
      <point x="410.0" y="537.0" type="curve" smooth="yes"/>
      <point x="410.0" y="641.0"/>
      <point x="521.0" y="745.0"/>
      <point x="667.0" y="731.0" type="curve"/>
      <point x="638.0" y="803.0" type="line"/>
      <point x="495.0" y="793.0" type="line"/>
      <point x="286.0" y="766.0"/>
      <point x="196.0" y="651.0"/>
      <point x="196.0" y="511.0" type="curve" smooth="yes"/>
      <point x="196.0" y="328.0"/>
      <point x="322.0" y="200.0"/>
    </contour>
    <contour>
      <point x="40.0" y="731.0" type="line"/>
      <point x="708.0" y="731.0" type="line"/>
      <point x="708.0" y="908.0" type="line"/>
      <point x="40.0" y="908.0" type="line"/>
    </contour>
    <contour>
      <point x="876.0" y="0.0" type="line"/>
      <point x="1086.0" y="0.0" type="line"/>
      <point x="1086.0" y="1176.0" type="line"/>
      <point x="876.0" y="1176.0" type="line"/>
    </contour>
    <contour>
      <point x="-19.0" y="1104.0" type="line"/>
      <point x="1280.0" y="1104.0" type="line"/>
      <point x="1280.0" y="1287.0" type="line"/>
      <point x="-19.0" y="1287.0" type="line"/>
    </contour>
  </outline>
</glyph>
<glyph name="jha-deva" format="2">
  <advance width="1563.0"/>
  <unicode hex="091D"/>
  <anchor x="134.0" y="-196.0" name="nukta"/>
  <anchor x="1283.0" y="0.0" name="bottom"/>
  <anchor x="622.0" y="1287.0" name="candra_1"/>
  <anchor x="1225.0" y="1287.0" name="candra_2"/>
  <anchor x="761.0" y="1287.0" name="top_1"/>
  <anchor x="1282.0" y="1287.0" name="top_2"/>
  <outline>
    <contour>
      <point x="896.0" y="393.0" type="line"/>
      <point x="1002.0" y="374.0"/>
      <point x="1188.0" y="414.0"/>
      <point x="1252.0" y="474.0" type="curve"/>
      <point x="1221.0" y="660.0" type="line"/>
      <point x="1105.0" y="573.0"/>
      <point x="947.0" y="532.0"/>
      <point x="828.0" y="546.0" type="curve"/>
    </contour>
    <component base="i-deva"/>
    <component base="aaMatra-deva" xOffset="1002.0"/>
  </outline>
</glyph>
<glyph name="dda-deva" format="2">
  <advance width="1056.0"/>
  <unicode hex="0921"/>
  <anchor x="560.0" y="-87.0" name="bottom"/>
  <anchor x="658.0" y="1287.0" name="candra"/>
  <anchor x="568.0" y="-241.0" name="nukta"/>
  <anchor x="759.0" y="1287.0" name="top"/>
  <outline>
    <contour>
      <point x="-19.0" y="1104.0" type="line"/>
      <point x="1075.0" y="1104.0" type="line"/>
      <point x="1075.0" y="1287.0" type="line"/>
      <point x="-19.0" y="1287.0" type="line"/>
    </contour>
    <contour>
      <point x="651.0" y="795.0" type="line"/>
      <point x="858.0" y="795.0" type="line"/>
      <point x="858.0" y="1180.0" type="line"/>
      <point x="651.0" y="1180.0" type="line"/>
    </contour>
    <contour>
      <point x="559.0" y="-17.0" type="curve" smooth="yes"/>
      <point x="822.0" y="-17.0"/>
      <point x="990.0" y="110.0"/>
      <point x="990.0" y="345.0" type="curve" smooth="yes"/>
      <point x="990.0" y="574.0"/>
      <point x="832.0" y="609.0"/>
      <point x="668.0" y="609.0" type="curve" smooth="yes"/>
      <point x="543.0" y="609.0"/>
      <point x="352.0" y="588.0"/>
      <point x="291.0" y="575.0" type="curve"/>
      <point x="314.0" y="568.0" type="line"/>
      <point x="301.0" y="592.0"/>
      <point x="285.0" y="642.0"/>
      <point x="285.0" y="695.0" type="curve" smooth="yes"/>
      <point x="285.0" y="768.0"/>
      <point x="315.0" y="795.0"/>
      <point x="434.0" y="795.0" type="curve" smooth="yes"/>
      <point x="781.0" y="795.0" type="line"/>
      <point x="758.0" y="982.0" type="line"/>
      <point x="397.0" y="982.0" type="line" smooth="yes"/>
      <point x="175.0" y="982.0"/>
      <point x="98.0" y="896.0"/>
      <point x="98.0" y="752.0" type="curve" smooth="yes"/>
      <point x="98.0" y="622.0"/>
      <point x="159.0" y="472.0"/>
      <point x="229.0" y="416.0" type="curve" smooth="yes"/>
      <point x="264.0" y="388.0"/>
      <point x="288.0" y="389.0"/>
      <point x="317.0" y="392.0" type="curve" smooth="yes"/>
      <point x="382.0" y="399.0"/>
      <point x="572.0" y="419.0"/>
      <point x="657.0" y="419.0" type="curve" smooth="yes"/>
      <point x="770.0" y="419.0"/>
      <point x="796.0" y="384.0"/>
      <point x="796.0" y="322.0" type="curve" smooth="yes"/>
      <point x="796.0" y="246.0"/>
      <point x="753.0" y="168.0"/>
      <point x="545.0" y="168.0" type="curve" smooth="yes"/>
      <point x="355.0" y="168.0"/>
      <point x="261.0" y="233.0"/>
      <point x="148.0" y="312.0" type="curve"/>
      <point x="66.0" y="182.0" type="line"/>
      <point x="180.0" y="70.0"/>
      <point x="348.0" y="-17.0"/>
    </contour>
  </outline>
</glyph>
<glyph name="tha-deva" format="2">
  <advance width="1259.0"/>
  <unicode hex="0925"/>
  <anchor x="978.0" y="0.0" name="bottom"/>
  <anchor x="887.0" y="1287.0" name="candra"/>
  <anchor x="202.0" y="111.0" name="nukta"/>
  <anchor x="981.0" y="1287.0" name="top"/>
  <outline>
    <contour>
      <point x="579.0" y="249.0" type="curve" smooth="yes"/>
      <point x="711.0" y="249.0"/>
      <point x="838.0" y="294.0"/>
      <point x="921.0" y="405.0" type="curve"/>
      <point x="902.0" y="617.0" type="line"/>
      <point x="814.0" y="488.0"/>
      <point x="699.0" y="440.0"/>
      <point x="589.0" y="440.0" type="curve" smooth="yes"/>
      <point x="461.0" y="440.0"/>
      <point x="370.0" y="499.0"/>
      <point x="319.0" y="640.0" type="curve"/>
      <point x="300.0" y="587.0" type="line"/>
      <point x="477.0" y="650.0"/>
      <point x="667.0" y="782.0"/>
      <point x="667.0" y="999.0" type="curve" smooth="yes"/>
      <point x="667.0" y="1137.0"/>
      <point x="571.0" y="1306.0"/>
      <point x="348.0" y="1306.0" type="curve" smooth="yes"/>
      <point x="174.0" y="1306.0"/>
      <point x="88.0" y="1202.0"/>
      <point x="89.0" y="1091.0" type="curve" smooth="yes"/>
      <point x="89.0" y="1005.0"/>
      <point x="146.0" y="929.0"/>
      <point x="242.0" y="880.0" type="curve"/>
      <point x="324.909" y="970.0" type="line"/>
      <point x="291.0" y="1001.0"/>
      <point x="270.0" y="1029.0"/>
      <point x="270.0" y="1065.0" type="curve" smooth="yes"/>
      <point x="270.0" y="1105.0"/>
      <point x="297.909" y="1130.91"/>
      <point x="354.0" y="1131.0" type="curve" smooth="yes"/>
      <point x="422.0" y="1131.0"/>
      <point x="464.0" y="1086.0"/>
      <point x="464.0" y="1012.0" type="curve" smooth="yes"/>
      <point x="464.0" y="855.0"/>
      <point x="280.0" y="765.0"/>
      <point x="121.0" y="698.0" type="curve"/>
      <point x="178.0" y="390.0"/>
      <point x="364.0" y="249.0"/>
    </contour>
    <contour>
      <point x="873.0" y="0.0" type="line"/>
      <point x="1083.0" y="0.0" type="line"/>
      <point x="1083.0" y="1182.0" type="line"/>
      <point x="873.0" y="1182.0" type="line"/>
    </contour>
    <contour>
      <point x="751.0" y="1104.0" type="line"/>
      <point x="1278.0" y="1104.0" type="line"/>
      <point x="1278.0" y="1287.0" type="line"/>
      <point x="751.0" y="1287.0" type="line"/>
    </contour>
  </outline>
</glyph>
<glyph name="ba-deva" format="2">
  <advance width="1123.0"/>
  <unicode hex="092C"/>
  <anchor x="843.0" y="0.0" name="bottom"/>
  <anchor x="711.0" y="1287.0" name="candra"/>
  <anchor x="117.0" y="41.0" name="nukta"/>
  <anchor x="843.0" y="1287.0" name="top"/>
  <outline>
    <contour>
      <point x="450.909" y="174.0" type="curve" smooth="yes"/>
      <point x="607.0" y="174.0"/>
      <point x="761.0" y="230.0"/>
      <point x="843.0" y="361.0" type="curve"/>
      <point x="787.0" y="497.0" type="line"/>
      <point x="691.909" y="392.0"/>
      <point x="612.0" y="343.0"/>
      <point x="459.0" y="343.0" type="curve" smooth="yes"/>
      <point x="313.0" y="343.0"/>
      <point x="270.0" y="409.0"/>
      <point x="270.0" y="566.0" type="curve" smooth="yes"/>
      <point x="270.0" y="719.0"/>
      <point x="314.0" y="776.0"/>
      <point x="479.0" y="781.0" type="curve" smooth="yes"/>
      <point x="577.0" y="783.0"/>
      <point x="697.0" y="766.0"/>
      <point x="828.0" y="700.0" type="curve"/>
      <point x="824.0" y="842.0" type="line"/>
      <point x="722.0" y="916.0"/>
      <point x="615.0" y="950.0"/>
      <point x="476.0" y="950.0" type="curve" smooth="yes"/>
      <point x="213.0" y="950.0"/>
      <point x="65.0" y="825.0"/>
      <point x="65.0" y="568.0" type="curve" smooth="yes"/>
      <point x="65.0" y="292.0"/>
      <point x="230.0" y="174.0"/>
    </contour>
    <contour>
      <point x="695.0" y="289.0" type="line"/>
      <point x="798.0" y="395.0" type="line"/>
      <point x="343.0" y="851.0" type="line"/>
      <point x="240.0" y="745.0" type="line"/>
    </contour>
    <contour>
      <point x="738.0" y="0.0" type="line"/>
      <point x="948.0" y="0.0" type="line"/>
      <point x="948.0" y="1176.0" type="line"/>
      <point x="738.0" y="1176.0" type="line"/>
    </contour>
    <contour>
      <point x="-19.0" y="1104.0" type="line"/>
      <point x="1142.0" y="1104.0" type="line"/>
      <point x="1142.0" y="1287.0" type="line"/>
      <point x="-19.0" y="1287.0" type="line"/>
    </contour>
  </outline>
</glyph>
<glyph name="ssa-deva" format="2">
  <advance width="1178.0"/>
  <unicode hex="0937"/>
  <anchor x="897.0" y="0.0" name="bottom"/>
  <anchor x="765.0" y="1287.0" name="candra"/>
  <anchor x="293.0" y="82.0" name="nukta"/>
  <anchor x="897.0" y="1287.0" name="top"/>
  <outline>
    <contour>
      <point x="508.0" y="265.0" type="curve" smooth="yes"/>
      <point x="663.0" y="265.0"/>
      <point x="805.0" y="345.0"/>
      <point x="884.0" y="471.0" type="curve"/>
      <point x="874.0" y="673.0" type="line"/>
      <point x="801.0" y="544.0"/>
      <point x="655.0" y="457.0"/>
      <point x="520.0" y="456.0" type="curve" smooth="yes"/>
      <point x="393.0" y="455.0"/>
      <point x="360.0" y="510.0"/>
      <point x="360.0" y="649.0" type="curve" smooth="yes"/>
      <point x="360.0" y="1115.0" type="line"/>
      <point x="152.0" y="1115.0" type="line"/>
      <point x="152.0" y="655.0" type="line" smooth="yes"/>
      <point x="152.0" y="399.0"/>
      <point x="277.0" y="265.0"/>
    </contour>
    <contour>
      <point x="826.0" y="456.0" type="line"/>
      <point x="946.0" y="566.0" type="line"/>
      <point x="344.0" y="1176.0" type="line"/>
      <point x="224.0" y="1066.0" type="line"/>
    </contour>
    <contour>
      <point x="791.0" y="0.0" type="line"/>
      <point x="1002.0" y="0.0" type="line"/>
      <point x="1002.0" y="1199.0" type="line"/>
      <point x="791.0" y="1199.0" type="line"/>
    </contour>
    <contour>
      <point x="-19.0" y="1104.0" type="line"/>
      <point x="1197.0" y="1104.0" type="line"/>
      <point x="1197.0" y="1287.0" type="line"/>
      <point x="-19.0" y="1287.0" type="line"/>
    </contour>
  </outline>
</glyph>
<glyph name="sa-deva" format="2">
  <advance width="1334.0"/>
  <unicode hex="0938"/>
  <anchor x="1054.0" y="0.0" name="bottom"/>
  <anchor x="943.0" y="1287.0" name="candra"/>
  <anchor x="102.0" y="131.0" name="nukta"/>
  <anchor x="1054.0" y="1287.0" name="top"/>
  <outline>
    <contour>
      <point x="476.0" y="-36.0" type="line"/>
      <point x="646.0" y="86.0" type="line"/>
      <point x="294.0" y="557.0" type="line"/>
      <point x="287.0" y="547.0" type="line"/>
      <point x="303.0" y="537.0"/>
      <point x="328.0" y="532.0"/>
      <point x="354.0" y="532.0" type="curve" smooth="yes"/>
      <point x="467.0" y="532.0"/>
      <point x="560.0" y="618.0"/>
      <point x="560.0" y="795.0" type="curve" smooth="yes"/>
      <point x="560.0" y="1176.0" type="line"/>
      <point x="350.0" y="1176.0" type="line"/>
      <point x="350.0" y="801.0" type="line" smooth="yes"/>
      <point x="350.0" y="729.0"/>
      <point x="328.0" y="692.0"/>
      <point x="279.0" y="692.0" type="curve" smooth="yes"/>
      <point x="244.0" y="692.0"/>
      <point x="214.0" y="706.0"/>
      <point x="176.0" y="738.0" type="curve"/>
      <point x="41.0" y="627.0" type="line"/>
    </contour>
    <contour>
      <point x="779.0" y="496.0" type="curve" smooth="yes"/>
      <point x="873.0" y="496.0"/>
      <point x="964.0" y="508.0"/>
      <point x="1038.0" y="532.0" type="curve"/>
      <point x="1038.0" y="734.0" type="line"/>
      <point x="958.0" y="703.0"/>
      <point x="857.0" y="685.0"/>
      <point x="758.0" y="685.0" type="curve" smooth="yes"/>
      <point x="652.0" y="685.0"/>
      <point x="548.0" y="698.0"/>
      <point x="476.0" y="733.0" type="curve"/>
      <point x="415.0" y="568.0" type="line"/>
      <point x="520.0" y="519.0"/>
      <point x="652.0" y="496.0"/>
    </contour>
    <contour>
      <point x="949.0" y="0.0" type="line"/>
      <point x="1159.0" y="0.0" type="line"/>
      <point x="1159.0" y="1141.0" type="line"/>
      <point x="949.0" y="1141.0" type="line"/>
    </contour>
    <contour>
      <point x="-19.0" y="1104.0" type="line"/>
      <point x="1353.0" y="1104.0" type="line"/>
      <point x="1353.0" y="1287.0" type="line"/>
      <point x="-19.0" y="1287.0" type="line"/>
    </contour>
  </outline>
</glyph>
<glyph name="nukta-deva" format="2">
  <unicode hex="093C"/>
  <anchor x="271.0" y="-223.0" name="_nukta"/>
  <anchor x="265.0" y="-448.0" name="bottom"/>
  <outline>
    <contour>
      <point x="270.0" y="-105.0" type="curve" smooth="yes"/>
      <point x="187.0" y="-105.0"/>
      <point x="151.0" y="-140.0"/>
      <point x="151.0" y="-223.0" type="curve" smooth="yes"/>
      <point x="151.0" y="-305.0"/>
      <point x="187.0" y="-340.0"/>
      <point x="270.0" y="-340.0" type="curve" smooth="yes"/>
      <point x="353.0" y="-340.0"/>
      <point x="389.0" y="-305.0"/>
      <point x="389.0" y="-223.0" type="curve" smooth="yes"/>
      <point x="389.0" y="-140.0"/>
      <point x="353.0" y="-105.0"/>
    </contour>
  </outline>
</glyph>
<glyph name="avagraha-deva" format="2">
  <advance width="900.0"/>
  <unicode hex="093D"/>
  <outline>
    <contour>
      <point x="465.0" y="-68.0" type="curve" smooth="yes"/>
      <point x="715.0" y="-68.0"/>
      <point x="863.0" y="78.0"/>
      <point x="863.0" y="290.0" type="curve" smooth="yes"/>
      <point x="863.0" y="479.0"/>
      <point x="743.0" y="583.0"/>
      <point x="545.0" y="724.0" type="curve" smooth="yes"/>
      <point x="357.0" y="858.0"/>
      <point x="296.0" y="890.0"/>
      <point x="296.0" y="979.0" type="curve" smooth="yes"/>
      <point x="295.0" y="1075.0"/>
      <point x="366.0" y="1104.0"/>
      <point x="461.0" y="1104.0" type="curve" smooth="yes"/>
      <point x="824.0" y="1104.0" type="line"/>
      <point x="824.0" y="1287.0" type="line"/>
      <point x="435.0" y="1287.0" type="line" smooth="yes"/>
      <point x="234.0" y="1287.0"/>
      <point x="95.0" y="1199.0"/>
      <point x="95.0" y="982.0" type="curve" smooth="yes"/>
      <point x="95.0" y="811.0"/>
      <point x="184.0" y="729.0"/>
      <point x="392.0" y="586.0" type="curve" smooth="yes"/>
      <point x="550.0" y="478.0"/>
      <point x="670.0" y="398.0"/>
      <point x="668.0" y="275.0" type="curve" smooth="yes"/>
      <point x="667.0" y="158.0"/>
      <point x="608.0" y="109.0"/>
      <point x="465.0" y="109.0" type="curve" smooth="yes"/>
      <point x="328.0" y="109.0"/>
      <point x="243.0" y="152.0"/>
      <point x="103.0" y="231.0" type="curve"/>
      <point x="24.0" y="90.0" type="line"/>
      <point x="145.0" y="-10.0"/>
      <point x="307.0" y="-68.0"/>
    </contour>
  </outline>
</glyph>
<glyph name="iiMatra-deva" format="2">
  <advance width="563.0"/>
  <unicode hex="0940"/>
  <anchor x="537.0" y="1377.0" name="candra"/>
  <anchor x="-208.0" y="1167.0" name="iimatra"/>
  <anchor x="296.0" y="1287.0" name="top"/>
  <outline>
    <contour>
      <point x="247.0" y="1126.0" type="curve"/>
      <point x="365.0" y="1234.0" type="line"/>
      <point x="227.0" y="1610.0"/>
      <point x="38.0" y="1809.0"/>
      <point x="-201.0" y="1809.0" type="curve" smooth="yes"/>
      <point x="-334.0" y="1809.0"/>
      <point x="-417.0" y="1729.0"/>
      <point x="-417.0" y="1609.0" type="curve" smooth="yes"/>
      <point x="-417.0" y="1506.0"/>
      <point x="-364.0" y="1416.0"/>
      <point x="-268.0" y="1352.0" type="curve"/>
      <point x="-170.0" y="1446.0" type="line"/>
      <point x="-213.0" y="1488.0"/>
      <point x="-241.0" y="1518.0"/>
      <point x="-241.0" y="1563.0" type="curve" smooth="yes"/>
      <point x="-241.0" y="1600.0"/>
      <point x="-220.0" y="1626.0"/>
      <point x="-176.0" y="1626.0" type="curve" smooth="yes"/>
      <point x="-10.0" y="1626.0"/>
      <point x="163.0" y="1354.0"/>
    </contour>
    <contour>
      <point x="176.0" y="1.0" type="line"/>
      <point x="386.0" y="1.0" type="line"/>
      <point x="386.0" y="1219.0" type="line"/>
      <point x="176.0" y="1219.0" type="line"/>
    </contour>
    <contour>
      <point x="-19.0" y="1104.0" type="line"/>
      <point x="582.0" y="1104.0" type="line"/>
      <point x="582.0" y="1287.0" type="line"/>
      <point x="-19.0" y="1287.0" type="line"/>
    </contour>
  </outline>
</glyph>
<glyph name="uMatra-deva" format="2">
  <unicode hex="0941"/>
  <anchor x="218.0" y="0.0" name="_bottom"/>
  <outline>
    <contour>
      <point x="184.0" y="-561.0" type="curve" smooth="yes"/>
      <point x="402.0" y="-561.0"/>
      <point x="521.0" y="-435.0"/>
      <point x="521.0" y="-268.0" type="curve" smooth="yes"/>
      <point x="521.0" y="-112.0"/>
      <point x="417.0" y="14.0"/>
      <point x="218.0" y="14.0" type="curve" smooth="yes"/>
      <point x="152.0" y="14.0"/>
      <point x="60.0" y="-1.0"/>
      <point x="-17.0" y="-40.0" type="curve"/>
      <point x="39.0" y="-202.0" type="line"/>
      <point x="102.0" y="-177.0"/>
      <point x="158.0" y="-161.0"/>
      <point x="219.0" y="-161.0" type="curve" smooth="yes"/>
      <point x="290.0" y="-161.0"/>
      <point x="329.0" y="-188.0"/>
      <point x="329.0" y="-268.0" type="curve" smooth="yes"/>
      <point x="329.0" y="-335.0"/>
      <point x="284.0" y="-379.0"/>
      <point x="181.0" y="-379.0" type="curve" smooth="yes"/>
      <point x="81.0" y="-379.0"/>
      <point x="-34.0" y="-337.0"/>
      <point x="-209.0" y="-147.0" type="curve"/>
      <point x="-313.0" y="-245.0" type="line"/>
      <point x="-114.0" y="-496.0"/>
      <point x="43.0" y="-561.0"/>
    </contour>
  </outline>
</glyph>
<glyph name="uuMatra-deva" format="2">
  <unicode hex="0942"/>
  <anchor x="270.0" y="0.0" name="_bottom"/>
  <outline>
    <contour>
      <point x="263.0" y="-551.0" type="curve" smooth="yes"/>
      <point x="328.0" y="-551.0"/>
      <point x="420.0" y="-536.0"/>
      <point x="497.0" y="-497.0" type="curve"/>
      <point x="442.0" y="-339.0" type="line"/>
      <point x="378.0" y="-364.0"/>
      <point x="322.0" y="-380.0"/>
      <point x="262.0" y="-380.0" type="curve" smooth="yes"/>
      <point x="190.0" y="-380.0"/>
      <point x="151.0" y="-353.0"/>
      <point x="151.0" y="-269.0" type="curve" smooth="yes"/>
      <point x="151.0" y="-202.0"/>
      <point x="196.0" y="-158.0"/>
      <point x="299.0" y="-158.0" type="curve" smooth="yes"/>
      <point x="399.0" y="-158.0"/>
      <point x="514.0" y="-200.0"/>
      <point x="689.0" y="-390.0" type="curve"/>
      <point x="794.0" y="-292.0" type="line"/>
      <point x="595.0" y="-41.0"/>
      <point x="437.0" y="23.0"/>
      <point x="297.0" y="23.0" type="curve" smooth="yes"/>
      <point x="78.0" y="23.0"/>
      <point x="-40.0" y="-103.0"/>
      <point x="-40.0" y="-270.0" type="curve" smooth="yes"/>
      <point x="-40.0" y="-425.0"/>
      <point x="63.0" y="-551.0"/>
    </contour>
  </outline>
</glyph>
<glyph name="rVocalicMatra-deva" format="2">
  <unicode hex="0943"/>
  <anchor x="256.0" y="0.0" name="_bottom"/>
  <outline>
    <contour>
      <point x="247.0" y="-416.0" type="curve" smooth="yes"/>
      <point x="354.0" y="-416.0"/>
      <point x="456.0" y="-379.0"/>
      <point x="534.0" y="-321.0" type="curve"/>
      <point x="467.0" y="-181.0" type="line"/>
      <point x="402.0" y="-221.0"/>
      <point x="330.0" y="-253.0"/>
      <point x="263.0" y="-253.0" type="curve" smooth="yes"/>
      <point x="192.0" y="-253.0"/>
      <point x="160.0" y="-218.0"/>
      <point x="160.0" y="-169.0" type="curve" smooth="yes"/>
      <point x="160.0" y="-105.0"/>
      <point x="199.0" y="-55.0"/>
      <point x="353.0" y="0.0" type="curve"/>
      <point x="282.0" y="139.0" type="line"/>
      <point x="99.0" y="92.0"/>
      <point x="-29.0" y="-10.0"/>
      <point x="-29.0" y="-176.0" type="curve"/>
      <point x="-29.0" y="-316.0"/>
      <point x="92.0" y="-416.0"/>
    </contour>
  </outline>
</glyph>
<glyph name="rrVocalicMatra-deva" format="2">
  <unicode hex="0944"/>
  <anchor x="281.0" y="0.0" name="_bottom"/>
  <outline>
    <contour>
      <point x="329.0" y="-698.0" type="curve" smooth="yes"/>
      <point x="437.0" y="-698.0"/>
      <point x="544.0" y="-663.0"/>
      <point x="624.0" y="-604.0" type="curve"/>
      <point x="557.0" y="-464.0" type="line"/>
      <point x="490.0" y="-506.0"/>
      <point x="412.0" y="-536.0"/>
      <point x="346.0" y="-536.0" type="curve" smooth="yes"/>
      <point x="280.0" y="-536.0"/>
      <point x="253.0" y="-509.0"/>
      <point x="253.0" y="-457.0" type="curve" smooth="yes"/>
      <point x="253.0" y="-399.0"/>
      <point x="305.0" y="-360.0"/>
      <point x="443.0" y="-344.0" type="curve"/>
      <point x="421.0" y="-192.0" type="line"/>
      <point x="153.0" y="-206.0"/>
      <point x="63.0" y="-343.0"/>
      <point x="63.0" y="-460.0" type="curve" smooth="yes"/>
      <point x="63.0" y="-598.0"/>
      <point x="170.0" y="-698.0"/>
    </contour>
    <contour>
      <point x="270.0" y="-315.0" type="curve"/>
      <point x="369.0" y="-238.0" type="line"/>
      <point x="216.0" y="-212.0"/>
      <point x="183.0" y="-153.0"/>
      <point x="183.0" y="-101.0" type="curve" smooth="yes"/>
      <point x="183.0" y="-25.0"/>
      <point x="275.0" y="-5.0"/>
      <point x="377.0" y="0.0" type="curve"/>
      <point x="377.0" y="161.0" type="line"/>
      <point x="361.0" y="162.0"/>
      <point x="348.0" y="163.0"/>
      <point x="332.0" y="163.0" type="curve" smooth="yes"/>
      <point x="181.0" y="163.0"/>
      <point x="-17.0" y="88.0"/>
      <point x="-17.0" y="-70.0" type="curve" smooth="yes"/>
      <point x="-17.0" y="-145.0"/>
      <point x="1.0" y="-265.0"/>
    </contour>
  </outline>
</glyph>
<glyph name="eCandraMatra-deva" format="2">
  <unicode hex="0945"/>
  <anchor x="273.0" y="1287.0" name="_candra"/>
  <anchor x="272.0" y="1287.0" name="_top"/>
  <anchor x="272.0" y="1597.0" name="candra"/>
  <anchor x="274.0" y="1606.0" name="top"/>
  <outline>
    <contour>
      <point x="267.0" y="1434.0" type="curve" smooth="yes"/>
      <point x="439.0" y="1434.0"/>
      <point x="555.0" y="1523.0"/>
      <point x="629.0" y="1686.0" type="curve"/>
      <point x="495.0" y="1761.0" type="line"/>
      <point x="453.0" y="1693.0"/>
      <point x="400.0" y="1617.0"/>
      <point x="276.0" y="1617.0" type="curve" smooth="yes"/>
      <point x="162.0" y="1617.0"/>
      <point x="95.0" y="1680.0"/>
      <point x="51.0" y="1756.0" type="curve"/>
      <point x="-90.0" y="1674.0" type="line"/>
      <point x="-40.0" y="1550.0"/>
      <point x="74.0" y="1434.0"/>
    </contour>
  </outline>
</glyph>
<glyph name="eShortMatra-deva" format="2">
  <unicode hex="0946"/>
  <anchor x="252.0" y="1287.0" name="_top"/>
  <anchor x="476.0" y="1523.0" name="candra"/>
  <anchor x="474.0" y="1525.0" name="top"/>
  <outline>
    <contour>
      <point x="295.0" y="1199.0" type="line"/>
      <point x="329.0" y="1281.0"/>
      <point x="356.0" y="1364.0"/>
      <point x="356.0" y="1448.0" type="curve" smooth="yes"/>
      <point x="356.0" y="1585.0"/>
      <point x="293.0" y="1670.0"/>
      <point x="157.0" y="1703.0" type="curve" smooth="yes"/>
      <point x="103.0" y="1716.0" type="line" smooth="yes"/>
      <point x="-2.0" y="1741.0"/>
      <point x="-36.0" y="1782.0"/>
      <point x="-36.0" y="1810.0" type="curve" smooth="yes"/>
      <point x="-36.0" y="1822.0"/>
      <point x="-34.0" y="1838.0"/>
      <point x="-33.0" y="1853.0" type="curve"/>
      <point x="-170.0" y="1873.0" type="line"/>
      <point x="-193.0" y="1827.0"/>
      <point x="-199.0" y="1793.0"/>
      <point x="-199.0" y="1761.0" type="curve" smooth="yes"/>
      <point x="-199.0" y="1679.0"/>
      <point x="-122.0" y="1588.0"/>
      <point x="44.0" y="1537.0" type="curve" smooth="yes"/>
      <point x="99.0" y="1520.0" type="line" smooth="yes"/>
      <point x="180.0" y="1495.0"/>
      <point x="186.0" y="1465.0"/>
      <point x="186.0" y="1351.0" type="curve" smooth="yes"/>
      <point x="186.0" y="1321.0"/>
      <point x="181.0" y="1283.0"/>
      <point x="176.0" y="1232.0" type="curve"/>
    </contour>
  </outline>
</glyph>
<glyph name="aiMatra-deva" format="2">
  <unicode hex="0948"/>
  <anchor x="227.0" y="1287.0" name="_top"/>
  <anchor x="469.0" y="1489.0" name="candra"/>
  <anchor x="339.0" y="1287.0" name="top"/>
  <outline>
    <contour>
      <point x="175.0" y="1237.0" type="curve"/>
      <point x="286.0" y="1281.0" type="line"/>
      <point x="186.0" y="1764.0"/>
      <point x="70.0" y="1883.0"/>
      <point x="-217.0" y="1883.0" type="curve" smooth="yes"/>
      <point x="-330.0" y="1883.0"/>
      <point x="-407.0" y="1866.0"/>
      <point x="-449.0" y="1856.0" type="curve"/>
      <point x="-414.0" y="1696.0" type="line"/>
      <point x="-341.0" y="1712.0"/>
      <point x="-273.0" y="1726.0"/>
      <point x="-209.0" y="1726.0" type="curve" smooth="yes"/>
      <point x="-55.0" y="1726.0"/>
      <point x="65.0" y="1634.0"/>
      <point x="166.0" y="1337.0" type="curve"/>
      <point x="199.0" y="1357.0" type="line"/>
      <point x="63.0" y="1518.0"/>
      <point x="-25.0" y="1590.0"/>
      <point x="-154.0" y="1590.0" type="curve" smooth="yes"/>
      <point x="-229.0" y="1590.0"/>
      <point x="-324.0" y="1580.0"/>
      <point x="-407.0" y="1558.0" type="curve"/>
      <point x="-370.0" y="1413.0" type="line"/>
      <point x="-292.0" y="1429.0"/>
      <point x="-229.0" y="1438.0"/>
      <point x="-159.0" y="1438.0" type="curve" smooth="yes"/>
      <point x="-2.0" y="1438.0"/>
      <point x="79.0" y="1356.0"/>
    </contour>
  </outline>
</glyph>
<glyph name="halant-deva" format="2">
  <unicode hex="094D"/>
  <anchor x="178.0" y="0.0" name="_bottom"/>
  <anchor x="171.0" y="-373.0" name="bottom"/>
  <anchor x="154.0" y="-374.0" name="nukta"/>
  <outline>
    <contour>
      <point x="609.0" y="-510.0" type="curve"/>
      <point x="705.0" y="-415.0" type="line"/>
      <point x="441.0" y="-121.0"/>
      <point x="309.0" y="-53.0"/>
      <point x="137.0" y="-53.0" type="curve" smooth="yes"/>
      <point x="73.0" y="-53.0"/>
      <point x="28.0" y="-60.0"/>
      <point x="-34.0" y="-67.0" type="curve"/>
      <point x="-4.0" y="-258.0" type="line"/>
      <point x="57.0" y="-252.0"/>
      <point x="96.0" y="-247.0"/>
      <point x="150.0" y="-247.0" type="curve" smooth="yes"/>
      <point x="285.0" y="-247.0"/>
      <point x="362.0" y="-273.0"/>
    </contour>
  </outline>
</glyph>
<glyph name="prishthaMatraE-deva" format="2">
  <advance width="563.0"/>
  <unicode hex="094E"/>
  <anchor x="281.0" y="27.0" name="bottom"/>
  <anchor x="281.0" y="1287.0" name="top"/>
  <outline>
    <contour>
      <point x="176.0" y="0.0" type="line"/>
      <point x="386.0" y="0.0" type="line"/>
      <point x="386.0" y="1208.0" type="line"/>
      <point x="176.0" y="1208.0" type="line"/>
    </contour>
    <contour>
      <point x="176.0" y="1104.0" type="line"/>
      <point x="582.0" y="1104.0" type="line"/>
      <point x="582.0" y="1287.0" type="line"/>
      <point x="176.0" y="1287.0" type="line"/>
    </contour>
  </outline>
</glyph>
<glyph name="awMatra-deva" format="2">
  <advance width="561.0"/>
  <unicode hex="094F"/>
  <anchor x="281.0" y="0.0" name="bottom"/>
  <anchor x="223.0" y="1287.0" name="candra"/>
  <anchor x="280.0" y="1287.0" name="top"/>
  <outline>
    <contour>
      <point x="304.0" y="1197.0" type="line"/>
      <point x="382.0" y="1298.0"/>
      <point x="411.0" y="1386.0"/>
      <point x="411.0" y="1469.0" type="curve" smooth="yes"/>
      <point x="411.0" y="1616.0"/>
      <point x="303.0" y="1692.0"/>
      <point x="125.0" y="1720.0" type="curve" smooth="yes"/>
      <point x="-164.0" y="1765.0" type="line" smooth="yes"/>
      <point x="-296.0" y="1786.0"/>
      <point x="-328.0" y="1803.0"/>
      <point x="-333.0" y="1848.0" type="curve" smooth="yes"/>
      <point x="-334.0" y="1855.0"/>
      <point x="-334.0" y="1863.0"/>
      <point x="-334.0" y="1872.0" type="curve"/>
      <point x="-417.0" y="1888.0" type="line"/>
      <point x="-450.0" y="1856.0"/>
      <point x="-464.0" y="1820.0"/>
      <point x="-464.0" y="1786.0" type="curve" smooth="yes"/>
      <point x="-464.0" y="1711.0"/>
      <point x="-397.0" y="1641.0"/>
      <point x="-269.0" y="1620.0" type="curve" smooth="yes"/>
      <point x="34.0" y="1574.0" type="line" smooth="yes"/>
      <point x="175.0" y="1551.0"/>
      <point x="271.0" y="1526.0"/>
      <point x="271.0" y="1383.0" type="curve" smooth="yes"/>
      <point x="271.0" y="1343.0"/>
      <point x="269.0" y="1308.0"/>
      <point x="239.0" y="1250.0" type="curve"/>
    </contour>
    <contour>
      <point x="236.0" y="1119.0" type="line"/>
      <point x="254.0" y="1172.0"/>
      <point x="268.0" y="1228.0"/>
      <point x="268.0" y="1273.0" type="curve" smooth="yes"/>
      <point x="268.0" y="1402.0"/>
      <point x="216.0" y="1464.0"/>
      <point x="16.0" y="1496.0" type="curve" smooth="yes"/>
      <point x="-324.0" y="1549.0" type="line" smooth="yes"/>
      <point x="-470.0" y="1571.0"/>
      <point x="-498.0" y="1615.0"/>
      <point x="-500.0" y="1682.0" type="curve" smooth="yes"/>
      <point x="-501.0" y="1691.0"/>
      <point x="-501.0" y="1700.0"/>
      <point x="-501.0" y="1709.0" type="curve"/>
      <point x="-594.0" y="1724.0" type="line"/>
      <point x="-616.0" y="1686.0"/>
      <point x="-627.0" y="1646.0"/>
      <point x="-627.0" y="1608.0" type="curve" smooth="yes"/>
      <point x="-627.0" y="1503.0"/>
      <point x="-548.0" y="1408.0"/>
      <point x="-368.0" y="1389.0" type="curve" smooth="yes"/>
      <point x="22.0" y="1347.0" type="line" smooth="yes"/>
      <point x="148.0" y="1332.0"/>
      <point x="176.0" y="1302.0"/>
      <point x="176.0" y="1233.0" type="curve" smooth="yes"/>
      <point x="176.0" y="1210.0"/>
      <point x="172.0" y="1180.0"/>
      <point x="169.0" y="1143.0" type="curve"/>
    </contour>
    <component base="aaMatra-deva"/>
  </outline>
</glyph>
<glyph name="anudatta-deva" format="2">
  <unicode hex="0952"/>
  <outline>
    <contour>
      <point x="-864.0" y="-459.0" type="line"/>
      <point x="-90.0" y="-459.0" type="line"/>
      <point x="-90.0" y="-289.0" type="line"/>
      <point x="-864.0" y="-289.0" type="line"/>
    </contour>
  </outline>
</glyph>
<glyph name="ueMatra-deva" format="2">
  <unicode hex="0956"/>
  <anchor x="453.0" y="127.0" name="_bottom"/>
  <outline>
    <contour>
      <point x="283.0" y="-274.0" type="curve" smooth="yes"/>
      <point x="454.0" y="-274.0"/>
      <point x="570.0" y="-185.0"/>
      <point x="645.0" y="-22.0" type="curve"/>
      <point x="510.0" y="53.0" type="line"/>
      <point x="468.0" y="-15.0"/>
      <point x="396.0" y="-92.0"/>
      <point x="269.0" y="-92.0" type="curve" smooth="yes"/>
      <point x="139.0" y="-92.0"/>
      <point x="71.0" y="-28.0"/>
      <point x="27.0" y="48.0" type="curve"/>
      <point x="-84.0" y="-29.0" type="line"/>
      <point x="-34.0" y="-153.0"/>
      <point x="89.0" y="-274.0"/>
    </contour>
  </outline>
</glyph>
<glyph name="uueMatra-deva" format="2">
  <unicode hex="0957"/>
  <anchor x="453.0" y="127.0" name="_bottom"/>
  <outline>
    <contour>
      <point x="284.0" y="-274.0" type="curve" smooth="yes"/>
      <point x="456.0" y="-274.0"/>
      <point x="572.0" y="-185.0"/>
      <point x="646.0" y="-22.0" type="curve"/>
      <point x="512.0" y="53.0" type="line"/>
      <point x="470.0" y="-15.0"/>
      <point x="398.0" y="-92.0"/>
      <point x="270.0" y="-92.0" type="curve" smooth="yes"/>
      <point x="140.0" y="-92.0"/>
      <point x="73.0" y="-28.0"/>
      <point x="29.0" y="48.0" type="curve"/>
      <point x="-83.0" y="-29.0" type="line"/>
      <point x="-32.0" y="-153.0"/>
      <point x="91.0" y="-274.0"/>
    </contour>
    <contour>
      <point x="301.0" y="-600.0" type="curve" smooth="yes"/>
      <point x="473.0" y="-600.0"/>
      <point x="589.0" y="-511.0"/>
      <point x="663.0" y="-348.0" type="curve"/>
      <point x="528.0" y="-273.0" type="line"/>
      <point x="486.0" y="-341.0"/>
      <point x="415.0" y="-417.0"/>
      <point x="287.0" y="-417.0" type="curve" smooth="yes"/>
      <point x="157.0" y="-417.0"/>
      <point x="90.0" y="-353.0"/>
      <point x="46.0" y="-278.0" type="curve"/>
      <point x="-66.0" y="-355.0" type="line"/>
      <point x="-16.0" y="-478.0"/>
      <point x="108.0" y="-600.0"/>
    </contour>
  </outline>
</glyph>
<glyph name="lVocalicMatra-deva" format="2">
  <unicode hex="0962"/>
  <anchor x="281.0" y="0.0" name="_bottom"/>
  <outline>
    <contour>
      <point x="676.0" y="-475.0" type="line"/>
      <point x="731.0" y="-420.0"/>
      <point x="800.0" y="-300.0"/>
      <point x="800.0" y="-172.0" type="curve" smooth="yes"/>
      <point x="800.0" y="4.0"/>
      <point x="701.0" y="132.0"/>
      <point x="507.0" y="132.0" type="curve" smooth="yes"/>
      <point x="312.0" y="132.0"/>
      <point x="220.0" y="-10.0"/>
      <point x="220.0" y="-179.0" type="curve" smooth="yes"/>
      <point x="220.0" y="-218.0"/>
      <point x="224.0" y="-255.0"/>
      <point x="236.0" y="-290.0" type="curve"/>
      <point x="395.0" y="-274.0" type="line"/>
      <point x="390.0" y="-244.0"/>
      <point x="388.0" y="-217.0"/>
      <point x="388.0" y="-194.0" type="curve" smooth="yes"/>
      <point x="388.0" y="-104.0"/>
      <point x="427.0" y="-37.0"/>
      <point x="514.0" y="-37.0" type="curve" smooth="yes"/>
      <point x="594.0" y="-37.0"/>
      <point x="625.0" y="-104.0"/>
      <point x="625.0" y="-185.0" type="curve" smooth="yes"/>
      <point x="625.0" y="-260.0"/>
      <point x="582.0" y="-346.0"/>
      <point x="537.0" y="-399.0" type="curve"/>
      <point x="538.0" y="-406.0" type="line"/>
    </contour>
    <contour>
      <point x="-56.0" y="-510.0" type="curve"/>
      <point x="-51.0" y="-510.0" type="line"/>
      <point x="94.0" y="-415.0" type="line"/>
      <point x="11.0" y="-312.0"/>
      <point x="-25.0" y="-252.0"/>
      <point x="-25.0" y="-167.0" type="curve" smooth="yes"/>
      <point x="-25.0" y="-72.0"/>
      <point x="30.0" y="-40.0"/>
      <point x="91.0" y="-40.0" type="curve" smooth="yes"/>
      <point x="176.0" y="-40.0"/>
      <point x="238.0" y="-116.0"/>
      <point x="304.0" y="-223.0" type="curve"/>
      <point x="320.0" y="-98.0" type="line"/>
      <point x="259.0" y="61.0"/>
      <point x="172.0" y="128.0"/>
      <point x="48.0" y="128.0" type="curve" smooth="yes"/>
      <point x="-113.0" y="128.0"/>
      <point x="-207.0" y="23.0"/>
      <point x="-207.0" y="-159.0" type="curve" smooth="yes"/>
      <point x="-207.0" y="-297.0"/>
      <point x="-145.0" y="-400.0"/>
    </contour>
    <contour>
      <point x="589.0" y="-826.0" type="curve" smooth="yes"/>
      <point x="677.0" y="-826.0"/>
      <point x="760.0" y="-795.0"/>
      <point x="824.0" y="-747.0" type="curve"/>
      <point x="770.0" y="-624.0" type="line"/>
      <point x="715.0" y="-656.0"/>
      <point x="657.0" y="-683.0"/>
      <point x="603.0" y="-683.0" type="curve" smooth="yes"/>
      <point x="553.0" y="-683.0"/>
      <point x="526.0" y="-653.0"/>
      <point x="526.0" y="-615.0" type="curve" smooth="yes"/>
      <point x="526.0" y="-560.0"/>
      <point x="581.0" y="-518.0"/>
      <point x="676.0" y="-475.0" type="curve"/>
      <point x="555.0" y="-384.0" type="line"/>
      <point x="415.0" y="-441.0"/>
      <point x="360.0" y="-527.0"/>
      <point x="360.0" y="-613.0" type="curve" smooth="yes"/>
      <point x="360.0" y="-737.0"/>
      <point x="459.0" y="-826.0"/>
    </contour>
  </outline>
</glyph>
<glyph name="llVocalicMatra-deva" format="2">
  <unicode hex="0963"/>
  <anchor x="281.0" y="0.0" name="_bottom"/>
  <outline>
    <contour>
      <point x="664.0" y="-477.0" type="line"/>
      <point x="719.0" y="-422.0"/>
      <point x="788.0" y="-302.0"/>
      <point x="788.0" y="-174.0" type="curve" smooth="yes"/>
      <point x="788.0" y="2.0"/>
      <point x="689.0" y="130.0"/>
      <point x="495.0" y="130.0" type="curve" smooth="yes"/>
      <point x="300.0" y="130.0"/>
      <point x="208.0" y="-12.0"/>
      <point x="208.0" y="-181.0" type="curve" smooth="yes"/>
      <point x="208.0" y="-220.0"/>
      <point x="212.0" y="-257.0"/>
      <point x="224.0" y="-292.0" type="curve"/>
      <point x="383.0" y="-276.0" type="line"/>
      <point x="378.0" y="-246.0"/>
      <point x="376.0" y="-219.0"/>
      <point x="376.0" y="-196.0" type="curve" smooth="yes"/>
      <point x="376.0" y="-106.0"/>
      <point x="415.0" y="-39.0"/>
      <point x="502.0" y="-39.0" type="curve" smooth="yes"/>
      <point x="582.0" y="-39.0"/>
      <point x="613.0" y="-106.0"/>
      <point x="613.0" y="-187.0" type="curve" smooth="yes"/>
      <point x="613.0" y="-262.0"/>
      <point x="570.0" y="-348.0"/>
      <point x="525.0" y="-401.0" type="curve"/>
      <point x="526.0" y="-408.0" type="line"/>
    </contour>
    <contour>
      <point x="621.0" y="-1097.0" type="curve" smooth="yes"/>
      <point x="718.0" y="-1097.0"/>
      <point x="812.0" y="-1066.0"/>
      <point x="884.0" y="-1013.0" type="curve"/>
      <point x="824.0" y="-889.0" type="line"/>
      <point x="764.0" y="-926.0"/>
      <point x="694.0" y="-953.0"/>
      <point x="637.0" y="-953.0" type="curve" smooth="yes"/>
      <point x="577.0" y="-953.0"/>
      <point x="554.0" y="-929.0"/>
      <point x="554.0" y="-883.0" type="curve" smooth="yes"/>
      <point x="554.0" y="-831.0"/>
      <point x="600.0" y="-797.0"/>
      <point x="723.0" y="-783.0" type="curve"/>
      <point x="703.0" y="-648.0" type="line"/>
      <point x="465.0" y="-660.0"/>
      <point x="385.0" y="-781.0"/>
      <point x="385.0" y="-885.0" type="curve" smooth="yes"/>
      <point x="385.0" y="-1008.0"/>
      <point x="479.0" y="-1097.0"/>
    </contour>
    <contour>
      <point x="-68.0" y="-512.0" type="curve"/>
      <point x="-63.0" y="-512.0" type="line"/>
      <point x="82.0" y="-417.0" type="line"/>
      <point x="-1.0" y="-314.0"/>
      <point x="-37.0" y="-254.0"/>
      <point x="-37.0" y="-169.0" type="curve" smooth="yes"/>
      <point x="-37.0" y="-74.0"/>
      <point x="18.0" y="-42.0"/>
      <point x="79.0" y="-42.0" type="curve" smooth="yes"/>
      <point x="164.0" y="-42.0"/>
      <point x="226.0" y="-118.0"/>
      <point x="292.0" y="-225.0" type="curve"/>
      <point x="308.0" y="-100.0" type="line"/>
      <point x="247.0" y="59.0"/>
      <point x="160.0" y="126.0"/>
      <point x="36.0" y="126.0" type="curve" smooth="yes"/>
      <point x="-125.0" y="126.0"/>
      <point x="-219.0" y="21.0"/>
      <point x="-219.0" y="-161.0" type="curve" smooth="yes"/>
      <point x="-219.0" y="-299.0"/>
      <point x="-157.0" y="-402.0"/>
    </contour>
    <contour>
      <point x="568.0" y="-757.0" type="curve"/>
      <point x="657.0" y="-688.0" type="line"/>
      <point x="521.0" y="-666.0"/>
      <point x="492.0" y="-613.0"/>
      <point x="492.0" y="-567.0" type="curve" smooth="yes"/>
      <point x="492.0" y="-500.0"/>
      <point x="573.0" y="-482.0"/>
      <point x="664.0" y="-477.0" type="curve"/>
      <point x="664.0" y="-334.0" type="line"/>
      <point x="647.0" y="-333.0"/>
      <point x="638.0" y="-332.0"/>
      <point x="624.0" y="-332.0" type="curve" smooth="yes"/>
      <point x="490.0" y="-332.0"/>
      <point x="314.0" y="-399.0"/>
      <point x="314.0" y="-540.0" type="curve" smooth="yes"/>
      <point x="314.0" y="-606.0"/>
      <point x="330.0" y="-713.0"/>
    </contour>
  </outline>
</glyph>
<glyph name="danda-deva" format="2">
  <advance width="600.0"/>
  <unicode hex="0964"/>
  <outline>
    <contour>
      <point x="188.0" y="0.0" type="line"/>
      <point x="399.0" y="0.0" type="line"/>
      <point x="399.0" y="1287.0" type="line"/>
      <point x="188.0" y="1287.0" type="line"/>
    </contour>
  </outline>
</glyph>
<glyph name="four-deva" format="2">
  <advance width="1045.0"/>
  <unicode hex="096A"/>
  <outline>
    <contour>
      <point x="517.0" y="102.0" type="curve" smooth="yes"/>
      <point x="780.0" y="102.0"/>
      <point x="875.0" y="258.0"/>
      <point x="875.0" y="448.0" type="curve" smooth="yes"/>
      <point x="876.0" y="833.0"/>
      <point x="357.0" y="1125.0"/>
      <point x="99.0" y="1228.0" type="curve"/>
      <point x="12.0" y="1068.0" type="line"/>
      <point x="255.0" y="969.0"/>
      <point x="681.0" y="724.0"/>
      <point x="681.0" y="464.0" type="curve" smooth="yes"/>
      <point x="681.0" y="345.0"/>
      <point x="637.0" y="288.0"/>
      <point x="526.0" y="288.0" type="curve" smooth="yes"/>
      <point x="420.0" y="288.0"/>
      <point x="366.0" y="338.0"/>
      <point x="366.0" y="477.0" type="curve" smooth="yes"/>
      <point x="366.0" y="740.0"/>
      <point x="749.0" y="897.0"/>
      <point x="978.0" y="967.0" type="curve"/>
      <point x="901.0" y="1137.0" type="line"/>
      <point x="701.0" y="1078.0"/>
      <point x="169.0" y="850.0"/>
      <point x="169.0" y="459.0" type="curve" smooth="yes"/>
      <point x="169.0" y="230.0"/>
      <point x="297.0" y="102.0"/>
    </contour>
  </outline>
</glyph>
<glyph name="five-deva" format="2">
  <advance width="1075.0"/>
  <unicode hex="096B"/>
  <outline>
    <contour>
      <point x="478.0" y="187.0" type="curve" smooth="yes"/>
      <point x="725.0" y="187.0"/>
      <point x="916.0" y="358.0"/>
      <point x="907.0" y="508.0" type="curve" smooth="yes"/>
      <point x="899.0" y="630.0"/>
      <point x="761.0" y="682.0"/>
      <point x="680.0" y="699.0" type="curve"/>
      <point x="537.0" y="605.0" type="line"/>
      <point x="720.0" y="348.0" type="line"/>
      <point x="774.0" y="551.0" type="line"/>
      <point x="676.0" y="424.0"/>
      <point x="605.0" y="384.0"/>
      <point x="484.0" y="384.0" type="curve" smooth="yes"/>
      <point x="410.0" y="384.0"/>
      <point x="307.0" y="424.0"/>
      <point x="307.0" y="586.0" type="curve" smooth="yes"/>
      <point x="307.0" y="755.0"/>
      <point x="428.0" y="977.0"/>
      <point x="600.0" y="1175.0" type="curve"/>
      <point x="425.0" y="1303.0" type="line"/>
      <point x="187.0" y="1026.0"/>
      <point x="99.0" y="753.0"/>
      <point x="99.0" y="569.0" type="curve" smooth="yes"/>
      <point x="99.0" y="305.0"/>
      <point x="266.0" y="187.0"/>
    </contour>
    <contour>
      <point x="947.0" y="51.0" type="line"/>
      <point x="1116.0" y="191.0" type="line"/>
      <point x="839.0" y="462.0" type="line"/>
      <point x="708.0" y="364.0" type="line"/>
    </contour>
  </outline>
</glyph>
<glyph name="seven-deva" format="2">
  <advance width="1121.0"/>
  <unicode hex="096D"/>
  <outline>
    <contour>
      <point x="563.0" y="36.0" type="curve" smooth="yes"/>
      <point x="977.0" y="36.0"/>
      <point x="1040.0" y="378.0"/>
      <point x="1040.0" y="634.0" type="curve" smooth="yes"/>
      <point x="1040.0" y="970.0"/>
      <point x="907.0" y="1122.0"/>
      <point x="686.0" y="1122.0" type="curve" smooth="yes"/>
      <point x="503.0" y="1121.0"/>
      <point x="407.0" y="1009.0"/>
      <point x="407.0" y="823.0" type="curve" smooth="yes"/>
      <point x="407.0" y="655.0"/>
      <point x="513.0" y="528.0"/>
      <point x="628.0" y="470.0" type="curve"/>
      <point x="730.0" y="591.0" type="line"/>
      <point x="633.0" y="663.0"/>
      <point x="588.0" y="735.0"/>
      <point x="588.0" y="817.0" type="curve" smooth="yes"/>
      <point x="588.0" y="896.0"/>
      <point x="620.0" y="940.0"/>
      <point x="695.0" y="940.0" type="curve" smooth="yes"/>
      <point x="795.0" y="940.0"/>
      <point x="840.0" y="831.0"/>
      <point x="840.0" y="625.0" type="curve" smooth="yes"/>
      <point x="840.0" y="463.0"/>
      <point x="815.0" y="229.0"/>
      <point x="569.0" y="229.0" type="curve" smooth="yes"/>
      <point x="361.0" y="229.0"/>
      <point x="283.0" y="376.0"/>
      <point x="283.0" y="675.0" type="curve" smooth="yes"/>
      <point x="283.0" y="856.0"/>
      <point x="332.0" y="1043.0"/>
      <point x="421.0" y="1240.0" type="curve"/>
      <point x="227.0" y="1312.0" type="line"/>
      <point x="138.0" y="1128.0"/>
      <point x="81.0" y="902.0"/>
      <point x="77.0" y="669.0" type="curve" smooth="yes"/>
      <point x="74.0" y="468.0"/>
      <point x="129.0" y="36.0"/>
    </contour>
  </outline>
</glyph>
<glyph name="nine-deva" format="2">
  <advance width="852.0"/>
  <unicode hex="096F"/>
  <outline>
    <contour>
      <point x="463.0" y="-176.0" type="line"/>
      <point x="655.0" y="-150.0"/>
      <point x="797.0" y="-25.0"/>
      <point x="797.0" y="103.0" type="curve" smooth="yes"/>
      <point x="797.0" y="244.0"/>
      <point x="714.0" y="309.0"/>
      <point x="496.0" y="568.0" type="curve" smooth="yes"/>
      <point x="348.0" y="744.0"/>
      <point x="278.0" y="822.0"/>
      <point x="276.0" y="948.0" type="curve" smooth="yes"/>
      <point x="275.0" y="1078.0"/>
      <point x="348.0" y="1122.0"/>
      <point x="439.0" y="1122.0" type="curve" smooth="yes"/>
      <point x="518.0" y="1122.0"/>
      <point x="579.0" y="1076.0"/>
      <point x="581.0" y="982.0" type="curve" smooth="yes"/>
      <point x="585.0" y="793.0"/>
      <point x="412.0" y="744.0"/>
      <point x="275.0" y="743.0" type="curve"/>
      <point x="340.0" y="604.0" type="line"/>
      <point x="538.0" y="604.0"/>
      <point x="789.0" y="710.0"/>
      <point x="789.0" y="989.0" type="curve" smooth="yes"/>
      <point x="789.0" y="1191.0"/>
      <point x="640.0" y="1306.0"/>
      <point x="432.0" y="1306.0" type="curve" smooth="yes"/>
      <point x="215.0" y="1306.0"/>
      <point x="69.0" y="1183.0"/>
      <point x="69.0" y="964.0" type="curve" smooth="yes"/>
      <point x="69.0" y="786.0"/>
      <point x="155.0" y="667.0"/>
      <point x="320.0" y="468.0" type="curve" smooth="yes"/>
      <point x="494.0" y="256.0"/>
      <point x="590.0" y="166.0"/>
      <point x="590.0" y="112.0" type="curve" smooth="yes"/>
      <point x="590.0" y="48.0"/>
      <point x="482.0" y="16.0"/>
      <point x="381.0" y="-3.0" type="curve"/>
    </contour>
  </outline>
</glyph>
<glyph name="ooe-deva" format="2">
  <advance width="1962.0"/>
  <unicode hex="0974"/>
  <anchor x="1117.0" y="0.0" name="bottom_1"/>
  <anchor x="1679.0" y="0.0" name="bottom_2"/>
  <anchor x="942.0" y="1287.0" name="candra_1"/>
  <anchor x="1621.0" y="1287.0" name="candra_2"/>
  <anchor x="1154.0" y="1287.0" name="top_1"/>
  <anchor x="1678.0" y="1287.0" name="top_2"/>
  <outline>
    <contour>
      <point x="1575.0" y="1171.0" type="line"/>
      <point x="1785.0" y="1171.0" type="line"/>
      <point x="1785.0" y="1574.0" type="line"/>
      <point x="1575.0" y="1574.0" type="line"/>
    </contour>
    <component base="aa-deva"/>
  </outline>
</glyph>
<glyph name="aw-deva" format="2">
  <advance width="1959.0"/>
  <unicode hex="0975"/>
  <anchor x="1117.0" y="0.0" name="bottom_1"/>
  <anchor x="1679.0" y="0.0" name="bottom_2"/>
  <anchor x="942.0" y="1287.0" name="candra_1"/>
  <anchor x="1621.0" y="1287.0" name="candra_2"/>
  <anchor x="1154.0" y="1287.0" name="top_1"/>
  <anchor x="1678.0" y="1287.0" name="top_2"/>
  <outline>
    <contour>
      <point x="1732.0" y="1257.0" type="line"/>
      <point x="1810.0" y="1358.0"/>
      <point x="1839.0" y="1446.0"/>
      <point x="1839.0" y="1529.0" type="curve" smooth="yes"/>
      <point x="1839.0" y="1676.0"/>
      <point x="1731.0" y="1752.0"/>
      <point x="1552.0" y="1780.0" type="curve" smooth="yes"/>
      <point x="1264.0" y="1825.0" type="line" smooth="yes"/>
      <point x="1132.0" y="1846.0"/>
      <point x="1101.0" y="1863.0"/>
      <point x="1095.0" y="1908.0" type="curve" smooth="yes"/>
      <point x="1094.0" y="1915.0"/>
      <point x="1094.0" y="1923.0"/>
      <point x="1094.0" y="1932.0" type="curve"/>
      <point x="1011.0" y="1948.0" type="line"/>
      <point x="978.0" y="1916.0"/>
      <point x="964.0" y="1880.0"/>
      <point x="964.0" y="1846.0" type="curve" smooth="yes"/>
      <point x="964.0" y="1771.0"/>
      <point x="1031.0" y="1699.0"/>
      <point x="1159.0" y="1680.0" type="curve" smooth="yes"/>
      <point x="1462.0" y="1634.0" type="line" smooth="yes"/>
      <point x="1603.0" y="1613.0"/>
      <point x="1699.0" y="1586.0"/>
      <point x="1699.0" y="1443.0" type="curve" smooth="yes"/>
      <point x="1699.0" y="1403.0"/>
      <point x="1697.0" y="1368.0"/>
      <point x="1667.0" y="1310.0" type="curve"/>
    </contour>
    <contour>
      <point x="1663.0" y="1139.0" type="line"/>
      <point x="1681.0" y="1192.0"/>
      <point x="1695.0" y="1248.0"/>
      <point x="1695.0" y="1293.0" type="curve" smooth="yes"/>
      <point x="1695.0" y="1422.0"/>
      <point x="1643.0" y="1485.0"/>
      <point x="1443.0" y="1516.0" type="curve" smooth="yes"/>
      <point x="1103.0" y="1569.0" type="line" smooth="yes"/>
      <point x="957.0" y="1592.0"/>
      <point x="927.0" y="1635.0"/>
      <point x="927.0" y="1702.0" type="curve" smooth="yes"/>
      <point x="927.0" y="1711.0"/>
      <point x="926.0" y="1720.0"/>
      <point x="926.0" y="1729.0" type="curve"/>
      <point x="833.0" y="1744.0" type="line"/>
      <point x="811.0" y="1706.0"/>
      <point x="800.0" y="1666.0"/>
      <point x="800.0" y="1628.0" type="curve" smooth="yes"/>
      <point x="800.0" y="1523.0"/>
      <point x="879.0" y="1428.0"/>
      <point x="1059.0" y="1409.0" type="curve" smooth="yes"/>
      <point x="1449.0" y="1367.0" type="line" smooth="yes"/>
      <point x="1575.0" y="1353.0"/>
      <point x="1603.0" y="1322.0"/>
      <point x="1603.0" y="1253.0" type="curve" smooth="yes"/>
      <point x="1603.0" y="1230.0"/>
      <point x="1599.0" y="1200.0"/>
      <point x="1596.0" y="1163.0" type="curve"/>
    </contour>
    <component base="aa-deva"/>
  </outline>
</glyph>
<glyph name="ue-deva" format="2">
  <advance width="1399.0"/>
  <unicode hex="0976"/>
  <anchor x="1117.0" y="0.0" name="bottom"/>
  <anchor x="942.0" y="1287.0" name="candra"/>
  <anchor x="1154.0" y="1287.0" name="top"/>
  <outline>
    <contour>
      <point x="652.0" y="-354.0" type="curve" smooth="yes"/>
      <point x="834.0" y="-354.0"/>
      <point x="950.0" y="-265.0"/>
      <point x="1024.0" y="-102.0" type="curve"/>
      <point x="889.0" y="-27.0" type="line"/>
      <point x="847.0" y="-95.0"/>
      <point x="776.0" y="-172.0"/>
      <point x="638.0" y="-172.0" type="curve" smooth="yes"/>
      <point x="498.0" y="-172.0"/>
      <point x="431.0" y="-108.0"/>
      <point x="387.0" y="-32.0" type="curve"/>
      <point x="275.0" y="-109.0" type="line"/>
      <point x="325.0" y="-233.0"/>
      <point x="449.0" y="-354.0"/>
    </contour>
    <component base="a-deva"/>
  </outline>
</glyph>
<glyph name="uue-deva" format="2">
  <advance width="1399.0"/>
  <unicode hex="0977"/>
  <anchor x="1117.0" y="0.0" name="bottom"/>
  <anchor x="942.0" y="1287.0" name="candra"/>
  <anchor x="1154.0" y="1287.0" name="top"/>
  <outline>
    <contour>
      <point x="642.0" y="-344.0" type="curve" smooth="yes"/>
      <point x="834.0" y="-344.0"/>
      <point x="950.0" y="-255.0"/>
      <point x="1024.0" y="-92.0" type="curve"/>
      <point x="889.0" y="-17.0" type="line"/>
      <point x="847.0" y="-85.0"/>
      <point x="776.0" y="-162.0"/>
      <point x="628.0" y="-162.0" type="curve" smooth="yes"/>
      <point x="478.0" y="-162.0"/>
      <point x="411.0" y="-98.0"/>
      <point x="367.0" y="-22.0" type="curve"/>
      <point x="255.0" y="-99.0" type="line"/>
      <point x="305.0" y="-223.0"/>
      <point x="429.0" y="-344.0"/>
    </contour>
    <contour>
      <point x="658.0" y="-670.0" type="curve" smooth="yes"/>
      <point x="850.0" y="-670.0"/>
      <point x="966.0" y="-581.0"/>
      <point x="1040.0" y="-418.0" type="curve"/>
      <point x="905.0" y="-343.0" type="line"/>
      <point x="863.0" y="-411.0"/>
      <point x="792.0" y="-487.0"/>
      <point x="644.0" y="-487.0" type="curve" smooth="yes"/>
      <point x="494.0" y="-487.0"/>
      <point x="427.0" y="-423.0"/>
      <point x="383.0" y="-348.0" type="curve"/>
      <point x="271.0" y="-425.0" type="line"/>
      <point x="321.0" y="-548.0"/>
      <point x="445.0" y="-670.0"/>
    </contour>
    <component base="a-deva"/>
  </outline>
</glyph>
<glyph name="glottalstop-deva" format="2">
  <advance width="941.0"/>
  <unicode hex="097D"/>
  <outline>
    <contour>
      <point x="281.0" y="1.0" type="line"/>
      <point x="481.0" y="1.0" type="line"/>
      <point x="482.0" y="267.0" type="line" smooth="yes"/>
      <point x="483.0" y="428.0"/>
      <point x="521.0" y="455.0"/>
      <point x="623.0" y="538.0" type="curve" smooth="yes"/>
      <point x="807.0" y="688.0"/>
      <point x="860.0" y="783.0"/>
      <point x="860.0" y="955.0" type="curve" smooth="yes"/>
      <point x="860.0" y="1201.0"/>
      <point x="662.0" y="1304.0"/>
      <point x="431.0" y="1304.0" type="curve" smooth="yes"/>
      <point x="296.0" y="1304.0"/>
      <point x="189.0" y="1279.0"/>
      <point x="109.0" y="1241.0" type="curve"/>
      <point x="161.0" y="1069.0" type="line"/>
      <point x="241.0" y="1096.0"/>
      <point x="314.0" y="1123.0"/>
      <point x="433.0" y="1123.0" type="curve" smooth="yes"/>
      <point x="586.0" y="1123.0"/>
      <point x="661.0" y="1067.0"/>
      <point x="661.0" y="943.0" type="curve" smooth="yes"/>
      <point x="661.0" y="839.0"/>
      <point x="623.0" y="795.0"/>
      <point x="510.0" y="703.0" type="curve" smooth="yes"/>
      <point x="352.0" y="574.0"/>
      <point x="283.0" y="536.0"/>
      <point x="282.0" y="349.0" type="curve" smooth="yes"/>
    </contour>
  </outline>
</glyph>
<glyph name="rightFacingSvasti" format="2">
  <advance width="1622.0"/>
  <unicode hex="0FD5"/>
  <outline>
    <contour>
      <point x="706.0" y="1.0" type="line"/>
      <point x="916.0" y="1.0" type="line"/>
      <point x="916.0" y="1238.0" type="line"/>
      <point x="706.0" y="1238.0" type="line"/>
    </contour>
    <contour>
      <point x="156.0" y="1.0" type="line"/>
      <point x="916.0" y="1.0" type="line"/>
      <point x="916.0" y="183.0" type="line"/>
      <point x="156.0" y="183.0" type="line"/>
    </contour>
    <contour>
      <point x="156.0" y="561.0" type="line"/>
      <point x="366.0" y="561.0" type="line"/>
      <point x="366.0" y="1287.0" type="line"/>
      <point x="156.0" y="1287.0" type="line"/>
    </contour>
    <contour>
      <point x="156.0" y="558.0" type="line"/>
      <point x="1466.0" y="558.0" type="line"/>
      <point x="1466.0" y="741.0" type="line"/>
      <point x="156.0" y="741.0" type="line"/>
    </contour>
    <contour>
      <point x="1256.0" y="1.0" type="line"/>
      <point x="1466.0" y="1.0" type="line"/>
      <point x="1466.0" y="741.0" type="line"/>
      <point x="1256.0" y="741.0" type="line"/>
    </contour>
    <contour>
      <point x="706.0" y="1104.0" type="line"/>
      <point x="1466.0" y="1104.0" type="line"/>
      <point x="1466.0" y="1287.0" type="line"/>
      <point x="706.0" y="1287.0" type="line"/>
    </contour>
  </outline>
</glyph>
<glyph name="g.sups" format="2">
  <advance width="716.0"/>
  <unicode hex="1D4D"/>
  <outline>
    <contour>
      <point x="334.0" y="239.0" type="curve" smooth="yes"/>
      <point x="557.0" y="239.0"/>
      <point x="693.0" y="343.0"/>
      <point x="693.0" y="474.0" type="curve" smooth="yes"/>
      <point x="693.0" y="590.0"/>
      <point x="613.0" y="639.0"/>
      <point x="448.0" y="639.0" type="curve" smooth="yes"/>
      <point x="328.0" y="639.0" type="line" smooth="yes"/>
      <point x="247.0" y="639.0"/>
      <point x="219.0" y="658.0"/>
      <point x="219.0" y="696.0" type="curve" smooth="yes"/>
      <point x="219.0" y="724.0"/>
      <point x="232.0" y="741.0"/>
      <point x="252.0" y="758.0" type="curve"/>
      <point x="284.0" y="744.0"/>
      <point x="315.0" y="739.0"/>
      <point x="343.0" y="739.0" type="curve" smooth="yes"/>
      <point x="484.0" y="739.0"/>
      <point x="601.0" y="820.0"/>
      <point x="601.0" y="970.0" type="curve" smooth="yes"/>
      <point x="601.0" y="1010.0"/>
      <point x="585.0" y="1053.0"/>
      <point x="565.0" y="1076.0" type="curve"/>
      <point x="683.0" y="1076.0" type="line"/>
      <point x="683.0" y="1196.0" type="line"/>
      <point x="449.0" y="1196.0" type="line"/>
      <point x="419.0" y="1208.0"/>
      <point x="383.0" y="1214.0"/>
      <point x="343.0" y="1214.0" type="curve" smooth="yes"/>
      <point x="200.0" y="1214.0"/>
      <point x="75.0" y="1127.0"/>
      <point x="75.0" y="973.0" type="curve" smooth="yes"/>
      <point x="75.0" y="895.0"/>
      <point x="118.0" y="832.0"/>
      <point x="165.0" y="800.0" type="curve"/>
      <point x="165.0" y="791.0" type="line"/>
      <point x="124.0" y="765.0"/>
      <point x="90.0" y="718.0"/>
      <point x="90.0" y="671.0" type="curve" smooth="yes"/>
      <point x="90.0" y="615.0"/>
      <point x="115.0" y="582.0"/>
      <point x="150.0" y="558.0" type="curve"/>
      <point x="150.0" y="550.0" type="line"/>
      <point x="89.0" y="516.0"/>
      <point x="56.0" y="470.0"/>
      <point x="56.0" y="413.0" type="curve" smooth="yes"/>
      <point x="56.0" y="295.0"/>
      <point x="172.0" y="239.0"/>
    </contour>
    <contour>
      <point x="359.0" y="344.0" type="curve" smooth="yes"/>
      <point x="254.0" y="344.0"/>
      <point x="189.0" y="378.0"/>
      <point x="189.0" y="438.0" type="curve" smooth="yes"/>
      <point x="189.0" y="468.0"/>
      <point x="208.0" y="497.0"/>
      <point x="241.0" y="521.0" type="curve"/>
      <point x="270.0" y="513.0"/>
      <point x="304.0" y="513.0"/>
      <point x="329.0" y="513.0" type="curve" smooth="yes"/>
      <point x="423.0" y="513.0" type="line" smooth="yes"/>
      <point x="498.0" y="513.0"/>
      <point x="540.0" y="498.0"/>
      <point x="540.0" y="449.0" type="curve" smooth="yes"/>
      <point x="540.0" y="392.0"/>
      <point x="467.0" y="344.0"/>
    </contour>
    <contour>
      <point x="343.0" y="841.0" type="curve" smooth="yes"/>
      <point x="274.0" y="841.0"/>
      <point x="225.0" y="891.0"/>
      <point x="225.0" y="973.0" type="curve" smooth="yes"/>
      <point x="225.0" y="1057.0"/>
      <point x="274.0" y="1103.0"/>
      <point x="343.0" y="1103.0" type="curve" smooth="yes"/>
      <point x="408.0" y="1103.0"/>
      <point x="460.0" y="1057.0"/>
      <point x="460.0" y="973.0" type="curve" smooth="yes"/>
      <point x="460.0" y="891.0"/>
      <point x="408.0" y="841.0"/>
    </contour>
  </outline>
</glyph>
<glyph name="t.sups" format="2">
  <advance width="496.0"/>
  <unicode hex="1D57"/>
  <outline>
    <contour>
      <point x="338.0" y="516.0" type="curve" smooth="yes"/>
      <point x="394.0" y="516.0"/>
      <point x="443.0" y="528.0"/>
      <point x="480.0" y="541.0" type="curve"/>
      <point x="450.0" y="656.0" type="line"/>
      <point x="427.0" y="647.0"/>
      <point x="404.0" y="642.0"/>
      <point x="379.0" y="642.0" type="curve" smooth="yes"/>
      <point x="318.0" y="642.0"/>
      <point x="285.0" y="682.0"/>
      <point x="285.0" y="761.0" type="curve" smooth="yes"/>
      <point x="285.0" y="1072.0" type="line"/>
      <point x="457.0" y="1072.0" type="line"/>
      <point x="457.0" y="1197.0" type="line"/>
      <point x="285.0" y="1197.0" type="line"/>
      <point x="285.0" y="1378.0" type="line"/>
      <point x="152.0" y="1378.0" type="line"/>
      <point x="132.0" y="1197.0" type="line"/>
      <point x="30.0" y="1191.0" type="line"/>
      <point x="30.0" y="1072.0" type="line"/>
      <point x="126.0" y="1072.0" type="line"/>
      <point x="126.0" y="762.0" type="line" smooth="yes"/>
      <point x="126.0" y="616.0"/>
      <point x="183.0" y="516.0"/>
    </contour>
  </outline>
</glyph>
<glyph name="u.sups" format="2">
  <advance width="768.0"/>
  <unicode hex="1D58"/>
  <outline>
    <contour>
      <point x="306.0" y="516.0" type="curve" smooth="yes"/>
      <point x="396.0" y="516.0"/>
      <point x="470.0" y="568.0"/>
      <point x="522.0" y="622.0" type="curve"/>
      <point x="528.0" y="622.0" type="line"/>
      <point x="545.0" y="532.0" type="line"/>
      <point x="672.0" y="532.0" type="line"/>
      <point x="672.0" y="1197.0" type="line"/>
      <point x="512.0" y="1197.0" type="line"/>
      <point x="512.0" y="734.0" type="line"/>
      <point x="458.0" y="678.0"/>
      <point x="411.0" y="651.0"/>
      <point x="363.0" y="651.0" type="curve" smooth="yes"/>
      <point x="271.0" y="651.0"/>
      <point x="253.0" y="705.0"/>
      <point x="253.0" y="801.0" type="curve" smooth="yes"/>
      <point x="253.0" y="1197.0" type="line"/>
      <point x="94.0" y="1197.0" type="line"/>
      <point x="94.0" y="779.0" type="line" smooth="yes"/>
      <point x="94.0" y="622.0"/>
      <point x="154.0" y="516.0"/>
    </contour>
  </outline>
</glyph>
<glyph name="c.sups" format="2">
  <advance width="632.0"/>
  <unicode hex="1D9C"/>
  <outline>
    <contour>
      <point x="379.0" y="516.0" type="curve" smooth="yes"/>
      <point x="484.0" y="516.0"/>
      <point x="555.0" y="556.0"/>
      <point x="602.0" y="594.0" type="curve"/>
      <point x="536.0" y="697.0" type="line"/>
      <point x="501.0" y="670.0"/>
      <point x="462.0" y="645.0"/>
      <point x="397.0" y="645.0" type="curve" smooth="yes"/>
      <point x="292.0" y="645.0"/>
      <point x="219.0" y="735.0"/>
      <point x="219.0" y="865.0" type="curve" smooth="yes"/>
      <point x="219.0" y="995.0"/>
      <point x="296.0" y="1085.0"/>
      <point x="398.0" y="1085.0" type="curve" smooth="yes"/>
      <point x="450.0" y="1085.0"/>
      <point x="480.0" y="1068.0"/>
      <point x="517.0" y="1040.0" type="curve"/>
      <point x="592.0" y="1143.0" type="line"/>
      <point x="554.0" y="1177.0"/>
      <point x="484.0" y="1214.0"/>
      <point x="386.0" y="1214.0" type="curve" smooth="yes"/>
      <point x="210.0" y="1214.0"/>
      <point x="56.0" y="1084.0"/>
      <point x="56.0" y="865.0" type="curve" smooth="yes"/>
      <point x="56.0" y="643.0"/>
      <point x="193.0" y="516.0"/>
    </contour>
  </outline>
</glyph>
